<svg width="140" height="140" viewBox="0 0 140 140" fill="none" xmlns="http://www.w3.org/2000/svg">
    <g filter="url(#filter0_d_1063_1084)">
        <path d="M6 16C6 10.4772 10.4772 6 16 6H116C121.523 6 126 10.4772 126 16V116C126 121.523 121.523 126 116 126H16C10.4772 126 6 121.523 6 116V16Z" fill="white" fill-opacity="0.8" shape-rendering="crispEdges"/>
        <path d="M7 16C7 11.0294 11.0294 7 16 7H116C120.971 7 125 11.0294 125 16V116C125 120.971 120.971 125 116 125H16C11.0294 125 7 120.971 7 116V16Z" stroke="white" stroke-opacity="0.8" stroke-width="2" shape-rendering="crispEdges"/>
    </g>
    <path d="M79 66C79 66.2873 78.8859 66.5629 78.6827 66.766C78.4795 66.9692 78.204 67.0833 77.9167 67.0833H67.0833V77.9167C67.0833 78.204 66.9692 78.4795 66.766 78.6827C66.5629 78.8859 66.2873 79 66 79C65.7127 79 65.4371 78.8859 65.234 78.6827C65.0308 78.4795 64.9167 78.204 64.9167 77.9167V67.0833H54.0833C53.796 67.0833 53.5205 66.9692 53.3173 66.766C53.1141 66.5629 53 66.2873 53 66C53 65.7127 53.1141 65.4371 53.3173 65.234C53.5205 65.0308 53.796 64.9167 54.0833 64.9167H64.9167V54.0833C64.9167 53.796 65.0308 53.5205 65.234 53.3173C65.4371 53.1141 65.7127 53 66 53C66.2873 53 66.5629 53.1141 66.766 53.3173C66.9692 53.5205 67.0833 53.796 67.0833 54.0833V64.9167H77.9167C78.204 64.9167 78.4795 65.0308 78.6827 65.234C78.8859 65.4371 79 65.7127 79 66Z" fill="#3F3F3F" fill-opacity="0.8"/>
    <defs>
        <filter id="filter0_d_1063_1084" x="0" y="0" width="140" height="140" filterUnits="userSpaceOnUse" color-interpolation-filters="sRGB">
            <feFlood flood-opacity="0" result="BackgroundImageFix"/>
            <feColorMatrix in="SourceAlpha" type="matrix" values="0 0 0 0 0 0 0 0 0 0 0 0 0 0 0 0 0 0 127 0" result="hardAlpha"/>
            <feOffset dx="4" dy="4"/>
            <feGaussianBlur stdDeviation="5"/>
            <feComposite in2="hardAlpha" operator="out"/>
            <feColorMatrix type="matrix" values="0 0 0 0 0 0 0 0 0 0 0 0 0 0 0 0 0 0 0.25 0"/>
            <feBlend mode="normal" in2="BackgroundImageFix" result="effect1_dropShadow_1063_1084"/>
            <feBlend mode="normal" in="SourceGraphic" in2="effect1_dropShadow_1063_1084" result="shape"/>
        </filter>
    </defs>
</svg>
