<svg width="200" height="200" viewBox="0 0 200 200" fill="none" xmlns="http://www.w3.org/2000/svg">
<rect width="200" height="200" rx="20" fill="#FFCD29"/>
<path d="M133.517 73.5625C132.522 70.1061 131.126 67.0521 129.326 64.4006C127.527 61.7017 125.325 59.429 122.721 57.5824C120.164 55.6884 117.229 54.2443 113.914 53.25C110.647 52.2557 107.025 51.7585 103.048 51.7585C95.6142 51.7585 89.0801 53.6051 83.4457 57.2983C77.8585 60.9915 73.5025 66.3655 70.3775 73.4205C67.2525 80.428 65.69 88.9981 65.69 99.1307C65.69 109.263 67.2288 117.881 70.3065 124.983C73.3841 132.085 77.7402 137.507 83.3746 141.247C89.0091 144.94 95.6616 146.787 103.332 146.787C110.292 146.787 116.234 145.556 121.159 143.094C126.13 140.584 129.918 137.057 132.522 132.511C135.174 127.966 136.5 122.592 136.5 116.389L142.75 117.312H105.25V94.1591H166.116V112.483C166.116 125.267 163.417 136.252 158.02 145.438C152.622 154.576 145.188 161.631 135.718 166.602C126.249 171.527 115.406 173.989 103.19 173.989C89.5536 173.989 77.5745 170.982 67.2525 164.969C56.9305 158.908 48.8813 150.314 43.1048 139.188C37.3756 128.013 34.511 114.756 34.511 99.4148C34.511 87.625 36.2156 77.1136 39.6246 67.8807C43.0811 58.6004 47.9106 50.7405 54.1133 44.3011C60.3159 37.8617 67.5366 32.9612 75.7752 29.5994C84.0138 26.2377 92.939 24.5568 102.551 24.5568C110.789 24.5568 118.46 25.7642 125.562 28.179C132.664 30.5464 138.962 33.9081 144.454 38.2642C149.994 42.6203 154.516 47.8049 158.02 53.8182C161.523 59.7841 163.772 66.3655 164.767 73.5625H133.517Z" fill="white"/>
</svg>
