<svg width="84" height="25" viewBox="0 0 84 25" fill="none" xmlns="http://www.w3.org/2000/svg">
    <g filter="url(#filter0_d_1216_1089)">
        <mask id="path-1-outside-1_1216_1089" maskUnits="userSpaceOnUse" x="1" y="0" width="81" height="23" fill="black">
            <rect fill="white" x="1" width="81" height="23"/>
            <path d="M3.0483 4.886C3.0483 4.63667 3.09963 4.47533 3.2023 4.402C3.31963 4.314 3.5103 4.26267 3.7743 4.248L13.3663 4.028C13.6303 4.01333 13.8136 4.05733 13.9163 4.16C14.0336 4.248 14.0923 4.41667 14.0923 4.666V6.8C14.0923 7.04933 14.0336 7.218 13.9163 7.306C13.8136 7.37933 13.6303 7.42333 13.3663 7.438L6.8983 7.57L7.0083 17.294L12.9043 17.162C13.1683 17.1473 13.3516 17.1913 13.4543 17.294C13.5716 17.382 13.6303 17.5507 13.6303 17.8V19.802C13.6303 20.0513 13.5716 20.2127 13.4543 20.286C13.3516 20.374 13.1683 20.4253 12.9043 20.44L4.1043 20.66C3.78163 20.6747 3.56163 20.6087 3.4443 20.462C3.34163 20.3153 3.28296 20.0513 3.2683 19.67L3.0483 4.886ZM15.4783 5.458C15.4783 5.07667 15.537 4.82 15.6543 4.688C15.7863 4.54133 16.0063 4.468 16.3143 4.468H18.3823C18.705 4.468 18.925 4.54133 19.0423 4.688C19.1596 4.82 19.2183 5.07667 19.2183 5.458V10.496L20.6923 10.452C20.9563 10.4373 21.1396 10.4813 21.2423 10.584C21.3596 10.672 21.4183 10.8407 21.4183 11.09V13.158C21.4183 13.4073 21.3596 13.576 21.2423 13.664C21.1396 13.7373 20.9563 13.7813 20.6923 13.796L19.2183 13.84V19.01C19.2183 19.3913 19.1596 19.6553 19.0423 19.802C18.925 19.934 18.705 20 18.3823 20H16.3143C16.0063 20 15.7863 19.934 15.6543 19.802C15.537 19.6553 15.4783 19.3913 15.4783 19.01V5.458ZM29.0506 15.732L25.8606 20.352C25.7432 20.528 25.6186 20.638 25.4866 20.682C25.3692 20.7407 25.2079 20.6967 25.0026 20.55L23.1766 19.274C22.9712 19.1273 22.8392 18.988 22.7806 18.856C22.7366 18.724 22.7879 18.548 22.9346 18.328L26.8286 12.652C26.9606 12.4467 27.0486 12.234 27.0926 12.014C27.1512 11.794 27.1806 11.552 27.1806 11.288V5.018C27.1806 4.63667 27.2392 4.38 27.3566 4.248C27.4886 4.10133 27.7086 4.028 28.0166 4.028H30.0846C30.3926 4.028 30.6052 4.10133 30.7226 4.248C30.8546 4.38 30.9206 4.63667 30.9206 5.018V11.288C30.9206 11.552 30.9426 11.794 30.9866 12.014C31.0452 12.234 31.1406 12.4467 31.2726 12.652L35.1666 17.888C35.3279 18.108 35.3792 18.284 35.3206 18.416C35.2619 18.548 35.1299 18.6873 34.9246 18.834L33.0986 20.11C32.8932 20.2567 32.7246 20.3007 32.5926 20.242C32.4752 20.198 32.3579 20.088 32.2406 19.912L29.0506 15.732ZM36.5966 5.458C36.5966 5.07667 36.6552 4.82 36.7726 4.688C36.9046 4.54133 37.1246 4.468 37.4326 4.468H39.5006C39.8232 4.468 40.0432 4.54133 40.1606 4.688C40.2779 4.82 40.3366 5.07667 40.3366 5.458V19.01C40.3366 19.3913 40.2779 19.6553 40.1606 19.802C40.0432 19.934 39.8232 20 39.5006 20H37.4326C37.1246 20 36.9046 19.934 36.7726 19.802C36.6552 19.6553 36.5966 19.3913 36.5966 19.01V5.458ZM48.188 19.428C47.308 19.428 46.516 19.3033 45.812 19.054C45.1227 18.79 44.5287 18.4233 44.03 17.954C43.546 17.4847 43.172 16.92 42.908 16.26C42.644 15.6 42.512 14.8667 42.512 14.06C42.512 13.2533 42.644 12.52 42.908 11.86C43.172 11.2 43.546 10.6353 44.03 10.166C44.5287 9.682 45.1227 9.31533 45.812 9.066C46.516 8.802 47.308 8.67 48.188 8.67C49.068 8.67 49.8527 8.802 50.542 9.066C51.246 9.31533 51.84 9.682 52.324 10.166C52.8227 10.6353 53.204 11.2 53.468 11.86C53.732 12.52 53.864 13.2533 53.864 14.06C53.864 14.8667 53.732 15.6 53.468 16.26C53.204 16.92 52.8227 17.4847 52.324 17.954C51.84 18.4233 51.246 18.79 50.542 19.054C49.8527 19.3033 49.068 19.428 48.188 19.428ZM55.074 5.458C55.074 5.07667 55.1327 4.82 55.25 4.688C55.382 4.54133 55.602 4.468 55.91 4.468H57.978C58.3007 4.468 58.5207 4.54133 58.638 4.688C58.7553 4.82 58.814 5.07667 58.814 5.458V10.496L60.288 10.452C60.552 10.4373 60.7353 10.4813 60.838 10.584C60.9553 10.672 61.014 10.8407 61.014 11.09V13.158C61.014 13.4073 60.9553 13.576 60.838 13.664C60.7353 13.7373 60.552 13.7813 60.288 13.796L58.814 13.84V19.01C58.814 19.3913 58.7553 19.6553 58.638 19.802C58.5207 19.934 58.3007 20 57.978 20H55.91C55.602 20 55.382 19.934 55.25 19.802C55.1327 19.6553 55.074 19.3913 55.074 19.01V5.458ZM54.128 6.822C54.128 7.20333 54.0693 7.46 53.952 7.592C53.8347 7.724 53.6147 7.79733 53.292 7.812L43.04 8.032C42.732 8.04667 42.512 7.98067 42.38 7.834C42.2627 7.68733 42.204 7.42333 42.204 7.042V5.678C42.204 5.29667 42.2627 5.04 42.38 4.908C42.512 4.776 42.732 4.70267 43.04 4.688L46.318 4.622V3.83C46.318 3.44867 46.3767 3.192 46.494 3.06C46.626 2.91333 46.846 2.84 47.154 2.84H49.222C49.53 2.84 49.7427 2.91333 49.86 3.06C49.992 3.192 50.058 3.44867 50.058 3.83V4.534L53.292 4.468C53.6147 4.45333 53.8347 4.51933 53.952 4.666C54.0693 4.81267 54.128 5.07667 54.128 5.458V6.822ZM48.188 16.26C48.936 16.26 49.508 16.0547 49.904 15.644C50.3147 15.2333 50.52 14.7053 50.52 14.06C50.52 13.4 50.3147 12.8647 49.904 12.454C49.508 12.0433 48.936 11.838 48.188 11.838C47.44 11.838 46.8607 12.0433 46.45 12.454C46.054 12.8647 45.856 13.4 45.856 14.06C45.856 14.7053 46.054 15.2333 46.45 15.644C46.846 16.0547 47.4253 16.26 48.188 16.26ZM76.1923 5.458C76.1923 5.07667 76.2509 4.82 76.3683 4.688C76.5003 4.54133 76.7203 4.468 77.0283 4.468H79.0963C79.4189 4.468 79.6389 4.54133 79.7563 4.688C79.8736 4.82 79.9323 5.07667 79.9323 5.458V19.01C79.9323 19.3913 79.8736 19.6553 79.7563 19.802C79.6389 19.934 79.4189 20 79.0963 20H77.0283C76.7203 20 76.5003 19.934 76.3683 19.802C76.2509 19.6553 76.1923 19.3913 76.1923 19.01V5.458ZM70.4503 7.438L63.3883 7.592C63.1243 7.592 62.9336 7.548 62.8163 7.46C62.7136 7.372 62.6623 7.20333 62.6623 6.954V4.886C62.6623 4.63667 62.7136 4.468 62.8163 4.38C62.9336 4.292 63.1243 4.248 63.3883 4.248L73.5303 4.028C73.8676 4.01333 74.0949 4.07933 74.2123 4.226C74.3443 4.37267 74.3956 4.63667 74.3663 5.018L73.2443 19.45C73.2149 19.8313 73.1489 20.088 73.0463 20.22C72.9436 20.3667 72.7309 20.44 72.4083 20.44H70.3623C70.0543 20.44 69.8269 20.3667 69.6803 20.22C69.5483 20.088 69.4969 19.8313 69.5263 19.45L70.4503 7.438Z"/>
        </mask>
        <path d="M3.0483 4.886C3.0483 4.63667 3.09963 4.47533 3.2023 4.402C3.31963 4.314 3.5103 4.26267 3.7743 4.248L13.3663 4.028C13.6303 4.01333 13.8136 4.05733 13.9163 4.16C14.0336 4.248 14.0923 4.41667 14.0923 4.666V6.8C14.0923 7.04933 14.0336 7.218 13.9163 7.306C13.8136 7.37933 13.6303 7.42333 13.3663 7.438L6.8983 7.57L7.0083 17.294L12.9043 17.162C13.1683 17.1473 13.3516 17.1913 13.4543 17.294C13.5716 17.382 13.6303 17.5507 13.6303 17.8V19.802C13.6303 20.0513 13.5716 20.2127 13.4543 20.286C13.3516 20.374 13.1683 20.4253 12.9043 20.44L4.1043 20.66C3.78163 20.6747 3.56163 20.6087 3.4443 20.462C3.34163 20.3153 3.28296 20.0513 3.2683 19.67L3.0483 4.886ZM15.4783 5.458C15.4783 5.07667 15.537 4.82 15.6543 4.688C15.7863 4.54133 16.0063 4.468 16.3143 4.468H18.3823C18.705 4.468 18.925 4.54133 19.0423 4.688C19.1596 4.82 19.2183 5.07667 19.2183 5.458V10.496L20.6923 10.452C20.9563 10.4373 21.1396 10.4813 21.2423 10.584C21.3596 10.672 21.4183 10.8407 21.4183 11.09V13.158C21.4183 13.4073 21.3596 13.576 21.2423 13.664C21.1396 13.7373 20.9563 13.7813 20.6923 13.796L19.2183 13.84V19.01C19.2183 19.3913 19.1596 19.6553 19.0423 19.802C18.925 19.934 18.705 20 18.3823 20H16.3143C16.0063 20 15.7863 19.934 15.6543 19.802C15.537 19.6553 15.4783 19.3913 15.4783 19.01V5.458ZM29.0506 15.732L25.8606 20.352C25.7432 20.528 25.6186 20.638 25.4866 20.682C25.3692 20.7407 25.2079 20.6967 25.0026 20.55L23.1766 19.274C22.9712 19.1273 22.8392 18.988 22.7806 18.856C22.7366 18.724 22.7879 18.548 22.9346 18.328L26.8286 12.652C26.9606 12.4467 27.0486 12.234 27.0926 12.014C27.1512 11.794 27.1806 11.552 27.1806 11.288V5.018C27.1806 4.63667 27.2392 4.38 27.3566 4.248C27.4886 4.10133 27.7086 4.028 28.0166 4.028H30.0846C30.3926 4.028 30.6052 4.10133 30.7226 4.248C30.8546 4.38 30.9206 4.63667 30.9206 5.018V11.288C30.9206 11.552 30.9426 11.794 30.9866 12.014C31.0452 12.234 31.1406 12.4467 31.2726 12.652L35.1666 17.888C35.3279 18.108 35.3792 18.284 35.3206 18.416C35.2619 18.548 35.1299 18.6873 34.9246 18.834L33.0986 20.11C32.8932 20.2567 32.7246 20.3007 32.5926 20.242C32.4752 20.198 32.3579 20.088 32.2406 19.912L29.0506 15.732ZM36.5966 5.458C36.5966 5.07667 36.6552 4.82 36.7726 4.688C36.9046 4.54133 37.1246 4.468 37.4326 4.468H39.5006C39.8232 4.468 40.0432 4.54133 40.1606 4.688C40.2779 4.82 40.3366 5.07667 40.3366 5.458V19.01C40.3366 19.3913 40.2779 19.6553 40.1606 19.802C40.0432 19.934 39.8232 20 39.5006 20H37.4326C37.1246 20 36.9046 19.934 36.7726 19.802C36.6552 19.6553 36.5966 19.3913 36.5966 19.01V5.458ZM48.188 19.428C47.308 19.428 46.516 19.3033 45.812 19.054C45.1227 18.79 44.5287 18.4233 44.03 17.954C43.546 17.4847 43.172 16.92 42.908 16.26C42.644 15.6 42.512 14.8667 42.512 14.06C42.512 13.2533 42.644 12.52 42.908 11.86C43.172 11.2 43.546 10.6353 44.03 10.166C44.5287 9.682 45.1227 9.31533 45.812 9.066C46.516 8.802 47.308 8.67 48.188 8.67C49.068 8.67 49.8527 8.802 50.542 9.066C51.246 9.31533 51.84 9.682 52.324 10.166C52.8227 10.6353 53.204 11.2 53.468 11.86C53.732 12.52 53.864 13.2533 53.864 14.06C53.864 14.8667 53.732 15.6 53.468 16.26C53.204 16.92 52.8227 17.4847 52.324 17.954C51.84 18.4233 51.246 18.79 50.542 19.054C49.8527 19.3033 49.068 19.428 48.188 19.428ZM55.074 5.458C55.074 5.07667 55.1327 4.82 55.25 4.688C55.382 4.54133 55.602 4.468 55.91 4.468H57.978C58.3007 4.468 58.5207 4.54133 58.638 4.688C58.7553 4.82 58.814 5.07667 58.814 5.458V10.496L60.288 10.452C60.552 10.4373 60.7353 10.4813 60.838 10.584C60.9553 10.672 61.014 10.8407 61.014 11.09V13.158C61.014 13.4073 60.9553 13.576 60.838 13.664C60.7353 13.7373 60.552 13.7813 60.288 13.796L58.814 13.84V19.01C58.814 19.3913 58.7553 19.6553 58.638 19.802C58.5207 19.934 58.3007 20 57.978 20H55.91C55.602 20 55.382 19.934 55.25 19.802C55.1327 19.6553 55.074 19.3913 55.074 19.01V5.458ZM54.128 6.822C54.128 7.20333 54.0693 7.46 53.952 7.592C53.8347 7.724 53.6147 7.79733 53.292 7.812L43.04 8.032C42.732 8.04667 42.512 7.98067 42.38 7.834C42.2627 7.68733 42.204 7.42333 42.204 7.042V5.678C42.204 5.29667 42.2627 5.04 42.38 4.908C42.512 4.776 42.732 4.70267 43.04 4.688L46.318 4.622V3.83C46.318 3.44867 46.3767 3.192 46.494 3.06C46.626 2.91333 46.846 2.84 47.154 2.84H49.222C49.53 2.84 49.7427 2.91333 49.86 3.06C49.992 3.192 50.058 3.44867 50.058 3.83V4.534L53.292 4.468C53.6147 4.45333 53.8347 4.51933 53.952 4.666C54.0693 4.81267 54.128 5.07667 54.128 5.458V6.822ZM48.188 16.26C48.936 16.26 49.508 16.0547 49.904 15.644C50.3147 15.2333 50.52 14.7053 50.52 14.06C50.52 13.4 50.3147 12.8647 49.904 12.454C49.508 12.0433 48.936 11.838 48.188 11.838C47.44 11.838 46.8607 12.0433 46.45 12.454C46.054 12.8647 45.856 13.4 45.856 14.06C45.856 14.7053 46.054 15.2333 46.45 15.644C46.846 16.0547 47.4253 16.26 48.188 16.26ZM76.1923 5.458C76.1923 5.07667 76.2509 4.82 76.3683 4.688C76.5003 4.54133 76.7203 4.468 77.0283 4.468H79.0963C79.4189 4.468 79.6389 4.54133 79.7563 4.688C79.8736 4.82 79.9323 5.07667 79.9323 5.458V19.01C79.9323 19.3913 79.8736 19.6553 79.7563 19.802C79.6389 19.934 79.4189 20 79.0963 20H77.0283C76.7203 20 76.5003 19.934 76.3683 19.802C76.2509 19.6553 76.1923 19.3913 76.1923 19.01V5.458ZM70.4503 7.438L63.3883 7.592C63.1243 7.592 62.9336 7.548 62.8163 7.46C62.7136 7.372 62.6623 7.20333 62.6623 6.954V4.886C62.6623 4.63667 62.7136 4.468 62.8163 4.38C62.9336 4.292 63.1243 4.248 63.3883 4.248L73.5303 4.028C73.8676 4.01333 74.0949 4.07933 74.2123 4.226C74.3443 4.37267 74.3956 4.63667 74.3663 5.018L73.2443 19.45C73.2149 19.8313 73.1489 20.088 73.0463 20.22C72.9436 20.3667 72.7309 20.44 72.4083 20.44H70.3623C70.0543 20.44 69.8269 20.3667 69.6803 20.22C69.5483 20.088 69.4969 19.8313 69.5263 19.45L70.4503 7.438Z" fill="white"/>
        <path d="M3.0483 4.886H1.0483V4.90088L1.04852 4.91576L3.0483 4.886ZM3.2023 4.402L4.36477 6.02947L4.38369 6.01595L4.40229 6.002L3.2023 4.402ZM3.7743 4.248L3.72844 2.24853L3.69588 2.24927L3.66336 2.25108L3.7743 4.248ZM13.3663 4.028L13.4122 6.02747L13.4447 6.02673L13.4772 6.02492L13.3663 4.028ZM13.9163 4.16L12.5021 5.57421L12.6026 5.67472L12.7163 5.76L13.9163 4.16ZM13.9163 7.306L15.0788 8.93347L15.0977 8.91995L15.1163 8.906L13.9163 7.306ZM13.3663 7.438L13.4071 9.43758L13.4422 9.43687L13.4772 9.43492L13.3663 7.438ZM6.8983 7.57L6.85749 5.57042L4.87601 5.61086L4.89843 7.59262L6.8983 7.57ZM7.0083 17.294L5.00843 17.3166L5.0313 19.3388L7.05306 19.2935L7.0083 17.294ZM12.9043 17.162L12.9491 19.1615L12.9822 19.1608L13.0152 19.1589L12.9043 17.162ZM13.4543 17.294L12.0401 18.7082L12.1406 18.8087L12.2543 18.894L13.4543 17.294ZM13.4543 20.286L12.3943 18.59L12.2668 18.6697L12.1527 18.7675L13.4543 20.286ZM12.9043 20.44L12.9543 22.4394L12.9848 22.4386L13.0152 22.4369L12.9043 20.44ZM4.1043 20.66L4.05431 18.6606L4.03389 18.6611L4.01348 18.6621L4.1043 20.66ZM3.4443 20.462L1.80583 21.6089L1.84256 21.6614L1.88256 21.7114L3.4443 20.462ZM3.2683 19.67L1.26852 19.6998L1.26887 19.7233L1.26978 19.7469L3.2683 19.67ZM15.6543 4.688L14.1677 3.35004L14.1595 3.35928L15.6543 4.688ZM19.0423 4.688L17.4806 5.93739L17.513 5.97793L17.5475 6.01673L19.0423 4.688ZM19.2183 10.496H17.2183V12.5566L19.278 12.4951L19.2183 10.496ZM20.6923 10.452L20.752 12.4511L20.7776 12.4503L20.8032 12.4489L20.6923 10.452ZM21.2423 10.584L19.8281 11.9982L19.9286 12.0987L20.0423 12.184L21.2423 10.584ZM21.2423 13.664L22.4048 15.2915L22.4237 15.278L22.4423 15.264L21.2423 13.664ZM20.6923 13.796L20.752 15.7951L20.7776 15.7943L20.8032 15.7929L20.6923 13.796ZM19.2183 13.84L19.1586 11.8409L17.2183 11.8988V13.84H19.2183ZM19.0423 19.802L20.5371 21.1307L20.5716 21.0919L20.604 21.0514L19.0423 19.802ZM15.6543 19.802L14.0926 21.0514L14.1618 21.1379L14.2401 21.2162L15.6543 19.802ZM5.0483 4.886C5.0483 4.89042 5.04818 4.91799 5.04248 4.96357C5.03691 5.00814 5.02408 5.08563 4.99265 5.18441C4.93168 5.37602 4.76789 5.74152 4.36477 6.02947L2.03982 2.77453C1.07152 3.46618 1.0483 4.57123 1.0483 4.886H5.0483ZM4.40229 6.002C4.20024 6.15354 4.0236 6.20979 3.95324 6.22873C3.87864 6.24882 3.84815 6.24698 3.88523 6.24492L3.66336 2.25108C3.27982 2.27239 2.60056 2.3533 2.0023 2.802L4.40229 6.002ZM3.82016 6.24747L13.4122 6.02747L13.3204 2.02853L3.72844 2.24853L3.82016 6.24747ZM13.4772 6.02492C13.4766 6.02496 13.4557 6.02616 13.4183 6.02371C13.3815 6.0213 13.3178 6.01464 13.2351 5.99477C13.0731 5.95589 12.7787 5.8508 12.5021 5.57421L15.3305 2.74579C14.5976 2.01285 13.6566 2.00879 13.2554 2.03108L13.4772 6.02492ZM12.7163 5.76C12.3931 5.5176 12.2319 5.21837 12.1593 5.00954C12.0924 4.81718 12.0923 4.68325 12.0923 4.666H16.0923C16.0923 4.2199 16.0043 3.22598 15.1163 2.56L12.7163 5.76ZM12.0923 4.666V6.8H16.0923V4.666H12.0923ZM12.0923 6.8C12.0923 6.78275 12.0924 6.64882 12.1593 6.45646C12.2319 6.24763 12.3931 5.9484 12.7163 5.706L15.1163 8.906C16.0043 8.24002 16.0923 7.2461 16.0923 6.8H12.0923ZM12.7538 5.67853C12.8779 5.5899 12.9888 5.53644 13.0651 5.50516C13.1421 5.47354 13.202 5.45716 13.2351 5.44922C13.2962 5.43454 13.3112 5.43797 13.2554 5.44108L13.4772 9.43492C13.7865 9.41774 14.4776 9.36286 15.0788 8.93347L12.7538 5.67853ZM13.3255 5.43842L6.85749 5.57042L6.93911 9.56958L13.4071 9.43758L13.3255 5.43842ZM4.89843 7.59262L5.00843 17.3166L9.00817 17.2714L8.89817 7.54738L4.89843 7.59262ZM7.05306 19.2935L12.9491 19.1615L12.8595 15.1625L6.96353 15.2945L7.05306 19.2935ZM13.0152 19.1589C13.0145 19.159 12.9936 19.1602 12.9563 19.1577C12.9195 19.1553 12.8558 19.1486 12.7731 19.1288C12.6111 19.0899 12.3167 18.9848 12.0401 18.7082L14.8685 15.8798C14.1356 15.1469 13.1946 15.1428 12.7934 15.1651L13.0152 19.1589ZM12.2543 18.894C11.9311 18.6516 11.7699 18.3524 11.6973 18.1435C11.6304 17.9512 11.6303 17.8172 11.6303 17.8H15.6303C15.6303 17.3539 15.5423 16.36 14.6543 15.694L12.2543 18.894ZM11.6303 17.8V19.802H15.6303V17.8H11.6303ZM11.6303 19.802C11.6303 19.7896 11.6291 19.64 11.7067 19.4265C11.7924 19.1909 11.9907 18.8422 12.3943 18.59L14.5143 21.982C15.5639 21.326 15.6303 20.1953 15.6303 19.802H11.6303ZM12.1527 18.7675C12.3939 18.5608 12.6183 18.4876 12.7005 18.4646C12.7908 18.4393 12.8319 18.4409 12.7934 18.4431L13.0152 22.4369C13.3626 22.4176 14.1245 22.3457 14.7559 21.8045L12.1527 18.7675ZM12.8543 18.4406L4.05431 18.6606L4.15428 22.6594L12.9543 22.4394L12.8543 18.4406ZM4.01348 18.6621C3.99294 18.663 4.09829 18.6537 4.27199 18.7058C4.46322 18.7632 4.75917 18.904 5.00603 19.2126L1.88256 21.7114C2.61599 22.6282 3.68506 22.6811 4.19511 22.6579L4.01348 18.6621ZM5.08276 19.3151C5.16561 19.4334 5.21229 19.5357 5.23705 19.5987C5.2622 19.6627 5.27264 19.7065 5.27567 19.7201C5.28061 19.7423 5.27125 19.7084 5.26682 19.5931L1.26978 19.7469C1.28588 20.1655 1.34472 20.9502 1.80583 21.6089L5.08276 19.3151ZM5.26807 19.6402L5.04808 4.85624L1.04852 4.91576L1.26852 19.6998L5.26807 19.6402ZM17.4783 5.458C17.4783 5.35678 17.4873 5.35819 17.472 5.42515C17.4635 5.4624 17.4434 5.53772 17.3992 5.63539C17.3548 5.73342 17.278 5.87177 17.1491 6.01672L14.1595 3.35928C13.7941 3.77028 13.6429 4.22631 13.5726 4.53385C13.4986 4.85748 13.4783 5.17788 13.4783 5.458H17.4783ZM17.1409 6.02593C16.9377 6.25167 16.7112 6.36689 16.5508 6.42037C16.4738 6.44603 16.4128 6.45748 16.3749 6.46273C16.337 6.468 16.3155 6.468 16.3143 6.468V2.468C15.7537 2.468 14.8479 2.59433 14.1677 3.35007L17.1409 6.02593ZM16.3143 6.468H18.3823V2.468H16.3143V6.468ZM18.3823 6.468C18.4063 6.468 18.3133 6.4725 18.1568 6.42037C17.9872 6.3638 17.7137 6.22887 17.4806 5.93739L20.604 3.43861C19.905 2.56482 18.8909 2.468 18.3823 2.468V6.468ZM17.5475 6.01673C17.4186 5.87177 17.3418 5.73343 17.2974 5.63539C17.2532 5.53772 17.2331 5.46241 17.2246 5.42515C17.2093 5.35819 17.2183 5.35678 17.2183 5.458H21.2183C21.2183 5.17788 21.198 4.85747 21.124 4.53385C21.0537 4.22631 20.9025 3.77027 20.5371 3.35927L17.5475 6.01673ZM17.2183 5.458V10.496H21.2183V5.458H17.2183ZM19.278 12.4951L20.752 12.4511L20.6326 8.45289L19.1586 8.49689L19.278 12.4951ZM20.8032 12.4489C20.8025 12.449 20.7817 12.4502 20.7443 12.4477C20.7075 12.4453 20.6438 12.4386 20.5611 12.4188C20.3991 12.3799 20.1047 12.2748 19.8281 11.9982L22.6565 9.16978C21.9236 8.43686 20.9826 8.43279 20.5814 8.45508L20.8032 12.4489ZM20.0423 12.184C19.7191 11.9416 19.5579 11.6424 19.4853 11.4335C19.4184 11.2412 19.4183 11.1072 19.4183 11.09H23.4183C23.4183 10.6439 23.3303 9.64999 22.4423 8.984L20.0423 12.184ZM19.4183 11.09V13.158H23.4183V11.09H19.4183ZM19.4183 13.158C19.4183 13.1408 19.4184 13.0068 19.4853 12.8145C19.5579 12.6056 19.7191 12.3064 20.0423 12.064L22.4423 15.264C23.3303 14.598 23.4183 13.6041 23.4183 13.158H19.4183ZM20.0798 12.0365C20.2039 11.9479 20.3148 11.8944 20.3911 11.8632C20.4681 11.8315 20.528 11.8152 20.5611 11.8072C20.6222 11.7925 20.6372 11.796 20.5814 11.7991L20.8032 15.7929C21.1125 15.7757 21.8036 15.7209 22.4048 15.2915L20.0798 12.0365ZM20.6326 11.7969L19.1586 11.8409L19.278 15.8391L20.752 15.7951L20.6326 11.7969ZM17.2183 13.84V19.01H21.2183V13.84H17.2183ZM17.2183 19.01C17.2183 19.1091 17.2097 19.1153 17.2219 19.0601C17.2318 19.0158 17.2834 18.799 17.4806 18.5526L20.604 21.0514C21.1787 20.333 21.2183 19.4541 21.2183 19.01H17.2183ZM17.5475 18.4733C17.7989 18.1904 18.0741 18.077 18.2146 18.0348C18.3494 17.9944 18.4212 18 18.3823 18V22C18.84 22 19.8241 21.9328 20.5371 21.1307L17.5475 18.4733ZM18.3823 18H16.3143V22H18.3823V18ZM16.3143 18C16.2932 18 16.3654 17.9966 16.493 18.0348C16.6279 18.0753 16.8525 18.1717 17.0685 18.3878L14.2401 21.2162C14.9282 21.9043 15.8033 22 16.3143 22V18ZM17.216 18.5526C17.4132 18.799 17.4648 19.0158 17.4747 19.0601C17.4869 19.1153 17.4783 19.1091 17.4783 19.01H13.4783C13.4783 19.4541 13.5179 20.333 14.0926 21.0514L17.216 18.5526ZM17.4783 19.01V5.458H13.4783V19.01H17.4783ZM29.0506 15.732L30.6405 14.5187L28.9696 12.3293L27.4048 14.5956L29.0506 15.732ZM25.8606 20.352L24.2148 19.2156L24.2055 19.229L24.1965 19.2426L25.8606 20.352ZM25.4866 20.682L24.8541 18.7846L24.7193 18.8296L24.5921 18.8931L25.4866 20.682ZM25.0026 20.55L26.1651 18.9225L26.1566 18.9165L26.1482 18.9106L25.0026 20.55ZM23.1766 19.274L22.0141 20.9015L22.0225 20.9075L22.031 20.9134L23.1766 19.274ZM22.7806 18.856L20.8832 19.4885L20.9137 19.58L20.953 19.6683L22.7806 18.856ZM22.9346 18.328L21.2854 17.1966L21.2779 17.2075L21.2705 17.2186L22.9346 18.328ZM26.8286 12.652L28.4778 13.7834L28.4947 13.7587L28.5109 13.7335L26.8286 12.652ZM27.0926 12.014L25.1601 11.4987L25.1438 11.5598L25.1314 11.6218L27.0926 12.014ZM27.3566 4.248L25.87 2.91004L25.8618 2.91927L27.3566 4.248ZM30.7226 4.248L29.1608 5.49739L29.23 5.58389L29.3084 5.66221L30.7226 4.248ZM30.9866 12.014L29.0254 12.4062L29.0378 12.4682L29.0541 12.5293L30.9866 12.014ZM31.2726 12.652L29.5902 13.7335L29.6271 13.7908L29.6677 13.8455L31.2726 12.652ZM35.1666 17.888L36.7794 16.7052L36.7714 16.6945L35.1666 17.888ZM35.3206 18.416L33.493 17.6037L35.3206 18.416ZM34.9246 18.834L36.0702 20.4734L36.0786 20.4675L36.0871 20.4615L34.9246 18.834ZM33.0986 20.11L31.953 18.4706L31.9445 18.4765L31.9361 18.4825L33.0986 20.11ZM32.5926 20.242L33.4049 18.4144L33.3505 18.3902L33.2948 18.3693L32.5926 20.242ZM32.2406 19.912L33.9047 18.8026L33.8692 18.7494L33.8305 18.6987L32.2406 19.912ZM36.7726 4.688L35.286 3.35004L35.2778 3.35927L36.7726 4.688ZM40.1606 4.688L38.5988 5.93739L38.6313 5.97793L38.6658 6.01672L40.1606 4.688ZM40.1606 19.802L41.6554 21.1307L41.6899 21.0919L41.7223 21.0514L40.1606 19.802ZM36.7726 19.802L35.2108 21.0514L35.28 21.1379L35.3584 21.2162L36.7726 19.802ZM27.4048 14.5956L24.2148 19.2156L27.5064 21.4884L30.6964 16.8684L27.4048 14.5956ZM24.1965 19.2426C24.204 19.2314 24.3947 18.9378 24.8541 18.7846L26.119 22.5794C26.8424 22.3382 27.2825 21.8246 27.5247 21.4614L24.1965 19.2426ZM24.5921 18.8931C25.0842 18.6471 25.5444 18.6927 25.8038 18.7635C26.0366 18.827 26.1632 18.9212 26.1651 18.9225L23.8401 22.1775C24.1009 22.3638 25.1623 23.0802 26.381 22.4709L24.5921 18.8931ZM26.1482 18.9106L24.3222 17.6346L22.031 20.9134L23.857 22.1894L26.1482 18.9106ZM24.3391 17.6465C24.3102 17.6259 24.3308 17.6369 24.3755 17.684C24.4175 17.7284 24.5205 17.8463 24.6082 18.0437L20.953 19.6683C21.2283 20.2879 21.7071 20.6822 22.0141 20.9015L24.3391 17.6465ZM24.6779 18.2235C24.8198 18.6491 24.7586 19.005 24.7061 19.185C24.6793 19.2769 24.6496 19.3426 24.6313 19.3792C24.6127 19.4164 24.5995 19.4362 24.5987 19.4374L21.2705 17.2186C21.0668 17.5242 20.5249 18.4135 20.8832 19.4885L24.6779 18.2235ZM24.5838 19.4594L28.4778 13.7834L25.1794 11.5206L21.2854 17.1966L24.5838 19.4594ZM28.5109 13.7335C28.7662 13.3365 28.9566 12.8922 29.0537 12.4062L25.1314 11.6218C25.1356 11.601 25.1411 11.5845 25.1455 11.5738C25.1499 11.5634 25.1515 11.5622 25.1462 11.5705L28.5109 13.7335ZM29.025 12.5293C29.135 12.117 29.1806 11.699 29.1806 11.288H25.1806C25.1806 11.405 25.1675 11.471 25.1601 11.4987L29.025 12.5293ZM29.1806 11.288V5.018H25.1806V11.288H29.1806ZM29.1806 5.018C29.1806 4.91679 29.1896 4.91819 29.1743 4.98515C29.1658 5.02241 29.1457 5.09772 29.1015 5.19539C29.0571 5.29343 28.9802 5.43177 28.8514 5.57673L25.8618 2.91927C25.4964 3.33028 25.3452 3.78631 25.2749 4.09385C25.2009 4.41747 25.1806 4.73788 25.1806 5.018H29.1806ZM28.8432 5.58593C28.64 5.81167 28.4135 5.92689 28.253 5.98037C28.176 6.00603 28.1151 6.01748 28.0772 6.02273C28.0393 6.028 28.0178 6.028 28.0166 6.028V2.028C27.456 2.028 26.5502 2.15433 25.87 2.91007L28.8432 5.58593ZM28.0166 6.028H30.0846V2.028H28.0166V6.028ZM30.0846 6.028C30.0836 6.028 30.0602 6.02803 30.0188 6.0222C29.9776 6.0164 29.9094 6.00349 29.8231 5.97375C29.6431 5.91166 29.3818 5.77356 29.1608 5.49739L32.2843 2.99861C31.5994 2.14247 30.6165 2.028 30.0846 2.028V6.028ZM29.3084 5.66221C29.0367 5.39056 28.9548 5.11811 28.9341 5.03758C28.9114 4.94927 28.9206 4.92866 28.9206 5.018H32.9206C32.9206 4.58105 32.8818 3.5788 32.1368 2.83379L29.3084 5.66221ZM28.9206 5.018V11.288H32.9206V5.018H28.9206ZM28.9206 11.288C28.9206 11.6613 28.9515 12.0368 29.0254 12.4062L32.9477 11.6218C32.9336 11.5512 32.9206 11.4427 32.9206 11.288H28.9206ZM29.0541 12.5293C29.17 12.9639 29.3541 13.3662 29.5902 13.7335L32.9549 11.5705C32.9271 11.5272 32.9205 11.5041 32.919 11.4987L29.0541 12.5293ZM29.6677 13.8455L33.5617 19.0815L36.7714 16.6945L32.8774 11.4585L29.6677 13.8455ZM33.5538 19.0707C33.5501 19.0658 33.5307 19.0389 33.505 18.991C33.4797 18.944 33.4399 18.8609 33.4061 18.745C33.3359 18.5044 33.2831 18.0758 33.493 17.6037L37.1482 19.2283C37.6845 18.0217 36.9959 17.0005 36.7794 16.7053L33.5538 19.0707ZM33.493 17.6037C33.5807 17.4063 33.6836 17.2884 33.7257 17.244C33.7703 17.1968 33.7909 17.1859 33.7621 17.2065L36.0871 20.4615C36.394 20.2422 36.8728 19.8479 37.1482 19.2283L33.493 17.6037ZM33.779 17.1946L31.953 18.4706L34.2442 21.7494L36.0702 20.4734L33.779 17.1946ZM31.9361 18.4825C31.9508 18.472 32.081 18.3784 32.3132 18.3178C32.5737 18.2498 32.976 18.2238 33.4049 18.4144L31.7803 22.0696C32.9323 22.5816 33.915 21.9846 34.2611 21.7375L31.9361 18.4825ZM33.2948 18.3693C33.5424 18.4622 33.7029 18.591 33.7845 18.6674C33.8663 18.7441 33.9033 18.8005 33.9047 18.8026L30.5765 21.0214C30.7822 21.3301 31.192 21.8528 31.8903 22.1147L33.2948 18.3693ZM33.8305 18.6987L30.6405 14.5187L27.4607 16.9453L30.6507 21.1253L33.8305 18.6987ZM38.5966 5.458C38.5966 5.35678 38.6056 5.35819 38.5903 5.42515C38.5818 5.46241 38.5617 5.53772 38.5175 5.63539C38.4731 5.73343 38.3962 5.87177 38.2674 6.01673L35.2778 3.35927C34.9124 3.77027 34.7612 4.22631 34.6909 4.53385C34.6169 4.85747 34.5966 5.17788 34.5966 5.458H38.5966ZM38.2592 6.02593C38.056 6.25167 37.8295 6.36689 37.669 6.42037C37.592 6.44603 37.5311 6.45748 37.4932 6.46273C37.4553 6.468 37.4338 6.468 37.4326 6.468V2.468C36.872 2.468 35.9662 2.59433 35.286 3.35007L38.2592 6.02593ZM37.4326 6.468H39.5006V2.468H37.4326V6.468ZM39.5006 6.468C39.5245 6.468 39.4315 6.4725 39.2751 6.42037C39.1054 6.3638 38.832 6.22887 38.5988 5.93739L41.7223 3.43861C41.0233 2.56482 40.0092 2.468 39.5006 2.468V6.468ZM38.6658 6.01672C38.5369 5.87177 38.4601 5.73342 38.4157 5.63539C38.3714 5.53772 38.3514 5.4624 38.3429 5.42515C38.3276 5.35819 38.3366 5.35678 38.3366 5.458H42.3366C42.3366 5.17788 42.3163 4.85748 42.2423 4.53385C42.172 4.22631 42.0207 3.77028 41.6554 3.35928L38.6658 6.01672ZM38.3366 5.458V19.01H42.3366V5.458H38.3366ZM38.3366 19.01C38.3366 19.1091 38.3279 19.1153 38.3402 19.0601C38.3501 19.0158 38.4017 18.799 38.5988 18.5526L41.7223 21.0514C42.297 20.333 42.3366 19.4541 42.3366 19.01H38.3366ZM38.6658 18.4733C38.9172 18.1904 39.1924 18.077 39.3329 18.0348C39.4677 17.9944 39.5394 18 39.5006 18V22C39.9583 22 40.9424 21.9328 41.6554 21.1307L38.6658 18.4733ZM39.5006 18H37.4326V22H39.5006V18ZM37.4326 18C37.4114 18 37.4837 17.9966 37.6113 18.0348C37.7462 18.0753 37.9707 18.1717 38.1868 18.3878L35.3584 21.2162C36.0465 21.9043 36.9216 22 37.4326 22V18ZM38.3343 18.5526C38.5315 18.799 38.5831 19.0158 38.5929 19.0601C38.6052 19.1153 38.5966 19.1091 38.5966 19.01H34.5966C34.5966 19.4541 34.6362 20.333 35.2108 21.0514L38.3343 18.5526ZM38.5966 19.01V5.458H34.5966V19.01H38.5966ZM45.812 19.054L45.0967 20.9217L45.1204 20.9308L45.1443 20.9393L45.812 19.054ZM44.03 17.954L42.6377 19.3898L42.6484 19.4002L42.6593 19.4104L44.03 17.954ZM42.908 11.86L44.765 12.6028L42.908 11.86ZM44.03 10.166L45.4223 11.6018L45.423 11.6012L44.03 10.166ZM45.812 9.066L46.4923 10.9468L46.5033 10.9428L46.5143 10.9387L45.812 9.066ZM50.542 9.066L49.8267 10.9337L49.8504 10.9428L49.8743 10.9513L50.542 9.066ZM52.324 10.166L50.9098 11.5802L50.9312 11.6016L50.9533 11.6224L52.324 10.166ZM53.468 11.86L51.611 12.6028L53.468 11.86ZM52.324 17.954L50.9533 16.4976L50.9424 16.5078L50.9317 16.5182L52.324 17.954ZM50.542 19.054L51.2223 20.9348L51.2333 20.9308L51.2442 20.9267L50.542 19.054ZM55.25 4.688L53.7634 3.35004L53.7552 3.35928L55.25 4.688ZM58.638 4.688L57.0763 5.93739L57.1087 5.97793L57.1432 6.01673L58.638 4.688ZM58.814 10.496H56.814V12.5566L58.8737 12.4951L58.814 10.496ZM60.288 10.452L60.3477 12.4511L60.3733 12.4503L60.3989 12.4489L60.288 10.452ZM60.838 10.584L59.4238 11.9982L59.5243 12.0987L59.638 12.184L60.838 10.584ZM60.838 13.664L62.0005 15.2915L62.0194 15.278L62.038 15.264L60.838 13.664ZM60.288 13.796L60.3477 15.7951L60.3733 15.7943L60.3989 15.7929L60.288 13.796ZM58.814 13.84L58.7543 11.8409L56.814 11.8988V13.84H58.814ZM58.638 19.802L60.1328 21.1307L60.1673 21.0919L60.1997 21.0514L58.638 19.802ZM55.25 19.802L53.6883 21.0514L53.7575 21.1379L53.8358 21.2162L55.25 19.802ZM53.952 7.592L55.4468 8.92073L55.4468 8.92072L53.952 7.592ZM53.292 7.812L53.3349 9.81154L53.3589 9.81102L53.3828 9.80994L53.292 7.812ZM43.04 8.032L42.9971 6.03246L42.971 6.03302L42.9449 6.03426L43.04 8.032ZM42.38 7.834L40.8183 9.08339L40.8546 9.12875L40.8934 9.17193L42.38 7.834ZM42.38 4.908L40.9658 3.49379L40.9242 3.53534L40.8852 3.57927L42.38 4.908ZM43.04 4.688L42.9997 2.6884L42.9723 2.68896L42.9449 2.69026L43.04 4.688ZM46.318 4.622L46.3583 6.62159L48.318 6.58214V4.622H46.318ZM46.494 3.06L45.0074 1.72204L44.9992 1.73127L46.494 3.06ZM49.86 3.06L48.2983 4.30939L48.3675 4.39589L48.4458 4.47421L49.86 3.06ZM50.058 4.534H48.058V6.57523L50.0988 6.53358L50.058 4.534ZM53.292 4.468L53.3328 6.46758L53.3578 6.46707L53.3828 6.46594L53.292 4.468ZM53.952 4.666L55.5137 3.41661V3.41661L53.952 4.666ZM49.904 15.644L48.4898 14.2298L48.4769 14.2426L48.4643 14.2557L49.904 15.644ZM49.904 12.454L48.4643 13.8423L48.4769 13.8554L48.4898 13.8682L49.904 12.454ZM46.45 12.454L45.0358 11.0398L45.0229 11.0526L45.0103 11.0657L46.45 12.454ZM46.45 15.644L47.8897 14.2557V14.2557L46.45 15.644ZM48.188 17.428C47.4959 17.428 46.9349 17.33 46.4797 17.1687L45.1443 20.9393C46.0971 21.2767 47.1201 21.428 48.188 21.428V17.428ZM46.5273 17.1863C46.062 17.0081 45.6954 16.775 45.4007 16.4976L42.6593 19.4104C43.3619 20.0717 44.1833 20.5719 45.0967 20.9217L46.5273 17.1863ZM45.4223 16.5182C45.1511 16.2552 44.9303 15.9306 44.765 15.5172L41.051 17.0028C41.4137 17.9094 41.9409 18.7141 42.6377 19.3898L45.4223 16.5182ZM44.765 15.5172C44.6073 15.1232 44.512 14.6463 44.512 14.06H40.512C40.512 15.087 40.6807 16.0768 41.051 17.0028L44.765 15.5172ZM44.512 14.06C44.512 13.4737 44.6073 12.9968 44.765 12.6028L41.051 11.1172C40.6807 12.0432 40.512 13.033 40.512 14.06H44.512ZM44.765 12.6028C44.9303 12.1894 45.1511 11.8648 45.4223 11.6018L42.6377 8.7302C41.9409 9.40587 41.4137 10.2106 41.051 11.1172L44.765 12.6028ZM45.423 11.6012C45.7072 11.3252 46.0545 11.1051 46.4923 10.9468L45.1317 7.18525C44.1909 7.52556 43.3501 8.03875 42.637 8.73084L45.423 11.6012ZM46.5143 10.9387C46.959 10.7719 47.5077 10.67 48.188 10.67V6.67C47.1083 6.67 46.073 6.83212 45.1097 7.19334L46.5143 10.9387ZM48.188 10.67C48.8694 10.67 49.405 10.7722 49.8267 10.9337L51.2573 7.19829C50.3004 6.8318 49.2666 6.67 48.188 6.67V10.67ZM49.8743 10.9513C50.3234 11.1103 50.6551 11.3255 50.9098 11.5802L53.7382 8.75179C53.0249 8.03849 52.1685 7.52034 51.2097 7.18075L49.8743 10.9513ZM50.9533 11.6224C51.2317 11.8845 51.451 12.2027 51.611 12.6028L55.325 11.1172C54.957 10.1973 54.4136 9.38621 53.6947 8.7096L50.9533 11.6224ZM51.611 12.6028C51.7687 12.9968 51.864 13.4737 51.864 14.06H55.864C55.864 13.033 55.6953 12.0432 55.325 11.1172L51.611 12.6028ZM51.864 14.06C51.864 14.6463 51.7687 15.1232 51.611 15.5172L55.325 17.0028C55.6953 16.0768 55.864 15.087 55.864 14.06H51.864ZM51.611 15.5172C51.451 15.9173 51.2317 16.2355 50.9533 16.4976L53.6947 19.4104C54.4136 18.7338 54.957 17.9227 55.325 17.0028L51.611 15.5172ZM50.9317 16.5182C50.6668 16.775 50.3159 17.0028 49.8398 17.1813L51.2442 20.9267C52.1761 20.5772 53.0132 20.0716 53.7163 19.3898L50.9317 16.5182ZM49.8617 17.1732C49.4293 17.3296 48.8812 17.428 48.188 17.428V21.428C49.2548 21.428 50.276 21.277 51.2223 20.9348L49.8617 17.1732ZM57.074 5.458C57.074 5.35678 57.083 5.35819 57.0677 5.42515C57.0592 5.4624 57.0391 5.53772 56.9949 5.63539C56.9505 5.73342 56.8737 5.87177 56.7448 6.01672L53.7552 3.35928C53.3898 3.77028 53.2386 4.22631 53.1683 4.53385C53.0943 4.85748 53.074 5.17788 53.074 5.458H57.074ZM56.7366 6.02593C56.5334 6.25167 56.3069 6.36689 56.1465 6.42037C56.0695 6.44603 56.0085 6.45748 55.9706 6.46273C55.9327 6.468 55.9112 6.468 55.91 6.468V2.468C55.3494 2.468 54.4436 2.59433 53.7634 3.35007L56.7366 6.02593ZM55.91 6.468H57.978V2.468H55.91V6.468ZM57.978 6.468C58.002 6.468 57.909 6.4725 57.7525 6.42037C57.5829 6.3638 57.3094 6.22887 57.0763 5.93739L60.1997 3.43861C59.5007 2.56482 58.4866 2.468 57.978 2.468V6.468ZM57.1432 6.01673C57.0143 5.87177 56.9375 5.73343 56.8931 5.63539C56.8489 5.53772 56.8288 5.46241 56.8203 5.42515C56.805 5.35819 56.814 5.35678 56.814 5.458H60.814C60.814 5.17788 60.7937 4.85747 60.7197 4.53385C60.6494 4.22631 60.4982 3.77027 60.1328 3.35927L57.1432 6.01673ZM56.814 5.458V10.496H60.814V5.458H56.814ZM58.8737 12.4951L60.3477 12.4511L60.2283 8.45289L58.7543 8.49689L58.8737 12.4951ZM60.3989 12.4489C60.3983 12.449 60.3774 12.4502 60.34 12.4477C60.3032 12.4453 60.2395 12.4386 60.1568 12.4188C59.9948 12.3799 59.7004 12.2748 59.4238 11.9982L62.2522 9.16978C61.5193 8.43686 60.5783 8.43279 60.1771 8.45508L60.3989 12.4489ZM59.638 12.184C59.3148 11.9416 59.1536 11.6424 59.081 11.4335C59.0141 11.2412 59.014 11.1072 59.014 11.09H63.014C63.014 10.6439 62.926 9.64999 62.038 8.984L59.638 12.184ZM59.014 11.09V13.158H63.014V11.09H59.014ZM59.014 13.158C59.014 13.1408 59.0141 13.0068 59.081 12.8145C59.1536 12.6056 59.3148 12.3064 59.638 12.064L62.038 15.264C62.926 14.598 63.014 13.6041 63.014 13.158H59.014ZM59.6755 12.0365C59.7996 11.9479 59.9105 11.8944 59.9868 11.8632C60.0638 11.8315 60.1237 11.8152 60.1568 11.8072C60.2179 11.7925 60.2329 11.796 60.1771 11.7991L60.3989 15.7929C60.7082 15.7757 61.3993 15.7209 62.0005 15.2915L59.6755 12.0365ZM60.2283 11.7969L58.7543 11.8409L58.8737 15.8391L60.3477 15.7951L60.2283 11.7969ZM56.814 13.84V19.01H60.814V13.84H56.814ZM56.814 19.01C56.814 19.1091 56.8054 19.1153 56.8176 19.0601C56.8275 19.0158 56.8791 18.799 57.0763 18.5526L60.1997 21.0514C60.7744 20.333 60.814 19.4541 60.814 19.01H56.814ZM57.1432 18.4733C57.3946 18.1904 57.6698 18.077 57.8103 18.0348C57.9451 17.9944 58.0169 18 57.978 18V22C58.4357 22 59.4198 21.9328 60.1328 21.1307L57.1432 18.4733ZM57.978 18H55.91V22H57.978V18ZM55.91 18C55.8889 18 55.9611 17.9966 56.0887 18.0348C56.2236 18.0753 56.4482 18.1717 56.6642 18.3878L53.8358 21.2162C54.5239 21.9043 55.399 22 55.91 22V18ZM56.8117 18.5526C57.0089 18.799 57.0605 19.0158 57.0704 19.0601C57.0826 19.1153 57.074 19.1091 57.074 19.01H53.074C53.074 19.4541 53.1136 20.333 53.6883 21.0514L56.8117 18.5526ZM57.074 19.01V5.458H53.074V19.01H57.074ZM52.128 6.822C52.128 6.92321 52.119 6.92181 52.1343 6.85485C52.1428 6.8176 52.1629 6.74228 52.2071 6.64461C52.2515 6.54658 52.3283 6.40823 52.4572 6.26328L55.4468 8.92072C55.8122 8.50972 55.9634 8.05369 56.0337 7.74615C56.1077 7.42252 56.128 7.10212 56.128 6.822H52.128ZM52.4572 6.26327C52.693 5.99794 52.9453 5.88903 53.0665 5.84863C53.1851 5.80912 53.2446 5.81209 53.2012 5.81406L53.3828 9.80994C53.838 9.78925 54.7694 9.68284 55.4468 8.92073L52.4572 6.26327ZM53.2491 5.81246L42.9971 6.03246L43.0829 10.0315L53.3349 9.81154L53.2491 5.81246ZM42.9449 6.03426C42.9491 6.03406 42.9752 6.033 43.019 6.03726C43.0629 6.04152 43.132 6.05185 43.2187 6.07785C43.4014 6.13266 43.6495 6.25482 43.8666 6.49607L40.8934 9.17193C41.609 9.96703 42.5663 10.0568 43.1351 10.0297L42.9449 6.03426ZM43.9417 6.58461C44.1389 6.83104 44.1905 7.04781 44.2004 7.09214C44.2126 7.14733 44.204 7.1411 44.204 7.042H40.204C40.204 7.48612 40.2436 8.36504 40.8183 9.08339L43.9417 6.58461ZM44.204 7.042V5.678H40.204V7.042H44.204ZM44.204 5.678C44.204 5.57679 44.213 5.57819 44.1977 5.64515C44.1892 5.68241 44.1691 5.75772 44.1249 5.85539C44.0805 5.95343 44.0037 6.09177 43.8748 6.23673L40.8852 3.57927C40.5198 3.99027 40.3686 4.44631 40.2983 4.75385C40.2243 5.07747 40.204 5.39788 40.204 5.678H44.204ZM43.7942 6.32221C43.5939 6.52249 43.3912 6.61313 43.2765 6.65137C43.1665 6.68803 43.1078 6.68704 43.1351 6.68574L42.9449 2.69026C42.4432 2.71415 41.6174 2.84218 40.9658 3.49379L43.7942 6.32221ZM43.0803 6.68759L46.3583 6.62159L46.2777 2.6224L42.9997 2.6884L43.0803 6.68759ZM48.318 4.622V3.83H44.318V4.622H48.318ZM48.318 3.83C48.318 3.72879 48.327 3.73019 48.3117 3.79715C48.3032 3.83441 48.2831 3.90972 48.2389 4.00739C48.1945 4.10543 48.1177 4.24377 47.9888 4.38873L44.9992 1.73127C44.6338 2.14228 44.4826 2.59831 44.4123 2.90585C44.3383 3.22947 44.318 3.54988 44.318 3.83H48.318ZM47.9806 4.39793C47.7774 4.62367 47.5509 4.73889 47.3905 4.79237C47.3135 4.81803 47.2525 4.82948 47.2146 4.83473C47.1767 4.84 47.1552 4.84 47.154 4.84V0.839999C46.5934 0.839999 45.6876 0.966331 45.0074 1.72207L47.9806 4.39793ZM47.154 4.84H49.222V0.839999H47.154V4.84ZM49.222 4.84C49.2211 4.84 49.1976 4.84003 49.1562 4.8342C49.115 4.8284 49.0468 4.81549 48.9605 4.78575C48.7805 4.72366 48.5192 4.58556 48.2983 4.30939L51.4217 1.81061C50.7368 0.954473 49.7539 0.839999 49.222 0.839999V4.84ZM48.4458 4.47421C48.1741 4.20256 48.0922 3.93011 48.0715 3.84958C48.0488 3.76127 48.058 3.74066 48.058 3.83H52.058C52.058 3.39305 52.0192 2.3908 51.2742 1.64579L48.4458 4.47421ZM48.058 3.83V4.534H52.058V3.83H48.058ZM50.0988 6.53358L53.3328 6.46758L53.2512 2.46842L50.0172 2.53442L50.0988 6.53358ZM53.3828 6.46594C53.4034 6.465 53.298 6.47426 53.1243 6.42215C52.9331 6.36479 52.6371 6.22397 52.3903 5.91539L55.5137 3.41661C54.7803 2.49982 53.7112 2.44688 53.2012 2.47006L53.3828 6.46594ZM52.3903 5.91539C52.1931 5.66896 52.1415 5.45219 52.1316 5.40786C52.1194 5.35267 52.128 5.3589 52.128 5.458H56.128C56.128 5.01388 56.0884 4.13496 55.5137 3.41661L52.3903 5.91539ZM52.128 5.458V6.822H56.128V5.458H52.128ZM48.188 18.26C49.3024 18.26 50.4636 17.9449 51.3437 17.0323L48.4643 14.2557C48.4757 14.244 48.4886 14.2336 48.5003 14.2262C48.5115 14.219 48.514 14.2194 48.5023 14.2236C48.4766 14.2328 48.3829 14.26 48.188 14.26V18.26ZM51.3182 17.0582C52.1473 16.2291 52.52 15.1712 52.52 14.06H48.52C48.52 14.1689 48.5032 14.2121 48.502 14.2151C48.5013 14.2169 48.501 14.2174 48.5011 14.2172C48.5011 14.2171 48.5012 14.217 48.5013 14.2169C48.5014 14.2167 48.5014 14.2167 48.5014 14.2167C48.5014 14.2167 48.5013 14.2169 48.5009 14.2173C48.5006 14.2177 48.5001 14.2184 48.4993 14.2194C48.4977 14.2213 48.4948 14.2248 48.4898 14.2298L51.3182 17.0582ZM52.52 14.06C52.52 12.9483 52.1562 11.8778 51.3182 11.0398L48.4898 13.8682C48.4971 13.8755 48.4985 13.8782 48.4975 13.8767C48.4965 13.8752 48.4969 13.8752 48.4986 13.8797C48.5014 13.887 48.52 13.9383 48.52 14.06H52.52ZM51.3437 11.0657C50.4636 10.1531 49.3024 9.838 48.188 9.838V13.838C48.3829 13.838 48.4766 13.8652 48.5023 13.8744C48.514 13.8786 48.5115 13.879 48.5003 13.8718C48.4886 13.8644 48.4757 13.854 48.4643 13.8423L51.3437 11.0657ZM48.188 9.838C47.0693 9.838 45.9211 10.1545 45.0358 11.0398L47.8642 13.8682C47.8468 13.8856 47.8349 13.8862 47.8606 13.8771C47.8949 13.8649 47.9939 13.838 48.188 13.838V9.838ZM45.0103 11.0657C44.1984 11.9077 43.856 12.9696 43.856 14.06H47.856C47.856 13.9304 47.8752 13.8711 47.8803 13.8573C47.8831 13.8498 47.8845 13.848 47.8839 13.8489C47.8833 13.8499 47.8843 13.8479 47.8897 13.8423L45.0103 11.0657ZM43.856 14.06C43.856 15.1496 44.2068 16.199 45.0103 17.0323L47.8897 14.2557C47.8857 14.2516 47.8833 14.2487 47.8821 14.2471C47.8808 14.2456 47.8803 14.2447 47.8802 14.2445C47.88 14.2443 47.8798 14.244 47.8795 14.2433C47.8792 14.2427 47.8783 14.2409 47.8772 14.2378C47.8736 14.2282 47.856 14.177 47.856 14.06H43.856ZM45.0103 17.0323C45.8974 17.9522 47.0722 18.26 48.188 18.26V14.26C47.9816 14.26 47.8802 14.2317 47.8496 14.2209C47.8291 14.2136 47.8561 14.2209 47.8897 14.2557L45.0103 17.0323ZM76.3683 4.688L74.8817 3.35004L74.8735 3.35927L76.3683 4.688ZM79.7563 4.688L78.1945 5.93739L78.227 5.97793L78.2615 6.01672L79.7563 4.688ZM79.7563 19.802L81.2511 21.1307L81.2856 21.0919L81.318 21.0514L79.7563 19.802ZM76.3683 19.802L74.8065 21.0514L74.8757 21.1379L74.9541 21.2162L76.3683 19.802ZM70.4503 7.438L72.4444 7.59139L72.6137 5.39035L70.4067 5.43847L70.4503 7.438ZM63.3883 7.592V9.592H63.4101L63.4319 9.59152L63.3883 7.592ZM62.8163 7.46L61.5147 8.97851L61.5642 9.02091L61.6163 9.05999L62.8163 7.46ZM62.8163 4.38L61.6163 2.78L61.5642 2.81909L61.5147 2.86148L62.8163 4.38ZM63.3883 4.248V6.248H63.41L63.4317 6.24753L63.3883 4.248ZM73.5303 4.028L73.5737 6.02753L73.5954 6.02706L73.6172 6.02611L73.5303 4.028ZM74.2123 4.226L72.6505 5.47539L72.6868 5.52075L72.7257 5.56393L74.2123 4.226ZM74.3663 5.018L76.3603 5.17302L76.3604 5.17139L74.3663 5.018ZM73.2443 19.45L71.2503 19.295L71.2502 19.2966L73.2443 19.45ZM73.0463 20.22L71.4676 18.9921L71.4367 19.0318L71.4078 19.0731L73.0463 20.22ZM69.6803 20.22L71.0945 18.8058V18.8058L69.6803 20.22ZM69.5263 19.45L67.5322 19.2966V19.2966L69.5263 19.45ZM78.1923 5.458C78.1923 5.35678 78.2013 5.35819 78.186 5.42515C78.1775 5.46241 78.1574 5.53772 78.1132 5.63539C78.0688 5.73343 77.9919 5.87177 77.8631 6.01673L74.8735 3.35927C74.5081 3.77027 74.3569 4.22631 74.2866 4.53385C74.2126 4.85747 74.1923 5.17788 74.1923 5.458H78.1923ZM77.8549 6.02593C77.6517 6.25167 77.4252 6.36689 77.2647 6.42037C77.1877 6.44603 77.1268 6.45748 77.0889 6.46273C77.051 6.468 77.0295 6.468 77.0283 6.468V2.468C76.4677 2.468 75.5619 2.59433 74.8817 3.35007L77.8549 6.02593ZM77.0283 6.468H79.0963V2.468H77.0283V6.468ZM79.0963 6.468C79.1202 6.468 79.0272 6.4725 78.8708 6.42037C78.7011 6.3638 78.4277 6.22887 78.1945 5.93739L81.318 3.43861C80.619 2.56482 79.6049 2.468 79.0963 2.468V6.468ZM78.2615 6.01672C78.1326 5.87177 78.0558 5.73342 78.0114 5.63539C77.9671 5.53772 77.9471 5.4624 77.9386 5.42515C77.9233 5.35819 77.9323 5.35678 77.9323 5.458H81.9323C81.9323 5.17788 81.912 4.85748 81.838 4.53385C81.7677 4.22631 81.6164 3.77028 81.2511 3.35928L78.2615 6.01672ZM77.9323 5.458V19.01H81.9323V5.458H77.9323ZM77.9323 19.01C77.9323 19.1091 77.9236 19.1153 77.9359 19.0601C77.9458 19.0158 77.9974 18.799 78.1945 18.5526L81.318 21.0514C81.8927 20.333 81.9323 19.4541 81.9323 19.01H77.9323ZM78.2615 18.4733C78.5129 18.1904 78.7881 18.077 78.9286 18.0348C79.0634 17.9944 79.1351 18 79.0963 18V22C79.554 22 80.5381 21.9328 81.2511 21.1307L78.2615 18.4733ZM79.0963 18H77.0283V22H79.0963V18ZM77.0283 18C77.0071 18 77.0794 17.9966 77.207 18.0348C77.3419 18.0753 77.5664 18.1717 77.7825 18.3878L74.9541 21.2162C75.6422 21.9043 76.5173 22 77.0283 22V18ZM77.93 18.5526C78.1272 18.799 78.1788 19.0158 78.1887 19.0601C78.2009 19.1153 78.1923 19.1091 78.1923 19.01H74.1923C74.1923 19.4541 74.2319 20.333 74.8065 21.0514L77.93 18.5526ZM78.1923 19.01V5.458H74.1923V19.01H78.1923ZM70.4067 5.43847L63.3447 5.59247L63.4319 9.59152L70.4939 9.43752L70.4067 5.43847ZM63.3883 5.592C63.3588 5.592 63.4039 5.58873 63.497 5.61022C63.5872 5.63104 63.7907 5.69078 64.0163 5.86L61.6163 9.05999C62.2626 9.54475 62.996 9.592 63.3883 9.592V5.592ZM64.1179 5.94148C64.4309 6.20982 64.5621 6.51431 64.6141 6.68518C64.6407 6.77239 64.6519 6.84097 64.657 6.88209C64.6621 6.92382 64.6623 6.9492 64.6623 6.954H60.6623C60.6623 7.33164 60.7119 8.29038 61.5147 8.97851L64.1179 5.94148ZM64.6623 6.954V4.886H60.6623V6.954H64.6623ZM64.6623 4.886C64.6623 4.8908 64.6621 4.91618 64.657 4.95791C64.6519 4.99903 64.6407 5.0676 64.6141 5.15482C64.5621 5.32569 64.4309 5.63018 64.1179 5.89851L61.5147 2.86148C60.7119 3.54961 60.6623 4.50836 60.6623 4.886H64.6623ZM64.0163 5.98C63.7906 6.14922 63.5872 6.20896 63.497 6.22978C63.4039 6.25127 63.3588 6.248 63.3883 6.248V2.248C62.996 2.248 62.2626 2.29525 61.6163 2.78L64.0163 5.98ZM63.4317 6.24753L73.5737 6.02753L73.4869 2.02847L63.3449 2.24847L63.4317 6.24753ZM73.6172 6.02611C73.6531 6.02455 73.5601 6.03478 73.3962 5.98719C73.2175 5.93532 72.9094 5.799 72.6505 5.47539L75.774 2.97661C75.0284 2.04457 73.9295 2.00875 73.4434 2.02989L73.6172 6.02611ZM72.7257 5.56393C72.4763 5.28687 72.4059 5.01537 72.3866 4.91574C72.3669 4.81475 72.3784 4.78418 72.3722 4.8646L76.3604 5.17139C76.3967 4.69887 76.4182 3.68734 75.6989 2.88807L72.7257 5.56393ZM72.3723 4.86298L71.2503 19.295L75.2383 19.605L76.3603 5.17302L72.3723 4.86298ZM71.2502 19.2966C71.2409 19.4172 71.2301 19.4526 71.2358 19.4304C71.2393 19.4168 71.2521 19.3698 71.2817 19.3014C71.3106 19.2348 71.367 19.1214 71.4676 18.9921L74.625 21.4479C74.914 21.0763 75.044 20.6824 75.1098 20.4266C75.1815 20.1477 75.2183 19.8641 75.2384 19.6034L71.2502 19.2966ZM71.4078 19.0731C71.6545 18.7206 71.9684 18.5596 72.1578 18.4943C72.3308 18.4346 72.4357 18.44 72.4083 18.44V22.44C72.8772 22.44 73.9898 22.3597 74.6847 21.3669L71.4078 19.0731ZM72.4083 18.44H70.3623V22.44H72.4083V18.44ZM70.3623 18.44C70.3638 18.44 70.3834 18.44 70.4178 18.4448C70.4524 18.4495 70.5066 18.4596 70.5748 18.4816C70.7169 18.5274 70.9118 18.6231 71.0945 18.8058L68.2661 21.6342C68.9362 22.3044 69.7791 22.44 70.3623 22.44V18.44ZM71.0945 18.8058C71.3991 19.1104 71.4821 19.4273 71.5039 19.5363C71.5265 19.6493 71.5139 19.6874 71.5204 19.6034L67.5322 19.2966C67.5093 19.594 67.5077 19.9511 67.5816 20.3207C67.6547 20.6864 67.8295 21.1976 68.2661 21.6342L71.0945 18.8058ZM71.5204 19.6034L72.4444 7.59139L68.4562 7.28461L67.5322 19.2966L71.5204 19.6034Z" fill="#212121" mask="url(#path-1-outside-1_1216_1089)"/>
    </g>
    <defs>
        <filter id="filter0_d_1216_1089" x="3.04883" y="2.83984" width="77.8828" height="18.9297" filterUnits="userSpaceOnUse" color-interpolation-filters="sRGB">
            <feFlood flood-opacity="0" result="BackgroundImageFix"/>
            <feColorMatrix in="SourceAlpha" type="matrix" values="0 0 0 0 0 0 0 0 0 0 0 0 0 0 0 0 0 0 127 0" result="hardAlpha"/>
            <feOffset dx="1" dy="1"/>
            <feComposite in2="hardAlpha" operator="out"/>
            <feColorMatrix type="matrix" values="0 0 0 0 0.0784314 0 0 0 0 0.0941176 0 0 0 0 0.121569 0 0 0 1 0"/>
            <feBlend mode="normal" in2="BackgroundImageFix" result="effect1_dropShadow_1216_1089"/>
            <feBlend mode="normal" in="SourceGraphic" in2="effect1_dropShadow_1216_1089" result="shape"/>
        </filter>
    </defs>
</svg>
