<svg width="88" height="33" viewBox="0 0 88 33" fill="none" xmlns="http://www.w3.org/2000/svg">
    <g filter="url(#filter0_d_10_1277)">
        <rect x="0.113281" y="3.08691" width="84.5367" height="26.4177" rx="13.2089" fill="#6659B3"/>
        <rect x="0.613281" y="3.58691" width="83.5367" height="25.4177" rx="12.7089" stroke="#14181F"/>
    </g>
    <path d="M13.3221 0.945312H71.4411C78.46 0.945312 84.15 6.63526 84.15 13.6542C84.15 20.6731 78.46 26.363 71.4411 26.363H13.3222C6.30324 26.363 0.613281 20.6731 0.613281 13.6542C0.613281 6.63526 6.30323 0.945312 13.3221 0.945312Z" fill="#A59BDC" stroke="#14181F"/>
    <g filter="url(#filter1_d_10_1277)">
        <mask id="path-4-outside-1_10_1277" maskUnits="userSpaceOnUse" x="23.8887" y="7.25684" width="37" height="14" fill="black">
            <rect fill="white" x="23.8887" y="7.25684" width="37" height="14"/>
            <path d="M28.2118 13.1868L28.2898 18.0618C28.2985 18.2698 28.2682 18.4172 28.1988 18.5038C28.1382 18.5992 28.0038 18.6468 27.7958 18.6468H26.6518C26.4352 18.6468 26.2965 18.5992 26.2358 18.5038C26.1838 18.4172 26.1535 18.2698 26.1448 18.0618L26.0148 9.76784C26.0062 9.5165 26.0452 9.34317 26.1318 9.24784C26.2272 9.14384 26.3875 9.09184 26.6128 9.09184H27.4318C27.5618 9.09184 27.6658 9.09617 27.7438 9.10484C27.8305 9.1135 27.9042 9.13084 27.9648 9.15684C28.0168 9.1915 28.0645 9.23484 28.1078 9.28684C28.1512 9.33884 28.1945 9.40817 28.2378 9.49484L31.1498 15.0848V9.76784C31.1498 9.5165 31.1932 9.34317 31.2798 9.24784C31.3665 9.14384 31.5225 9.09184 31.7478 9.09184H32.6968C32.9222 9.09184 33.0782 9.14384 33.1648 9.24784C33.2515 9.34317 33.2948 9.5165 33.2948 9.76784V17.9578C33.2948 18.2178 33.2515 18.3955 33.1648 18.4908C33.0868 18.5948 32.9352 18.6468 32.7098 18.6468H31.7348C31.4835 18.6468 31.2928 18.5992 31.1628 18.5038C31.0328 18.4085 30.9028 18.2438 30.7728 18.0098L28.2118 13.1868ZM37.1388 14.7858L37.1778 16.6708H40.0638C40.2458 16.6708 40.3801 16.7098 40.4668 16.7878C40.5534 16.8572 40.5968 16.9785 40.5968 17.1518V18.1528C40.5968 18.3348 40.5534 18.4605 40.4668 18.5298C40.3801 18.6078 40.2458 18.6468 40.0638 18.6468H35.5788C35.3534 18.6468 35.2018 18.5948 35.1238 18.4908C35.0458 18.3955 35.0024 18.2178 34.9938 17.9578L34.8768 9.76784C34.8681 9.5165 34.9071 9.34317 34.9938 9.24784C35.0891 9.14384 35.2494 9.09184 35.4748 9.09184H40.4798C40.6618 9.09184 40.7961 9.1265 40.8828 9.19584C40.9694 9.26517 41.0128 9.39084 41.0128 9.57284V10.5868C41.0128 10.7602 40.9694 10.8858 40.8828 10.9638C40.7961 11.0332 40.6618 11.0678 40.4798 11.0678H37.0868L37.1128 12.8098H40.0248C40.2068 12.8098 40.3411 12.8445 40.4278 12.9138C40.5144 12.9832 40.5578 13.1088 40.5578 13.2908V14.3048C40.5578 14.4868 40.5144 14.6125 40.4278 14.6818C40.3411 14.7512 40.2068 14.7858 40.0248 14.7858H37.1388ZM42.0048 10.3138C41.8922 10.1578 41.8618 10.0365 41.9138 9.94984C41.9658 9.8545 42.0568 9.77217 42.1868 9.70284L43.3828 9.06584C43.5302 8.98784 43.6342 8.95317 43.6948 8.96184C43.7555 8.96184 43.8248 9.01384 43.9028 9.11784L46.0478 11.9778L48.1928 9.11784C48.2708 9.01384 48.3402 8.96184 48.4008 8.96184C48.4615 8.95317 48.5655 8.98784 48.7128 9.06584L49.9088 9.70284C50.0388 9.77217 50.1298 9.8545 50.1818 9.94984C50.2425 10.0365 50.2122 10.1578 50.0908 10.3138L47.4518 13.8368L50.1558 17.4378C50.3812 17.7325 50.3595 17.9492 50.0908 18.0878L48.8428 18.7768C48.7215 18.8462 48.6175 18.8765 48.5308 18.8678C48.4528 18.8592 48.3705 18.7985 48.2838 18.6858L46.0478 15.7088L43.8118 18.6858C43.7252 18.7985 43.6385 18.8592 43.5518 18.8678C43.4738 18.8765 43.3742 18.8462 43.2528 18.7768L42.0048 18.0878C41.7362 17.9492 41.7145 17.7325 41.9398 17.4378L44.6438 13.8368L42.0048 10.3138ZM53.9024 11.0678H51.6794C51.4974 11.0678 51.363 11.0332 51.2764 10.9638C51.1897 10.8945 51.1464 10.7688 51.1464 10.5868V9.57284C51.1464 9.39084 51.1897 9.26517 51.2764 9.19584C51.363 9.1265 51.4974 9.09184 51.6794 9.09184H58.4394C58.6214 9.09184 58.7557 9.1265 58.8424 9.19584C58.929 9.26517 58.9724 9.39084 58.9724 9.57284V10.5868C58.9724 10.7688 58.929 10.8945 58.8424 10.9638C58.7557 11.0332 58.6214 11.0678 58.4394 11.0678H56.1124L56.2034 18.0618C56.2034 18.2872 56.1687 18.4388 56.0994 18.5168C56.03 18.6035 55.9 18.6468 55.7094 18.6468H54.4874C54.3054 18.6468 54.1754 18.6035 54.0974 18.5168C54.028 18.4388 53.9934 18.2872 53.9934 18.0618L53.9024 11.0678Z"/>
        </mask>
        <path d="M28.2118 13.1868L28.2898 18.0618C28.2985 18.2698 28.2682 18.4172 28.1988 18.5038C28.1382 18.5992 28.0038 18.6468 27.7958 18.6468H26.6518C26.4352 18.6468 26.2965 18.5992 26.2358 18.5038C26.1838 18.4172 26.1535 18.2698 26.1448 18.0618L26.0148 9.76784C26.0062 9.5165 26.0452 9.34317 26.1318 9.24784C26.2272 9.14384 26.3875 9.09184 26.6128 9.09184H27.4318C27.5618 9.09184 27.6658 9.09617 27.7438 9.10484C27.8305 9.1135 27.9042 9.13084 27.9648 9.15684C28.0168 9.1915 28.0645 9.23484 28.1078 9.28684C28.1512 9.33884 28.1945 9.40817 28.2378 9.49484L31.1498 15.0848V9.76784C31.1498 9.5165 31.1932 9.34317 31.2798 9.24784C31.3665 9.14384 31.5225 9.09184 31.7478 9.09184H32.6968C32.9222 9.09184 33.0782 9.14384 33.1648 9.24784C33.2515 9.34317 33.2948 9.5165 33.2948 9.76784V17.9578C33.2948 18.2178 33.2515 18.3955 33.1648 18.4908C33.0868 18.5948 32.9352 18.6468 32.7098 18.6468H31.7348C31.4835 18.6468 31.2928 18.5992 31.1628 18.5038C31.0328 18.4085 30.9028 18.2438 30.7728 18.0098L28.2118 13.1868ZM37.1388 14.7858L37.1778 16.6708H40.0638C40.2458 16.6708 40.3801 16.7098 40.4668 16.7878C40.5534 16.8572 40.5968 16.9785 40.5968 17.1518V18.1528C40.5968 18.3348 40.5534 18.4605 40.4668 18.5298C40.3801 18.6078 40.2458 18.6468 40.0638 18.6468H35.5788C35.3534 18.6468 35.2018 18.5948 35.1238 18.4908C35.0458 18.3955 35.0024 18.2178 34.9938 17.9578L34.8768 9.76784C34.8681 9.5165 34.9071 9.34317 34.9938 9.24784C35.0891 9.14384 35.2494 9.09184 35.4748 9.09184H40.4798C40.6618 9.09184 40.7961 9.1265 40.8828 9.19584C40.9694 9.26517 41.0128 9.39084 41.0128 9.57284V10.5868C41.0128 10.7602 40.9694 10.8858 40.8828 10.9638C40.7961 11.0332 40.6618 11.0678 40.4798 11.0678H37.0868L37.1128 12.8098H40.0248C40.2068 12.8098 40.3411 12.8445 40.4278 12.9138C40.5144 12.9832 40.5578 13.1088 40.5578 13.2908V14.3048C40.5578 14.4868 40.5144 14.6125 40.4278 14.6818C40.3411 14.7512 40.2068 14.7858 40.0248 14.7858H37.1388ZM42.0048 10.3138C41.8922 10.1578 41.8618 10.0365 41.9138 9.94984C41.9658 9.8545 42.0568 9.77217 42.1868 9.70284L43.3828 9.06584C43.5302 8.98784 43.6342 8.95317 43.6948 8.96184C43.7555 8.96184 43.8248 9.01384 43.9028 9.11784L46.0478 11.9778L48.1928 9.11784C48.2708 9.01384 48.3402 8.96184 48.4008 8.96184C48.4615 8.95317 48.5655 8.98784 48.7128 9.06584L49.9088 9.70284C50.0388 9.77217 50.1298 9.8545 50.1818 9.94984C50.2425 10.0365 50.2122 10.1578 50.0908 10.3138L47.4518 13.8368L50.1558 17.4378C50.3812 17.7325 50.3595 17.9492 50.0908 18.0878L48.8428 18.7768C48.7215 18.8462 48.6175 18.8765 48.5308 18.8678C48.4528 18.8592 48.3705 18.7985 48.2838 18.6858L46.0478 15.7088L43.8118 18.6858C43.7252 18.7985 43.6385 18.8592 43.5518 18.8678C43.4738 18.8765 43.3742 18.8462 43.2528 18.7768L42.0048 18.0878C41.7362 17.9492 41.7145 17.7325 41.9398 17.4378L44.6438 13.8368L42.0048 10.3138ZM53.9024 11.0678H51.6794C51.4974 11.0678 51.363 11.0332 51.2764 10.9638C51.1897 10.8945 51.1464 10.7688 51.1464 10.5868V9.57284C51.1464 9.39084 51.1897 9.26517 51.2764 9.19584C51.363 9.1265 51.4974 9.09184 51.6794 9.09184H58.4394C58.6214 9.09184 58.7557 9.1265 58.8424 9.19584C58.929 9.26517 58.9724 9.39084 58.9724 9.57284V10.5868C58.9724 10.7688 58.929 10.8945 58.8424 10.9638C58.7557 11.0332 58.6214 11.0678 58.4394 11.0678H56.1124L56.2034 18.0618C56.2034 18.2872 56.1687 18.4388 56.0994 18.5168C56.03 18.6035 55.9 18.6468 55.7094 18.6468H54.4874C54.3054 18.6468 54.1754 18.6035 54.0974 18.5168C54.028 18.4388 53.9934 18.2872 53.9934 18.0618L53.9024 11.0678Z" fill="white"/>
        <path d="M28.2118 13.1868L29.5366 12.4834L26.712 13.2108L28.2118 13.1868ZM28.2898 18.0618L26.79 18.0858L26.7903 18.1051L26.7911 18.1243L28.2898 18.0618ZM28.1988 18.5038L27.0275 17.5668L26.9769 17.6301L26.9333 17.6985L28.1988 18.5038ZM26.2358 18.5038L24.9496 19.2756L24.9598 19.2925L24.9703 19.3091L26.2358 18.5038ZM26.1448 18.0618L24.645 18.0853L24.6453 18.1048L24.6461 18.1243L26.1448 18.0618ZM26.0148 9.76784L27.5147 9.74433L27.5144 9.73023L27.5139 9.71614L26.0148 9.76784ZM26.1318 9.24784L25.0261 8.23424L25.0219 8.23883L26.1318 9.24784ZM27.7438 9.10484L27.5782 10.5957L27.5864 10.5966L27.5946 10.5974L27.7438 9.10484ZM27.9648 9.15684L28.7969 7.90876L28.6823 7.83237L28.5557 7.77812L27.9648 9.15684ZM28.1078 9.28684L29.2602 8.32656L29.2602 8.32656L28.1078 9.28684ZM28.2378 9.49484L26.8962 10.1657L26.9018 10.1768L26.9075 10.1878L28.2378 9.49484ZM31.1498 15.0848L29.8195 15.7778L32.6498 15.0848H31.1498ZM31.2798 9.24784L32.3897 10.2568L32.4115 10.2329L32.4322 10.2081L31.2798 9.24784ZM33.1648 9.24784L32.0125 10.2081L32.0332 10.2329L32.0549 10.2568L33.1648 9.24784ZM33.1648 18.4908L32.0549 17.4818L32.0073 17.5342L31.9648 17.5908L33.1648 18.4908ZM31.1628 18.5038L32.0499 17.2942L32.0499 17.2942L31.1628 18.5038ZM30.7728 18.0098L29.448 18.7133L29.4547 18.7259L29.4616 18.7383L30.7728 18.0098ZM26.712 13.2108L26.79 18.0858L29.7896 18.0378L29.7116 13.1628L26.712 13.2108ZM26.7911 18.1243C26.7922 18.149 26.7875 18.1081 26.8044 18.0259C26.8209 17.9459 26.8711 17.7623 27.0275 17.5668L29.3701 19.4409C29.7938 18.9113 29.8007 18.2908 29.7885 17.9994L26.7911 18.1243ZM26.9333 17.6985C27.1252 17.397 27.3866 17.2558 27.551 17.1974C27.6306 17.1692 27.6939 17.1574 27.7312 17.1522C27.769 17.147 27.7921 17.1468 27.7958 17.1468V20.1468C28.097 20.1468 28.9608 20.1004 29.4643 19.3091L26.9333 17.6985ZM27.7958 17.1468H26.6518V20.1468H27.7958V17.1468ZM26.6518 17.1468C26.6521 17.1468 26.6565 17.1468 26.6647 17.1473C26.6729 17.1478 26.686 17.1489 26.7034 17.1512C26.7363 17.1556 26.7961 17.1661 26.873 17.1926C27.0283 17.246 27.3011 17.3839 27.5013 17.6985L24.9703 19.3091C25.4822 20.1135 26.371 20.1468 26.6518 20.1468V17.1468ZM27.5221 17.7321C27.5713 17.8141 27.5998 17.8841 27.6159 17.9296C27.6322 17.9759 27.64 18.0098 27.6433 18.0259C27.6492 18.0548 27.6457 18.0509 27.6435 17.9994L24.6461 18.1243C24.6564 18.3702 24.6914 18.8453 24.9496 19.2756L27.5221 17.7321ZM27.6447 18.0383L27.5147 9.74433L24.515 9.79134L24.645 18.0853L27.6447 18.0383ZM27.5139 9.71614C27.5124 9.67007 27.5186 9.70057 27.501 9.7786C27.4841 9.8537 27.4269 10.0531 27.2417 10.2568L25.0219 8.23883C24.5138 8.7978 24.5048 9.50292 24.5157 9.81953L27.5139 9.71614ZM27.2376 10.2614C27.079 10.4344 26.9046 10.5193 26.7863 10.5577C26.7291 10.5762 26.684 10.5844 26.6565 10.5881C26.6288 10.5919 26.6133 10.5918 26.6128 10.5918V7.59184C26.2121 7.59184 25.5371 7.67681 25.0261 8.23425L27.2376 10.2614ZM26.6128 10.5918H27.4318V7.59184H26.6128V10.5918ZM27.4318 10.5918C27.4809 10.5918 27.518 10.5927 27.5449 10.5938C27.5728 10.5949 27.5824 10.5961 27.5782 10.5957L27.9095 7.61401C27.7526 7.59658 27.5864 7.59184 27.4318 7.59184V10.5918ZM27.5946 10.5974C27.5747 10.5954 27.4905 10.5855 27.374 10.5356L28.5557 7.77812C28.3178 7.67616 28.0863 7.6316 27.8931 7.61228L27.5946 10.5974ZM27.1328 10.4049C27.0552 10.3532 26.9969 10.2968 26.9555 10.2471L29.2602 8.32656C29.1321 8.17288 28.9785 8.02981 28.7969 7.90876L27.1328 10.4049ZM26.9555 10.2471C26.9257 10.2114 26.9081 10.1845 26.9008 10.1728C26.8932 10.1607 26.892 10.1573 26.8962 10.1657L29.5795 8.82402C29.5046 8.67426 29.4017 8.49645 29.2602 8.32656L26.9555 10.2471ZM26.9075 10.1878L29.8195 15.7778L32.4802 14.3918L29.5682 8.80183L26.9075 10.1878ZM32.6498 15.0848V9.76784H29.6498V15.0848H32.6498ZM32.6498 9.76784C32.6498 9.71936 32.6549 9.7436 32.6376 9.81314C32.6212 9.87867 32.5649 10.0641 32.3897 10.2568L30.1699 8.23883C29.6826 8.77492 29.6498 9.45095 29.6498 9.76784H32.6498ZM32.4322 10.2081C32.262 10.4123 32.0658 10.5107 31.9362 10.5539C31.8734 10.5748 31.824 10.5838 31.7945 10.5878C31.7648 10.5919 31.7482 10.5918 31.7478 10.5918V7.59184C31.3654 7.59184 30.6428 7.66919 30.1275 8.28756L32.4322 10.2081ZM31.7478 10.5918H32.6968V7.59184H31.7478V10.5918ZM32.6968 10.5918C32.6965 10.5918 32.6799 10.5919 32.6502 10.5878C32.6207 10.5838 32.5713 10.5748 32.5085 10.5539C32.3789 10.5107 32.1827 10.4123 32.0125 10.2081L34.3172 8.28756C33.8019 7.6692 33.0793 7.59184 32.6968 7.59184V10.5918ZM32.0549 10.2568C31.8797 10.0641 31.8235 9.87868 31.8071 9.81314C31.7897 9.7436 31.7948 9.71936 31.7948 9.76784H34.7948C34.7948 9.45095 34.7621 8.77492 34.2747 8.23882L32.0549 10.2568ZM31.7948 9.76784V17.9578H34.7948V9.76784H31.7948ZM31.7948 17.9578C31.7948 18.0139 31.7892 17.9956 31.8051 17.9306C31.8193 17.8721 31.8738 17.6811 32.0549 17.4818L34.2747 19.4998C34.7676 18.9577 34.7948 18.2671 34.7948 17.9578H31.7948ZM31.9648 17.5908C32.1445 17.3513 32.3644 17.2375 32.5061 17.1889C32.5747 17.1654 32.6286 17.1555 32.6601 17.1512C32.6919 17.1468 32.7097 17.1468 32.7098 17.1468V20.1468C33.0703 20.1468 33.849 20.0786 34.3648 19.3908L31.9648 17.5908ZM32.7098 17.1468H31.7348V20.1468H32.7098V17.1468ZM31.7348 17.1468C31.6996 17.1468 31.7159 17.1431 31.7671 17.1559C31.8203 17.1692 31.9278 17.2047 32.0499 17.2942L30.2758 19.7134C30.7709 20.0765 31.331 20.1468 31.7348 20.1468V17.1468ZM32.0499 17.2942C32.0868 17.3213 32.1119 17.3445 32.126 17.3587C32.1402 17.3729 32.1463 17.3808 32.1452 17.3794C32.1441 17.378 32.1378 17.3698 32.1268 17.3529C32.1158 17.3361 32.1015 17.3127 32.0841 17.2814L29.4616 18.7383C29.636 19.0522 29.8929 19.4326 30.2758 19.7134L32.0499 17.2942ZM32.0976 17.3064L29.5366 12.4834L26.887 13.8903L29.448 18.7133L32.0976 17.3064ZM37.1388 14.7858V13.2858H35.6074L35.6391 14.8169L37.1388 14.7858ZM37.1778 16.6708L35.6781 16.7019L35.7085 18.1708H37.1778V16.6708ZM40.4668 16.7878L39.4633 17.9028L39.4957 17.9319L39.5297 17.9591L40.4668 16.7878ZM40.4668 18.5298L39.5297 17.3585L39.4957 17.3857L39.4633 17.4149L40.4668 18.5298ZM35.1238 18.4908L36.3238 17.5908L36.3048 17.5655L36.2847 17.541L35.1238 18.4908ZM34.9938 17.9578L33.4939 17.9793L33.4941 17.9935L33.4946 18.0078L34.9938 17.9578ZM34.8768 9.76784L36.3766 9.74641L36.3764 9.73127L36.3759 9.71614L34.8768 9.76784ZM34.9938 9.24784L33.888 8.23424L33.8839 8.23883L34.9938 9.24784ZM40.8828 10.9638L41.8198 12.1351L41.8538 12.1079L41.8862 12.0788L40.8828 10.9638ZM37.0868 11.0678V9.56784H35.5642L35.5869 11.0902L37.0868 11.0678ZM37.1128 12.8098L35.6129 12.8322L35.635 14.3098H37.1128V12.8098ZM40.4278 12.9138L39.4907 14.0851L39.4907 14.0851L40.4278 12.9138ZM40.4278 14.6818L41.3648 15.8531V15.8531L40.4278 14.6818ZM35.6391 14.8169L35.6781 16.7019L38.6775 16.6398L38.6385 14.7548L35.6391 14.8169ZM37.1778 18.1708H40.0638V15.1708H37.1778V18.1708ZM40.0638 18.1708C40.0533 18.1708 39.9853 18.1704 39.8828 18.1406C39.7757 18.1095 39.6183 18.0423 39.4633 17.9028L41.4702 15.6729C40.9893 15.2401 40.4173 15.1708 40.0638 15.1708V18.1708ZM39.5297 17.9591C39.0988 17.6144 39.0968 17.1762 39.0968 17.1518H42.0968C42.0968 16.7808 42.0081 16.0999 41.4038 15.6165L39.5297 17.9591ZM39.0968 17.1518V18.1528H42.0968V17.1518H39.0968ZM39.0968 18.1528C39.0968 18.1345 39.0977 18.0352 39.1462 17.8946C39.1986 17.7426 39.3109 17.5336 39.5297 17.3585L41.4038 19.7011C42.0226 19.2061 42.0968 18.5027 42.0968 18.1528H39.0968ZM39.4633 17.4149C39.6183 17.2754 39.7757 17.2082 39.8828 17.1771C39.9853 17.1473 40.0533 17.1468 40.0638 17.1468V20.1468C40.4173 20.1468 40.9893 20.0776 41.4702 19.6448L39.4633 17.4149ZM40.0638 17.1468H35.5788V20.1468H40.0638V17.1468ZM35.5788 17.1468C35.5789 17.1468 35.5967 17.1468 35.6285 17.1512C35.66 17.1555 35.7139 17.1654 35.7825 17.1889C35.9242 17.2375 36.1441 17.3513 36.3238 17.5908L33.9238 19.3908C34.4396 20.0786 35.2183 20.1468 35.5788 20.1468V17.1468ZM36.2847 17.541C36.3658 17.64 36.4144 17.7314 36.4425 17.7947C36.4707 17.8582 36.4842 17.9066 36.4901 17.9307C36.5006 17.9741 36.4952 17.9742 36.4929 17.9079L33.4946 18.0078C33.5043 18.2984 33.5445 18.9294 33.9628 19.4407L36.2847 17.541ZM36.4936 17.9364L36.3766 9.74641L33.3769 9.78926L33.4939 17.9793L36.4936 17.9364ZM36.3759 9.71614C36.3743 9.67007 36.3805 9.70057 36.3629 9.7786C36.346 9.8537 36.2889 10.0531 36.1037 10.2568L33.8839 8.23883C33.3757 8.7978 33.3667 9.50292 33.3777 9.81953L36.3759 9.71614ZM36.0995 10.2614C35.9409 10.4344 35.7665 10.5193 35.6483 10.5577C35.591 10.5762 35.5459 10.5844 35.5184 10.5881C35.4908 10.5919 35.4753 10.5918 35.4748 10.5918V7.59184C35.0741 7.59184 34.399 7.67681 33.888 8.23425L36.0995 10.2614ZM35.4748 10.5918H40.4798V7.59184H35.4748V10.5918ZM40.4798 10.5918C40.4783 10.5918 40.4657 10.5918 40.4439 10.5894C40.4223 10.587 40.3873 10.5819 40.3422 10.5703C40.254 10.5475 40.1038 10.4936 39.9457 10.3671L41.8198 8.02453C41.3439 7.64383 40.8011 7.59184 40.4798 7.59184V10.5918ZM39.9457 10.3671C39.7269 10.1921 39.6146 9.98302 39.5622 9.83107C39.5137 9.69044 39.5128 9.59119 39.5128 9.57284H42.5128C42.5128 9.22293 42.4386 8.51955 41.8198 8.02453L39.9457 10.3671ZM39.5128 9.57284V10.5868H42.5128V9.57284H39.5128ZM39.5128 10.5868C39.5128 10.5436 39.5224 10.1701 39.8793 9.84889L41.8862 12.0788C42.4165 11.6016 42.5128 10.9767 42.5128 10.5868H39.5128ZM39.9457 9.79253C40.1038 9.66611 40.254 9.61219 40.3422 9.58942C40.3873 9.57778 40.4223 9.57263 40.4439 9.57026C40.4657 9.56788 40.4783 9.56784 40.4798 9.56784V12.5678C40.8011 12.5678 41.3439 12.5158 41.8198 12.1351L39.9457 9.79253ZM40.4798 9.56784H37.0868V12.5678H40.4798V9.56784ZM35.5869 11.0902L35.6129 12.8322L38.6126 12.7875L38.5866 11.0455L35.5869 11.0902ZM37.1128 14.3098H40.0248V11.3098H37.1128V14.3098ZM40.0248 14.3098C40.0233 14.3098 40.0107 14.3098 39.9889 14.3074C39.9673 14.305 39.9323 14.2999 39.8872 14.2883C39.799 14.2655 39.6488 14.2116 39.4907 14.0851L41.3648 11.7425C40.8889 11.3618 40.3461 11.3098 40.0248 11.3098V14.3098ZM39.4907 14.0851C39.2719 13.9101 39.1596 13.701 39.1072 13.5491C39.0587 13.4084 39.0578 13.3092 39.0578 13.2908H42.0578C42.0578 12.9409 41.9836 12.2375 41.3648 11.7425L39.4907 14.0851ZM39.0578 13.2908V14.3048H42.0578V13.2908H39.0578ZM39.0578 14.3048C39.0578 14.2865 39.0587 14.1872 39.1072 14.0466C39.1596 13.8946 39.2719 13.6856 39.4907 13.5105L41.3648 15.8531C41.9836 15.3581 42.0578 14.6547 42.0578 14.3048H39.0578ZM39.4907 13.5105C39.6488 13.3841 39.799 13.3302 39.8872 13.3074C39.9323 13.2958 39.9673 13.2906 39.9889 13.2883C40.0107 13.2859 40.0233 13.2858 40.0248 13.2858V16.2858C40.3461 16.2858 40.8889 16.2338 41.3648 15.8531L39.4907 13.5105ZM40.0248 13.2858H37.1388V16.2858H40.0248V13.2858ZM42.0048 10.3138L40.7888 11.1921L40.7965 11.2027L40.8043 11.2131L42.0048 10.3138ZM41.9138 9.94984L43.2001 10.7216L43.2159 10.6952L43.2307 10.6681L41.9138 9.94984ZM42.1868 9.70284L41.4817 8.37891L41.481 8.37931L42.1868 9.70284ZM43.3828 9.06584L42.681 7.74015L42.6777 7.74191L43.3828 9.06584ZM43.6948 8.96184L43.4827 10.4468L43.5882 10.4618H43.6948V8.96184ZM43.9028 9.11784L42.7028 10.0178V10.0178L43.9028 9.11784ZM46.0478 11.9778L44.8478 12.8778L46.0478 14.4778L47.2478 12.8778L46.0478 11.9778ZM48.1928 9.11784L49.3928 10.0178V10.0178L48.1928 9.11784ZM48.4008 8.96184V10.4618H48.5074L48.613 10.4468L48.4008 8.96184ZM48.7128 9.06584L49.418 7.7419L49.4147 7.74015L48.7128 9.06584ZM49.9088 9.70284L50.6147 8.37931L50.614 8.37891L49.9088 9.70284ZM50.1818 9.94984L48.865 10.6681L48.905 10.7415L48.953 10.81L50.1818 9.94984ZM50.0908 10.3138L48.9068 9.39293L48.8985 9.40366L48.8903 9.41454L50.0908 10.3138ZM47.4518 13.8368L46.2513 12.9375L45.5768 13.8379L46.2524 14.7375L47.4518 13.8368ZM50.1558 17.4378L48.9563 18.3386L48.9643 18.349L50.1558 17.4378ZM50.0908 18.0878L49.4029 16.7549L49.3842 16.7645L49.3659 16.7747L50.0908 18.0878ZM48.8428 18.7768L48.1179 17.4637L48.1082 17.469L48.0986 17.4745L48.8428 18.7768ZM48.5308 18.8678L48.3652 20.3587L48.3734 20.3596L48.3816 20.3604L48.5308 18.8678ZM48.2838 18.6858L47.0845 19.5867L47.0896 19.5936L47.0949 19.6004L48.2838 18.6858ZM46.0478 15.7088L47.2472 14.808L46.0478 13.2112L44.8485 14.808L46.0478 15.7088ZM43.8118 18.6858L45.0008 19.6004L45.006 19.5936L45.0112 19.5867L43.8118 18.6858ZM43.5518 18.8678L43.4026 17.3753L43.3944 17.3761L43.3862 17.377L43.5518 18.8678ZM43.2528 18.7768L43.997 17.4745L43.9875 17.469L43.9778 17.4637L43.2528 18.7768ZM42.0048 18.0878L42.7298 16.7747L42.7114 16.7645L42.6928 16.7549L42.0048 18.0878ZM41.9398 17.4378L43.1314 18.349L43.1393 18.3385L41.9398 17.4378ZM44.6438 13.8368L45.8433 14.7375L46.5188 13.8379L45.8444 12.9375L44.6438 13.8368ZM43.2209 9.4356C43.2224 9.43774 43.3037 9.54545 43.3528 9.74203C43.4098 9.9702 43.4251 10.3466 43.2001 10.7216L40.6276 9.17809C40.0572 10.1287 40.6503 11.0003 40.7888 11.1921L43.2209 9.4356ZM43.2307 10.6681C43.1007 10.9065 42.9314 11.0057 42.8927 11.0264L41.481 8.37931C41.1822 8.53862 40.831 8.80251 40.597 9.23156L43.2307 10.6681ZM42.892 11.0268L44.088 10.3898L42.6777 7.74191L41.4817 8.37891L42.892 11.0268ZM44.0847 10.3915C44.1188 10.3735 44.1012 10.3858 44.0457 10.4044C44.0162 10.4142 43.957 10.4322 43.8752 10.4451C43.7974 10.4574 43.658 10.4718 43.4827 10.4468L43.907 7.47691C43.5297 7.42302 43.2217 7.51675 43.097 7.55831C42.9374 7.6115 42.7942 7.6802 42.681 7.74015L44.0847 10.3915ZM43.6948 10.4618C43.2877 10.4618 43.0095 10.2887 42.8923 10.2008C42.7717 10.1104 42.711 10.0288 42.7028 10.0178L45.1028 8.21784C45.0166 8.1029 44.8823 7.94328 44.6923 7.80084C44.5058 7.66093 44.1626 7.46184 43.6948 7.46184V10.4618ZM42.7028 10.0178L44.8478 12.8778L47.2478 11.0778L45.1028 8.21784L42.7028 10.0178ZM47.2478 12.8778L49.3928 10.0178L46.9928 8.21784L44.8478 11.0778L47.2478 12.8778ZM49.3928 10.0178C49.3846 10.0288 49.3239 10.1104 49.2033 10.2008C49.0861 10.2887 48.8079 10.4618 48.4008 10.4618V7.46184C47.9331 7.46184 47.5899 7.66093 47.4033 7.80084C47.2134 7.94328 47.079 8.1029 46.9928 8.21784L49.3928 10.0178ZM48.613 10.4468C48.4377 10.4718 48.2983 10.4574 48.2205 10.4451C48.1387 10.4322 48.0795 10.4142 48.05 10.4044C47.9944 10.3858 47.9769 10.3735 48.011 10.3915L49.4147 7.74015C49.3014 7.6802 49.1582 7.6115 48.9987 7.55831C48.874 7.51675 48.566 7.42302 48.1887 7.47691L48.613 10.4468ZM48.0077 10.3898L49.2037 11.0268L50.614 8.37891L49.418 7.74191L48.0077 10.3898ZM49.203 11.0264C49.1642 11.0057 48.995 10.9065 48.865 10.6681L51.4987 9.23156C51.2647 8.80251 50.9134 8.53862 50.6147 8.37931L49.203 11.0264ZM48.953 10.81C48.6882 10.4317 48.6803 10.0184 48.7494 9.74203C48.8057 9.51669 48.9055 9.39464 48.9068 9.39293L51.2749 11.2347C51.3975 11.077 51.5731 10.8163 51.6598 10.4696C51.7592 10.072 51.7362 9.55459 51.4107 9.08964L48.953 10.81ZM48.8903 9.41454L46.2513 12.9375L48.6524 14.7361L51.2914 11.2131L48.8903 9.41454ZM46.2524 14.7375L48.9564 18.3385L51.3553 16.5371L48.6513 12.9361L46.2524 14.7375ZM48.9643 18.349C48.9642 18.3489 48.9244 18.2982 48.885 18.1993C48.8444 18.0973 48.792 17.9121 48.816 17.6721C48.874 17.0921 49.2782 16.8192 49.4029 16.7549L50.7788 19.4208C51.1721 19.2178 51.7215 18.7672 51.8011 17.9706C51.8689 17.2929 51.5404 16.7791 51.3474 16.5267L48.9643 18.349ZM49.3659 16.7747L48.1179 17.4637L49.5678 20.09L50.8158 19.401L49.3659 16.7747ZM48.0986 17.4745C48.1124 17.4666 48.1656 17.4373 48.2538 17.4116C48.343 17.3856 48.4916 17.3564 48.6801 17.3753L48.3816 20.3604C48.9153 20.4138 49.3454 20.2173 49.587 20.0792L48.0986 17.4745ZM48.6965 17.377C48.9874 17.4093 49.192 17.5284 49.3004 17.6083C49.4065 17.6864 49.4612 17.7562 49.4728 17.7713L47.0949 19.6004C47.2455 19.7962 47.6566 20.2799 48.3652 20.3587L48.6965 17.377ZM49.4832 17.785L47.2472 14.808L44.8485 16.6097L47.0845 19.5867L49.4832 17.785ZM44.8485 14.808L42.6125 17.785L45.0112 19.5867L47.2472 16.6097L44.8485 14.808ZM42.6229 17.7713C42.6428 17.7454 42.7055 17.6683 42.8216 17.587C42.9439 17.5014 43.1407 17.4015 43.4026 17.3753L43.7011 20.3604C44.396 20.2909 44.8154 19.8413 45.0008 19.6004L42.6229 17.7713ZM43.3862 17.377C43.6043 17.3528 43.7708 17.3908 43.8553 17.4166C43.9418 17.4429 43.9912 17.4711 43.997 17.4745L42.5086 20.0792C42.716 20.1977 43.1602 20.4206 43.7175 20.3587L43.3862 17.377ZM43.9778 17.4637L42.7298 16.7747L41.2799 19.401L42.5279 20.09L43.9778 17.4637ZM42.6928 16.7549C42.8174 16.8192 43.2216 17.0921 43.2796 17.6721C43.3036 17.9121 43.2513 18.0973 43.2107 18.1993C43.1713 18.2982 43.1314 18.3489 43.1314 18.349L40.7483 16.5267C40.5553 16.7791 40.2268 17.2929 40.2945 17.9706C40.3742 18.7672 40.9236 19.2178 41.3169 19.4208L42.6928 16.7549ZM43.1393 18.3385L45.8433 14.7375L43.4444 12.9361L40.7404 16.5371L43.1393 18.3385ZM45.8444 12.9375L43.2054 9.41454L40.8043 11.2131L43.4433 14.7361L45.8444 12.9375ZM53.9024 11.0678L55.4022 11.0483L55.383 9.56784H53.9024V11.0678ZM51.2764 10.9638L52.2134 9.79253L52.2134 9.79253L51.2764 10.9638ZM58.8424 10.9638L57.9053 9.79253L57.9053 9.79253L58.8424 10.9638ZM56.1124 11.0678V9.56784H54.5927L54.6125 11.0874L56.1124 11.0678ZM56.2034 18.0618H57.7034V18.0521L57.7033 18.0423L56.2034 18.0618ZM56.0994 18.5168L54.9783 17.5203L54.9524 17.5494L54.9281 17.5798L56.0994 18.5168ZM54.0974 18.5168L52.9762 19.5134L52.9824 19.5203L54.0974 18.5168ZM53.9934 18.0618H55.4934V18.0521L55.4932 18.0423L53.9934 18.0618ZM53.9024 9.56784H51.6794V12.5678H53.9024V9.56784ZM51.6794 9.56784C51.6809 9.56784 51.6934 9.56788 51.7152 9.57026C51.7369 9.57263 51.7719 9.57778 51.8169 9.58942C51.9052 9.61219 52.0554 9.66611 52.2134 9.79253L50.3393 12.1351C50.8152 12.5158 51.358 12.5678 51.6794 12.5678V9.56784ZM52.2134 9.79253C52.4322 9.96757 52.5445 10.1766 52.5969 10.3286C52.6454 10.4692 52.6464 10.5685 52.6464 10.5868H49.6464C49.6464 10.9367 49.7206 11.6401 50.3393 12.1351L52.2134 9.79253ZM52.6464 10.5868V9.57284H49.6464V10.5868H52.6464ZM52.6464 9.57284C52.6464 9.59119 52.6454 9.69044 52.5969 9.83107C52.5445 9.98302 52.4322 10.1921 52.2134 10.3671L50.3393 8.02453C49.7206 8.51955 49.6464 9.22293 49.6464 9.57284H52.6464ZM52.2134 10.3671C52.0554 10.4936 51.9052 10.5475 51.8169 10.5703C51.7719 10.5819 51.7369 10.587 51.7152 10.5894C51.6934 10.5918 51.6809 10.5918 51.6794 10.5918V7.59184C51.358 7.59184 50.8152 7.64383 50.3393 8.02453L52.2134 10.3671ZM51.6794 10.5918H58.4394V7.59184H51.6794V10.5918ZM58.4394 10.5918C58.4379 10.5918 58.4253 10.5918 58.4035 10.5894C58.3819 10.587 58.3469 10.5819 58.3018 10.5703C58.2136 10.5475 58.0634 10.4936 57.9053 10.3671L59.7794 8.02453C59.3035 7.64383 58.7607 7.59184 58.4394 7.59184V10.5918ZM57.9053 10.3671C57.6865 10.1921 57.5742 9.98302 57.5218 9.83107C57.4733 9.69044 57.4724 9.59119 57.4724 9.57284H60.4724C60.4724 9.22293 60.3982 8.51955 59.7794 8.02453L57.9053 10.3671ZM57.4724 9.57284V10.5868H60.4724V9.57284H57.4724ZM57.4724 10.5868C57.4724 10.5685 57.4733 10.4692 57.5218 10.3286C57.5742 10.1766 57.6865 9.96757 57.9053 9.79253L59.7794 12.1351C60.3982 11.6401 60.4724 10.9367 60.4724 10.5868H57.4724ZM57.9053 9.79253C58.0634 9.66611 58.2136 9.61219 58.3018 9.58942C58.3469 9.57778 58.3819 9.57263 58.4035 9.57026C58.4253 9.56788 58.4379 9.56784 58.4394 9.56784V12.5678C58.7607 12.5678 59.3035 12.5158 59.7794 12.1351L57.9053 9.79253ZM58.4394 9.56784H56.1124V12.5678H58.4394V9.56784ZM54.6125 11.0874L54.7035 18.0814L57.7033 18.0423L57.6122 11.0483L54.6125 11.0874ZM54.7034 18.0618C54.7034 18.1074 54.6989 18.081 54.7151 18.0103C54.7285 17.9518 54.7829 17.74 54.9783 17.5203L57.2205 19.5134C57.4852 19.2156 57.5916 18.8891 57.6397 18.6788C57.6905 18.4565 57.7034 18.2416 57.7034 18.0618H54.7034ZM54.9281 17.5798C55.1123 17.3495 55.3308 17.2396 55.4755 17.1913C55.6103 17.1464 55.7017 17.1468 55.7094 17.1468V20.1468C56.0395 20.1468 56.7651 20.0859 57.2707 19.4539L54.9281 17.5798ZM55.7094 17.1468H54.4874V20.1468H55.7094V17.1468ZM54.4874 17.1468C54.4948 17.1468 54.8792 17.1433 55.2123 17.5134L52.9824 19.5203C53.4716 20.0638 54.1159 20.1468 54.4874 20.1468V17.1468ZM55.2185 17.5203C55.4138 17.74 55.4683 17.9518 55.4817 18.0103C55.4978 18.081 55.4934 18.1074 55.4934 18.0618H52.4934C52.4934 18.2416 52.5063 18.4565 52.5571 18.6788C52.6051 18.8891 52.7116 19.2156 52.9763 19.5134L55.2185 17.5203ZM55.4932 18.0423L55.4022 11.0483L52.4025 11.0874L52.4935 18.0814L55.4932 18.0423Z" fill="#14181F" mask="url(#path-4-outside-1_10_1277)"/>
    </g>
    <defs>
        <filter id="filter0_d_10_1277" x="0.113281" y="3.08691" width="87.5371" height="29.418" filterUnits="userSpaceOnUse" color-interpolation-filters="sRGB">
            <feFlood flood-opacity="0" result="BackgroundImageFix"/>
            <feColorMatrix in="SourceAlpha" type="matrix" values="0 0 0 0 0 0 0 0 0 0 0 0 0 0 0 0 0 0 127 0" result="hardAlpha"/>
            <feOffset dx="3" dy="3"/>
            <feComposite in2="hardAlpha" operator="out"/>
            <feColorMatrix type="matrix" values="0 0 0 0 0 0 0 0 0 0 0 0 0 0 0 0 0 0 0.6 0"/>
            <feBlend mode="normal" in2="BackgroundImageFix" result="effect1_dropShadow_10_1277"/>
            <feBlend mode="normal" in="SourceGraphic" in2="effect1_dropShadow_10_1277" result="shape"/>
        </filter>
        <filter id="filter1_d_10_1277" x="26.002" y="8.94922" width="33.9707" height="10.9316" filterUnits="userSpaceOnUse" color-interpolation-filters="sRGB">
            <feFlood flood-opacity="0" result="BackgroundImageFix"/>
            <feColorMatrix in="SourceAlpha" type="matrix" values="0 0 0 0 0 0 0 0 0 0 0 0 0 0 0 0 0 0 127 0" result="hardAlpha"/>
            <feOffset dx="1" dy="1"/>
            <feComposite in2="hardAlpha" operator="out"/>
            <feColorMatrix type="matrix" values="0 0 0 0 0.0784314 0 0 0 0 0.0941176 0 0 0 0 0.121569 0 0 0 1 0"/>
            <feBlend mode="normal" in2="BackgroundImageFix" result="effect1_dropShadow_10_1277"/>
            <feBlend mode="normal" in="SourceGraphic" in2="effect1_dropShadow_10_1277" result="shape"/>
        </filter>
    </defs>
</svg>
