<svg width="108" height="80" viewBox="0 0 108 80" fill="none" xmlns="http://www.w3.org/2000/svg">
    <g filter="url(#filter0_d_1109_1085)">
        <mask id="path-1-outside-1_1109_1085" maskUnits="userSpaceOnUse" x="1" y="15" width="101" height="57" fill="black">
            <rect fill="white" x="1" y="15" width="101" height="57"/>
            <path d="M36.3646 22.95C36.3646 22.0833 36.498 21.5 36.7646 21.2C37.0646 20.8667 37.5647 20.7 38.2647 20.7H42.9647C43.698 20.7 44.198 20.8667 44.4647 21.2C44.7313 21.5 44.8646 22.0833 44.8646 22.95V43.25C44.8646 44.1167 44.7313 44.7167 44.4647 45.05C44.198 45.35 43.698 45.5 42.9647 45.5H38.2647C37.5647 45.5 37.0646 45.35 36.7646 45.05C36.498 44.7167 36.3646 44.1167 36.3646 43.25V22.95ZM17.6646 66.7C16.9646 66.7333 16.4813 66.6 16.2146 66.3C15.948 66 15.798 65.5667 15.7646 65L15.3146 50.6C15.2813 49.9333 15.3646 49.45 15.5646 49.15C15.7646 48.85 16.2313 48.6833 16.9646 48.65L40.9146 48.15C42.4147 48.0833 43.1313 48.7333 43.0646 50.1L42.6147 64.5C42.5813 65.0667 42.4313 65.4833 42.1647 65.75C41.898 66.0167 41.4147 66.1667 40.7146 66.2L17.6646 66.7ZM24.0646 60.1L34.3147 59.85V54.95L24.0646 55.2V60.1ZM15.0146 38.4L31.3647 38.05C31.9647 38.05 32.3813 38.15 32.6146 38.35C32.8813 38.55 33.0147 38.9333 33.0147 39.5V44.2C33.0147 44.7667 32.8813 45.15 32.6146 45.35C32.3813 45.5167 31.9647 45.6167 31.3647 45.65L8.36465 46.15C7.63132 46.1833 7.13132 46.0333 6.86465 45.7C6.63132 45.3667 6.49798 44.7667 6.46465 43.9L6.11465 22.45C6.08132 21.5833 6.21465 21 6.51465 20.7C6.81465 20.3667 7.31465 20.2 8.01465 20.2H12.8646C13.598 20.2 14.0813 20.3667 14.3146 20.7C14.5813 21 14.7313 21.5833 14.7646 22.45L15.0146 38.4ZM54.2088 31.15L51.0588 31.25C50.4588 31.2833 50.0255 31.2 49.7588 31C49.5255 30.7667 49.4088 30.3667 49.4088 29.8V25.15C49.4088 24.5833 49.5255 24.2167 49.7588 24.05C50.0255 23.85 50.4588 23.7333 51.0588 23.7L58.9088 23.5V22.4C58.9088 21.8333 59.0255 21.4667 59.2588 21.3C59.5255 21.1 59.9588 20.9833 60.5588 20.95L72.5088 20.7C73.2755 20.6667 73.7921 20.8167 74.0588 21.15C74.3588 21.4833 74.4755 22.0833 74.4088 22.95L73.4588 34.95L77.0088 34.85V23.95C77.0088 23.0833 77.1421 22.5 77.4088 22.2C77.7088 21.8667 78.2088 21.7 78.9088 21.7H83.6088C84.3421 21.7 84.8421 21.8667 85.1088 22.2C85.3755 22.5 85.5088 23.0833 85.5088 23.95V54.75C85.5088 55.6167 85.3755 56.2167 85.1088 56.55C84.8421 56.85 84.3421 57 83.6088 57H78.9088C78.2088 57 77.7088 56.85 77.4088 56.55C77.1421 56.2167 77.0088 55.6167 77.0088 54.75V42.45L72.8588 42.55L71.8588 55.75C71.7921 56.6167 71.6421 57.2 71.4088 57.5C71.1755 57.8333 70.6921 58 69.9588 58H65.5588C64.8588 58 64.3421 57.8333 64.0088 57.5C63.7088 57.2 63.5921 56.6167 63.6588 55.75L65.8088 28.4L62.4088 28.5L60.4588 53.25C60.3921 54.1167 60.2421 54.7167 60.0088 55.05C59.7755 55.35 59.2921 55.5 58.5588 55.5H54.4088C53.7088 55.5 53.1921 55.35 52.8588 55.05C52.5588 54.7167 52.4421 54.1167 52.5088 53.25L54.2088 31.15ZM87.9088 23.45C87.9088 22.5833 88.0421 22 88.3088 21.7C88.6088 21.3667 89.1088 21.2 89.8088 21.2H94.5088C95.2421 21.2 95.7421 21.3667 96.0088 21.7C96.2755 22 96.4088 22.5833 96.4088 23.45V54.25C96.4088 55.1167 96.2755 55.7167 96.0088 56.05C95.7421 56.35 95.2421 56.5 94.5088 56.5H89.8088C89.1088 56.5 88.6088 56.35 88.3088 56.05C88.0421 55.7167 87.9088 55.1167 87.9088 54.25V23.45Z"/>
        </mask>
        <path d="M36.3646 22.95C36.3646 22.0833 36.498 21.5 36.7646 21.2C37.0646 20.8667 37.5647 20.7 38.2647 20.7H42.9647C43.698 20.7 44.198 20.8667 44.4647 21.2C44.7313 21.5 44.8646 22.0833 44.8646 22.95V43.25C44.8646 44.1167 44.7313 44.7167 44.4647 45.05C44.198 45.35 43.698 45.5 42.9647 45.5H38.2647C37.5647 45.5 37.0646 45.35 36.7646 45.05C36.498 44.7167 36.3646 44.1167 36.3646 43.25V22.95ZM17.6646 66.7C16.9646 66.7333 16.4813 66.6 16.2146 66.3C15.948 66 15.798 65.5667 15.7646 65L15.3146 50.6C15.2813 49.9333 15.3646 49.45 15.5646 49.15C15.7646 48.85 16.2313 48.6833 16.9646 48.65L40.9146 48.15C42.4147 48.0833 43.1313 48.7333 43.0646 50.1L42.6147 64.5C42.5813 65.0667 42.4313 65.4833 42.1647 65.75C41.898 66.0167 41.4147 66.1667 40.7146 66.2L17.6646 66.7ZM24.0646 60.1L34.3147 59.85V54.95L24.0646 55.2V60.1ZM15.0146 38.4L31.3647 38.05C31.9647 38.05 32.3813 38.15 32.6146 38.35C32.8813 38.55 33.0147 38.9333 33.0147 39.5V44.2C33.0147 44.7667 32.8813 45.15 32.6146 45.35C32.3813 45.5167 31.9647 45.6167 31.3647 45.65L8.36465 46.15C7.63132 46.1833 7.13132 46.0333 6.86465 45.7C6.63132 45.3667 6.49798 44.7667 6.46465 43.9L6.11465 22.45C6.08132 21.5833 6.21465 21 6.51465 20.7C6.81465 20.3667 7.31465 20.2 8.01465 20.2H12.8646C13.598 20.2 14.0813 20.3667 14.3146 20.7C14.5813 21 14.7313 21.5833 14.7646 22.45L15.0146 38.4ZM54.2088 31.15L51.0588 31.25C50.4588 31.2833 50.0255 31.2 49.7588 31C49.5255 30.7667 49.4088 30.3667 49.4088 29.8V25.15C49.4088 24.5833 49.5255 24.2167 49.7588 24.05C50.0255 23.85 50.4588 23.7333 51.0588 23.7L58.9088 23.5V22.4C58.9088 21.8333 59.0255 21.4667 59.2588 21.3C59.5255 21.1 59.9588 20.9833 60.5588 20.95L72.5088 20.7C73.2755 20.6667 73.7921 20.8167 74.0588 21.15C74.3588 21.4833 74.4755 22.0833 74.4088 22.95L73.4588 34.95L77.0088 34.85V23.95C77.0088 23.0833 77.1421 22.5 77.4088 22.2C77.7088 21.8667 78.2088 21.7 78.9088 21.7H83.6088C84.3421 21.7 84.8421 21.8667 85.1088 22.2C85.3755 22.5 85.5088 23.0833 85.5088 23.95V54.75C85.5088 55.6167 85.3755 56.2167 85.1088 56.55C84.8421 56.85 84.3421 57 83.6088 57H78.9088C78.2088 57 77.7088 56.85 77.4088 56.55C77.1421 56.2167 77.0088 55.6167 77.0088 54.75V42.45L72.8588 42.55L71.8588 55.75C71.7921 56.6167 71.6421 57.2 71.4088 57.5C71.1755 57.8333 70.6921 58 69.9588 58H65.5588C64.8588 58 64.3421 57.8333 64.0088 57.5C63.7088 57.2 63.5921 56.6167 63.6588 55.75L65.8088 28.4L62.4088 28.5L60.4588 53.25C60.3921 54.1167 60.2421 54.7167 60.0088 55.05C59.7755 55.35 59.2921 55.5 58.5588 55.5H54.4088C53.7088 55.5 53.1921 55.35 52.8588 55.05C52.5588 54.7167 52.4421 54.1167 52.5088 53.25L54.2088 31.15ZM87.9088 23.45C87.9088 22.5833 88.0421 22 88.3088 21.7C88.6088 21.3667 89.1088 21.2 89.8088 21.2H94.5088C95.2421 21.2 95.7421 21.3667 96.0088 21.7C96.2755 22 96.4088 22.5833 96.4088 23.45V54.25C96.4088 55.1167 96.2755 55.7167 96.0088 56.05C95.7421 56.35 95.2421 56.5 94.5088 56.5H89.8088C89.1088 56.5 88.6088 56.35 88.3088 56.05C88.0421 55.7167 87.9088 55.1167 87.9088 54.25V23.45Z" fill="white"/>
        <path d="M36.7646 21.2L33.0482 17.8552L33.0379 17.8666L33.0276 17.8782L36.7646 21.2ZM44.4647 21.2L40.5603 24.3235L40.6414 24.4248L40.7276 24.5218L44.4647 21.2ZM44.4647 45.05L48.2017 48.3718L48.2879 48.2748L48.369 48.1735L44.4647 45.05ZM36.7646 45.05L32.8603 48.1735L33.0333 48.3897L33.2291 48.5855L36.7646 45.05ZM17.6646 66.7L17.5562 61.7012L17.4915 61.7026L17.4268 61.7057L17.6646 66.7ZM16.2146 66.3L12.4776 69.6218L12.4776 69.6218L16.2146 66.3ZM15.7646 65L10.7671 65.1562L10.7692 65.2249L10.7733 65.2936L15.7646 65ZM15.3146 50.6L20.3122 50.4438L20.3107 50.397L20.3084 50.3503L15.3146 50.6ZM15.5646 49.15L19.7249 51.9235L15.5646 49.15ZM16.9646 48.65L16.8603 43.6511L16.7989 43.6524L16.7376 43.6552L16.9646 48.65ZM40.9146 48.15L41.019 53.1489L41.0779 53.1477L41.1367 53.1451L40.9146 48.15ZM43.0646 50.1L38.0706 49.8564L38.0685 49.9001L38.0671 49.9438L43.0646 50.1ZM42.6147 64.5L47.606 64.7936L47.6101 64.7249L47.6122 64.6562L42.6147 64.5ZM42.1646 65.75L45.7002 69.2855L45.7002 69.2855L42.1646 65.75ZM40.7146 66.2L40.8231 71.1988L40.8878 71.1974L40.9525 71.1943L40.7146 66.2ZM24.0646 60.1H19.0646V65.2234L24.1866 65.0985L24.0646 60.1ZM34.3147 59.85L34.4366 64.8485L39.3147 64.7295V59.85H34.3147ZM34.3147 54.95H39.3147V49.8266L34.1927 49.9515L34.3147 54.95ZM24.0646 55.2L23.9427 50.2015L19.0646 50.3205V55.2H24.0646ZM15.0146 38.4L10.0153 38.4784L10.0941 43.5065L15.1217 43.3989L15.0146 38.4ZM31.3647 38.05V33.05H31.3111L31.2576 33.0511L31.3647 38.05ZM32.6147 38.35L29.3607 42.1463L29.4844 42.2523L29.6147 42.35L32.6147 38.35ZM32.6147 45.35L35.5208 49.4187L35.5681 49.3849L35.6146 49.35L32.6147 45.35ZM31.3647 45.65L31.4733 50.6488L31.5577 50.647L31.642 50.6423L31.3647 45.65ZM8.36465 46.15L8.25598 41.1512L8.19677 41.1525L8.13761 41.1552L8.36465 46.15ZM6.86465 45.7L2.76849 48.5673L2.8603 48.6985L2.9603 48.8235L6.86465 45.7ZM6.46465 43.9L1.46531 43.9816L1.46622 44.0369L1.46834 44.0922L6.46465 43.9ZM6.11465 22.45L11.114 22.3684L11.1131 22.3131L11.111 22.2578L6.11465 22.45ZM6.51465 20.7L10.0502 24.2355L10.1432 24.1426L10.2311 24.0448L6.51465 20.7ZM14.3146 20.7L10.2185 23.5673L10.3849 23.805L10.5776 24.0218L14.3146 20.7ZM14.7646 22.45L19.764 22.3716L19.7631 22.3147L19.761 22.2578L14.7646 22.45ZM41.3646 22.95C41.3646 22.7403 41.3839 22.7801 41.3389 22.9766C41.3032 23.133 41.135 23.8093 40.5017 24.5218L33.0276 17.8782C32.1276 18.8907 31.7594 20.0087 31.5904 20.7484C31.4121 21.5283 31.3646 22.293 31.3646 22.95H41.3646ZM40.4811 24.5448C39.9582 25.1258 39.3719 25.4264 38.9458 25.5684C38.5498 25.7004 38.2867 25.7 38.2647 25.7V15.7C36.9332 15.7 34.7186 15.9992 33.0482 17.8552L40.4811 24.5448ZM38.2647 25.7H42.9646V15.7H38.2647V25.7ZM42.9646 25.7C42.9624 25.7 42.9041 25.7001 42.8013 25.6862C42.6995 25.6725 42.5275 25.6414 42.3085 25.5684C41.8593 25.4187 41.1566 25.0688 40.5603 24.3235L48.369 18.0765C46.6481 15.9254 44.1628 15.7 42.9646 15.7V25.7ZM40.7276 24.5218C40.0943 23.8093 39.9261 23.133 39.8904 22.9766C39.8454 22.7801 39.8647 22.7403 39.8647 22.95H49.8647C49.8647 22.293 49.8172 21.5283 49.6389 20.7484C49.4699 20.0087 49.1017 18.8907 48.2017 17.8782L40.7276 24.5218ZM39.8647 22.95V43.25H49.8647V22.95H39.8647ZM39.8647 43.25C39.8647 43.4544 39.8464 43.4333 39.8837 43.2654C39.915 43.1245 40.0541 42.5593 40.5603 41.9265L48.369 48.1735C49.779 46.4109 49.8647 44.2736 49.8647 43.25H39.8647ZM40.7276 41.7282C41.3695 41.006 42.0767 40.7112 42.4529 40.5984C42.815 40.4897 43.0251 40.5 42.9646 40.5V50.5C44.0357 50.5 46.4459 50.3471 48.2017 48.3718L40.7276 41.7282ZM42.9646 40.5H38.2647V50.5H42.9646V40.5ZM38.2647 40.5C38.2655 40.5 38.3125 40.4999 38.3973 40.5105C38.4816 40.521 38.6216 40.5444 38.8014 40.5984C39.1636 40.707 39.7451 40.9593 40.3002 41.5145L33.2291 48.5855C34.9194 50.2758 37.0571 50.5 38.2647 50.5V40.5ZM40.669 41.9265C41.1752 42.5593 41.3143 43.1245 41.3456 43.2653C41.3829 43.4333 41.3646 43.4544 41.3646 43.25H31.3646C31.3646 44.2737 31.4503 46.4109 32.8603 48.1735L40.669 41.9265ZM41.3646 43.25V22.95H31.3646V43.25H41.3646ZM17.4268 61.7057C17.4335 61.7053 17.4953 61.7025 17.6013 61.7115C17.7062 61.7204 17.8821 61.743 18.1068 61.805C18.5638 61.9311 19.3011 62.2463 19.9517 62.9782L12.4776 69.6218C14.2949 71.6663 16.7717 71.7482 17.9025 71.6943L17.4268 61.7057ZM19.9517 62.9782C20.6862 63.8045 20.7501 64.6058 20.756 64.7064L10.7733 65.2936C10.8459 66.5275 11.2098 68.1955 12.4776 69.6218L19.9517 62.9782ZM20.7622 64.8438L20.3122 50.4438L10.3171 50.7562L10.7671 65.1562L20.7622 64.8438ZM20.3084 50.3503C20.304 50.2626 20.3182 50.3625 20.2794 50.587C20.2428 50.7997 20.1249 51.3236 19.7249 51.9235L11.4044 46.3765C10.2843 48.0566 10.2735 49.9025 10.3209 50.8497L20.3084 50.3503ZM19.7249 51.9235C19.0412 52.9491 18.1537 53.3632 17.7463 53.5087C17.345 53.652 17.1067 53.6487 17.1917 53.6448L16.7376 43.6552C16.0893 43.6846 15.2509 43.7813 14.383 44.0913C13.509 44.4034 12.2881 45.0509 11.4044 46.3765L19.7249 51.9235ZM17.069 53.6489L41.019 53.1489L40.8103 43.1511L16.8603 43.6511L17.069 53.6489ZM41.1367 53.1451C41.1363 53.1451 41.1254 53.1456 41.105 53.1452C41.0846 53.1449 41.0528 53.1437 41.0107 53.1401C40.9284 53.133 40.7936 53.1154 40.6203 53.0697C40.2638 52.9759 39.734 52.759 39.2181 52.2911C38.0648 51.2451 38.0626 50.021 38.0706 49.8564L48.0587 50.3436C48.1334 48.8123 47.8061 46.5799 45.9362 44.8839C44.1787 43.2899 42.0523 43.0945 40.6926 43.1549L41.1367 53.1451ZM38.0671 49.9438L37.6171 64.3438L47.6122 64.6562L48.0622 50.2562L38.0671 49.9438ZM37.6233 64.2064C37.6266 64.1497 37.6832 63.1604 38.6291 62.2145L45.7002 69.2855C47.1795 67.8062 47.536 65.9836 47.606 64.7936L37.6233 64.2064ZM38.6291 62.2145C39.2318 61.6117 39.8406 61.374 40.1202 61.2872C40.4035 61.1992 40.5535 61.202 40.4768 61.2057L40.9525 71.1943C41.9484 71.1469 44.0584 70.9273 45.7002 69.2855L38.6291 62.2145ZM40.6062 61.2012L17.5562 61.7012L17.7731 71.6988L40.8231 71.1988L40.6062 61.2012ZM24.1866 65.0985L34.4366 64.8485L34.1927 54.8515L23.9427 55.1015L24.1866 65.0985ZM39.3147 59.85V54.95H29.3147V59.85H39.3147ZM34.1927 49.9515L23.9427 50.2015L24.1866 60.1985L34.4366 59.9485L34.1927 49.9515ZM19.0646 55.2V60.1H29.0646V55.2H19.0646ZM15.1217 43.3989L31.4717 43.0489L31.2576 33.0511L14.9076 33.4011L15.1217 43.3989ZM31.3647 43.05C31.4151 43.05 31.2522 43.057 30.9603 42.9869C30.6846 42.9208 30.035 42.7243 29.3607 42.1463L35.8686 34.5537C34.1924 33.1169 32.1806 33.05 31.3647 33.05V43.05ZM29.6147 42.35C28.7933 41.734 28.3804 40.9713 28.1922 40.4301C28.0182 39.93 28.0146 39.5715 28.0146 39.5H38.0146C38.0146 38.4414 37.8079 35.995 35.6147 34.35L29.6147 42.35ZM28.0146 39.5V44.2H38.0146V39.5H28.0146ZM28.0146 44.2C28.0146 44.1285 28.0182 43.77 28.1922 43.2699C28.3804 42.7287 28.7933 41.966 29.6147 41.35L35.6146 49.35C37.8079 47.705 38.0146 45.2586 38.0146 44.2H28.0146ZM29.7085 41.2813C30.0245 41.0556 30.3088 40.9182 30.5075 40.8367C30.7083 40.7543 30.8672 40.7104 30.9603 40.6881C31.1341 40.6463 31.197 40.6516 31.0873 40.6577L31.642 50.6423C32.3551 50.6027 34.0413 50.4755 35.5208 49.4187L29.7085 41.2813ZM31.256 40.6512L8.25598 41.1512L8.47332 51.1488L31.4733 50.6488L31.256 40.6512ZM8.13761 41.1552C8.14577 41.1548 8.21371 41.1519 8.32927 41.1628C8.4438 41.1737 8.63458 41.2008 8.87639 41.2734C9.37945 41.4243 10.1385 41.7884 10.769 42.5765L2.9603 48.8235C4.76721 51.0821 7.38988 51.1995 8.59169 51.1448L8.13761 41.1552ZM10.9608 42.8327C11.1738 43.1369 11.2957 43.4025 11.3622 43.5717C11.4296 43.7434 11.4597 43.8662 11.4706 43.9153C11.4896 44.0008 11.4704 43.9526 11.461 43.7078L1.46834 44.0922C1.50526 45.0521 1.63903 46.9538 2.76849 48.5673L10.9608 42.8327ZM11.464 43.8184L11.114 22.3684L1.11531 22.5316L1.46531 43.9816L11.464 43.8184ZM11.111 22.2578C11.1043 22.0853 11.1282 22.1956 11.0639 22.4766C11.0031 22.7426 10.7851 23.5006 10.0502 24.2355L2.97911 17.1645C1.94422 18.1994 1.50949 19.399 1.31536 20.2484C1.11778 21.1128 1.09164 21.948 1.11834 22.6422L11.111 22.2578ZM10.2311 24.0448C9.70821 24.6258 9.12189 24.9264 8.69579 25.0684C8.29977 25.2004 8.03674 25.2 8.01465 25.2V15.2C6.68316 15.2 4.46858 15.4992 2.79817 17.3552L10.2311 24.0448ZM8.01465 25.2H12.8646V15.2H8.01465V25.2ZM12.8646 25.2C12.8631 25.2 12.8002 25.2002 12.6892 25.185C12.5798 25.17 12.3895 25.1354 12.1472 25.0519C11.6495 24.8802 10.8469 24.465 10.2185 23.5673L18.4108 17.8327C16.6968 15.3841 13.9636 15.2 12.8646 15.2V25.2ZM10.5776 24.0218C10.2673 23.6727 10.0798 23.3426 9.97062 23.1112C9.86135 22.8796 9.80833 22.6997 9.78468 22.6077C9.74177 22.4408 9.75993 22.4234 9.76834 22.6422L19.761 22.2578C19.736 21.6099 19.6625 20.8675 19.4696 20.1173C19.2875 19.409 18.9119 18.3459 18.0517 17.3782L10.5776 24.0218ZM9.76526 22.5284L10.0153 38.4784L20.014 38.3216L19.764 22.3716L9.76526 22.5284ZM54.2088 31.15L59.1941 31.5335L59.6216 25.9756L54.0501 26.1525L54.2088 31.15ZM51.0588 31.25L50.9001 26.2525L50.8408 26.2544L50.7814 26.2577L51.0588 31.25ZM49.7588 31L46.2233 34.5355L46.4745 34.7868L46.7588 35L49.7588 31ZM49.7588 24.05L52.665 28.1187L52.7123 28.0849L52.7588 28.05L49.7588 24.05ZM51.0588 23.7L50.9314 18.7016L50.8564 18.7035L50.7814 18.7077L51.0588 23.7ZM58.9088 23.5L59.0361 28.4984L63.9088 28.3742V23.5H58.9088ZM59.2588 21.3L62.165 25.3687L62.2123 25.3349L62.2588 25.3L59.2588 21.3ZM60.5588 20.95L60.4542 15.9511L60.3678 15.9529L60.2814 15.9577L60.5588 20.95ZM72.5088 20.7L72.6134 25.6989L72.6697 25.6977L72.726 25.6953L72.5088 20.7ZM74.0588 21.15L70.1544 24.2735L70.2452 24.3869L70.3423 24.4948L74.0588 21.15ZM74.4088 22.95L79.3932 23.3446L79.3941 23.3335L74.4088 22.95ZM73.4588 34.95L68.4744 34.5554L68.0351 40.1048L73.5996 39.948L73.4588 34.95ZM77.0088 34.85L77.1496 39.848L82.0088 39.7111V34.85H77.0088ZM77.4088 22.2L73.6923 18.8552L73.682 18.8666L73.6717 18.8782L77.4088 22.2ZM85.1088 22.2L81.2045 25.3235L81.2855 25.4248L81.3717 25.5218L85.1088 22.2ZM85.1088 56.55L88.8458 59.8718L88.9321 59.7748L89.0131 59.6735L85.1088 56.55ZM77.4088 56.55L73.5044 59.6735L73.6774 59.8897L73.8733 60.0855L77.4088 56.55ZM77.0088 42.45H82.0088V37.3281L76.8883 37.4515L77.0088 42.45ZM72.8588 42.55L72.7383 37.5515L68.2149 37.6604L67.8731 42.1723L72.8588 42.55ZM71.8588 55.75L76.8441 56.1335L76.8445 56.1277L71.8588 55.75ZM71.4088 57.5L67.462 54.4303L67.3848 54.5296L67.3126 54.6327L71.4088 57.5ZM64.0088 57.5L67.5443 53.9645L64.0088 57.5ZM63.6588 55.75L58.6742 55.3582L58.6735 55.3665L63.6588 55.75ZM65.8088 28.4L70.7934 28.7918L71.23 23.2384L65.6618 23.4022L65.8088 28.4ZM62.4088 28.5L62.2618 23.5022L57.7767 23.6341L57.4242 28.1073L62.4088 28.5ZM60.4588 53.25L55.4742 52.8573L55.4735 52.8665L60.4588 53.25ZM60.0088 55.05L63.9556 58.1197L64.0328 58.0204L64.1049 57.9173L60.0088 55.05ZM52.8588 55.05L49.1423 58.3948L49.3184 58.5904L49.514 58.7665L52.8588 55.05ZM52.5088 53.25L47.5235 52.8665L52.5088 53.25ZM88.3088 21.7L84.5923 18.3552L84.582 18.3666L84.5717 18.3782L88.3088 21.7ZM96.0088 21.7L92.1044 24.8235L92.1855 24.9248L92.2717 25.0218L96.0088 21.7ZM96.0088 56.05L99.7458 59.3718L99.8321 59.2748L99.9131 59.1735L96.0088 56.05ZM88.3088 56.05L84.4044 59.1735L84.5774 59.3897L84.7733 59.5855L88.3088 56.05ZM54.0501 26.1525L50.9001 26.2525L51.2174 36.2475L54.3674 36.1475L54.0501 26.1525ZM50.7814 26.2577C50.754 26.2592 50.9273 26.2446 51.228 26.3025C51.5259 26.3597 52.1212 26.5218 52.7588 27L46.7588 35C48.4722 36.2851 50.4016 36.2942 51.3362 36.2423L50.7814 26.2577ZM53.2943 27.4645C53.9082 28.0783 54.1799 28.726 54.2963 29.125C54.4086 29.5099 54.4088 29.7675 54.4088 29.8H44.4088C44.4088 30.8052 44.5706 32.8829 46.2233 34.5355L53.2943 27.4645ZM54.4088 29.8V25.15H44.4088V29.8H54.4088ZM54.4088 25.15C54.4088 25.1618 54.4135 25.4866 54.2609 25.966C54.1027 26.4634 53.6844 27.3905 52.665 28.1187L46.8526 19.9813C44.4552 21.6938 44.4088 24.4197 44.4088 25.15H54.4088ZM52.7588 28.05C52.2403 28.4389 51.7812 28.5874 51.5837 28.6406C51.3755 28.6966 51.2734 28.6958 51.3361 28.6923L50.7814 18.7077C49.8826 18.7576 48.2278 18.9483 46.7588 20.05L52.7588 28.05ZM51.1861 28.6984L59.0361 28.4984L58.7814 18.5016L50.9314 18.7016L51.1861 28.6984ZM63.9088 23.5V22.4H53.9088V23.5H63.9088ZM63.9088 22.4C63.9088 22.4118 63.9135 22.7366 63.7609 23.216C63.6027 23.7134 63.1844 24.6405 62.165 25.3687L56.3526 17.2313C53.9552 18.9438 53.9088 21.6697 53.9088 22.4H63.9088ZM62.2588 25.3C61.7403 25.6889 61.2812 25.8374 61.0836 25.8906C60.8755 25.9466 60.7734 25.9458 60.8361 25.9423L60.2814 15.9577C59.3826 16.0076 57.7278 16.1983 56.2588 17.3L62.2588 25.3ZM60.6634 25.9489L72.6134 25.6989L72.4042 15.7011L60.4542 15.9511L60.6634 25.9489ZM72.726 25.6953C72.7774 25.693 72.5128 25.7157 72.0772 25.5892C71.6048 25.4521 70.815 25.0992 70.1544 24.2735L77.9631 18.0265C76.1257 15.7298 73.4303 15.6552 72.2916 15.7047L72.726 25.6953ZM70.3423 24.4948C69.7039 23.7855 69.5175 23.0834 69.4632 22.8044C69.4083 22.5219 69.4357 22.4088 69.4235 22.5665L79.3941 23.3335C79.4783 22.2388 79.5436 19.77 77.7753 17.8052L70.3423 24.4948ZM69.4244 22.5554L68.4744 34.5554L78.4432 35.3446L79.3932 23.3446L69.4244 22.5554ZM73.5996 39.948L77.1496 39.848L76.868 29.852L73.318 29.952L73.5996 39.948ZM82.0088 34.85V23.95H72.0088V34.85H82.0088ZM82.0088 23.95C82.0088 23.7403 82.028 23.7801 81.9831 23.9766C81.9473 24.133 81.7792 24.8093 81.1458 25.5218L73.6717 18.8782C72.7717 19.8907 72.4036 21.0087 72.2345 21.7484C72.0562 22.5283 72.0088 23.293 72.0088 23.95H82.0088ZM81.1253 25.5448C80.6023 26.1258 80.016 26.4264 79.5899 26.5684C79.1939 26.7004 78.9309 26.7 78.9088 26.7V16.7C77.5773 16.7 75.3627 16.9992 73.6923 18.8552L81.1253 25.5448ZM78.9088 26.7H83.6088V16.7H78.9088V26.7ZM83.6088 26.7C83.6065 26.7 83.5482 26.7001 83.4454 26.6862C83.3436 26.6725 83.1716 26.6414 82.9527 26.5684C82.5034 26.4187 81.8007 26.0688 81.2045 25.3235L89.0131 19.0765C87.2922 16.9254 84.807 16.7 83.6088 16.7V26.7ZM81.3717 25.5218C80.7384 24.8093 80.5702 24.133 80.5345 23.9766C80.4896 23.7801 80.5088 23.7403 80.5088 23.95H90.5088C90.5088 23.293 90.4613 22.5283 90.2831 21.7484C90.114 21.0087 89.7458 19.8907 88.8458 18.8782L81.3717 25.5218ZM80.5088 23.95V54.75H90.5088V23.95H80.5088ZM80.5088 54.75C80.5088 54.9544 80.4905 54.9333 80.5279 54.7653C80.5592 54.6245 80.6983 54.0593 81.2045 53.4265L89.0131 59.6735C90.4232 57.9109 90.5088 55.7737 90.5088 54.75H80.5088ZM81.3717 53.2282C82.0136 52.506 82.7209 52.2112 83.0971 52.0984C83.4591 51.9897 83.6693 52 83.6088 52V62C84.6798 62 87.09 61.8471 88.8458 59.8718L81.3717 53.2282ZM83.6088 52H78.9088V62H83.6088V52ZM78.9088 52C78.9096 52 78.9567 51.9999 79.0415 52.0105C79.1257 52.021 79.2657 52.0444 79.4455 52.0984C79.8078 52.207 80.3892 52.4593 80.9443 53.0145L73.8733 60.0855C75.5636 61.7758 77.7012 62 78.9088 62V52ZM81.3131 53.4265C81.8193 54.0593 81.9584 54.6245 81.9897 54.7653C82.0271 54.9333 82.0088 54.9544 82.0088 54.75H72.0088C72.0088 55.7737 72.0944 57.9109 73.5044 59.6735L81.3131 53.4265ZM82.0088 54.75V42.45H72.0088V54.75H82.0088ZM76.8883 37.4515L72.7383 37.5515L72.9792 47.5485L77.1292 47.4485L76.8883 37.4515ZM67.8731 42.1723L66.8731 55.3723L76.8445 56.1277L77.8445 42.9277L67.8731 42.1723ZM66.8735 55.3665C66.8537 55.6247 66.8321 55.6769 66.8538 55.5923C66.8663 55.5436 66.9025 55.4133 66.9814 55.2314C67.0585 55.0538 67.2048 54.761 67.462 54.4303L75.3556 60.5697C76.0665 59.6557 76.3818 58.6931 76.5388 58.0827C76.7105 57.4148 76.7973 56.7419 76.8441 56.1335L66.8735 55.3665ZM67.3126 54.6327C67.941 53.7349 68.7436 53.3198 69.2413 53.1481C69.4837 53.0646 69.6739 53.03 69.7833 53.015C69.8943 52.9998 69.9573 53 69.9588 53V63C71.0578 63 73.791 62.8159 75.505 60.3673L67.3126 54.6327ZM69.9588 53H65.5588V63H69.9588V53ZM65.5588 53C65.5873 53 65.8241 53.0012 66.1813 53.1165C66.5625 53.2394 67.071 53.4911 67.5443 53.9645L60.4733 61.0355C62.1153 62.6776 64.1707 63 65.5588 63V53ZM67.5443 53.9645C68.3208 54.741 68.5389 55.5553 68.5992 55.8569C68.6615 56.1686 68.6312 56.3001 68.6441 56.1335L58.6735 55.3665C58.6197 56.0665 58.6144 56.9231 58.7934 57.8181C58.9704 58.703 59.3968 59.959 60.4733 61.0355L67.5443 53.9645ZM68.6434 56.1418L70.7934 28.7918L60.8242 28.0082L58.6742 55.3582L68.6434 56.1418ZM65.6618 23.4022L62.2618 23.5022L62.5558 33.4978L65.9558 33.3978L65.6618 23.4022ZM57.4242 28.1073L55.4742 52.8573L65.4433 53.6427L67.3933 28.8927L57.4242 28.1073ZM55.4735 52.8665C55.4538 53.1229 55.4314 53.1939 55.4456 53.1373C55.4541 53.1033 55.4816 53.0001 55.5431 52.8504C55.6033 52.7037 55.7162 52.4632 55.9126 52.1827L64.1049 57.9173C65.1719 56.3931 65.3705 54.5904 65.4441 53.6335L55.4735 52.8665ZM56.062 51.9803C56.7511 51.0944 57.5733 50.7413 57.9893 50.6122C58.3901 50.4878 58.6275 50.5 58.5588 50.5V60.5C59.5175 60.5 62.1864 60.3943 63.9556 58.1197L56.062 51.9803ZM58.5588 50.5H54.4088V60.5H58.5588V50.5ZM54.4088 50.5C54.4102 50.5 54.453 50.5 54.53 50.5094C54.6068 50.5189 54.731 50.5395 54.8903 50.5858C55.213 50.6795 55.7093 50.8886 56.2036 51.3335L49.514 58.7665C51.1614 60.2491 53.137 60.5 54.4088 60.5V50.5ZM56.5753 51.7052C57.2136 52.4145 57.4001 53.1166 57.4544 53.3956C57.5093 53.6781 57.4819 53.7912 57.4941 53.6335L47.5235 52.8665C47.4393 53.9612 47.374 56.43 49.1423 58.3948L56.5753 51.7052ZM57.4941 53.6335L59.1941 31.5335L49.2235 30.7665L47.5235 52.8665L57.4941 53.6335ZM92.9088 23.45C92.9088 23.2403 92.928 23.2801 92.8831 23.4766C92.8473 23.633 92.6792 24.3093 92.0458 25.0218L84.5717 18.3782C83.6717 19.3907 83.3036 20.5087 83.1345 21.2484C82.9562 22.0283 82.9088 22.793 82.9088 23.45H92.9088ZM92.0253 25.0448C91.5023 25.6258 90.916 25.9264 90.4899 26.0684C90.0939 26.2004 89.8309 26.2 89.8088 26.2V16.2C88.4773 16.2 86.2627 16.4992 84.5923 18.3552L92.0253 25.0448ZM89.8088 26.2H94.5088V16.2H89.8088V26.2ZM94.5088 26.2C94.5065 26.2 94.4482 26.2001 94.3455 26.1862C94.2436 26.1725 94.0716 26.1414 93.8527 26.0684C93.4034 25.9187 92.7007 25.5688 92.1044 24.8235L99.9131 18.5765C98.1922 16.4254 95.7069 16.2 94.5088 16.2V26.2ZM92.2717 25.0218C91.6384 24.3093 91.4702 23.633 91.4345 23.4766C91.3896 23.2801 91.4088 23.2403 91.4088 23.45H101.409C101.409 22.793 101.361 22.0283 101.183 21.2484C101.014 20.5087 100.646 19.3907 99.7458 18.3782L92.2717 25.0218ZM91.4088 23.45V54.25H101.409V23.45H91.4088ZM91.4088 54.25C91.4088 54.4544 91.3905 54.4333 91.4279 54.2653C91.4592 54.1245 91.5983 53.5593 92.1044 52.9265L99.9131 59.1735C101.323 57.4109 101.409 55.2737 101.409 54.25H91.4088ZM92.2717 52.7282C92.9136 52.0061 93.6209 51.7112 93.997 51.5984C94.3591 51.4897 94.5693 51.5 94.5088 51.5V61.5C95.5798 61.5 97.9901 61.3471 99.7458 59.3718L92.2717 52.7282ZM94.5088 51.5H89.8088V61.5H94.5088V51.5ZM89.8088 51.5C89.8096 51.5 89.8567 51.4999 89.9415 51.5105C90.0257 51.521 90.1657 51.5444 90.3455 51.5984C90.7078 51.707 91.2892 51.9593 91.8443 52.5145L84.7733 59.5855C86.4636 61.2758 88.6012 61.5 89.8088 61.5V51.5ZM92.2131 52.9265C92.7193 53.5593 92.8584 54.1245 92.8897 54.2653C92.9271 54.4333 92.9088 54.4544 92.9088 54.25H82.9088C82.9088 55.2737 82.9944 57.4109 84.4044 59.1735L92.2131 52.9265ZM92.9088 54.25V23.45H82.9088V54.25H92.9088Z" fill="#212121" mask="url(#path-1-outside-1_1109_1085)"/>
    </g>
    <defs>
        <filter id="filter0_d_1109_1085" x="6.06445" y="20.2002" width="94.3438" height="50.5498" filterUnits="userSpaceOnUse" color-interpolation-filters="sRGB">
            <feFlood flood-opacity="0" result="BackgroundImageFix"/>
            <feColorMatrix in="SourceAlpha" type="matrix" values="0 0 0 0 0 0 0 0 0 0 0 0 0 0 0 0 0 0 127 0" result="hardAlpha"/>
            <feOffset dx="4" dy="4"/>
            <feComposite in2="hardAlpha" operator="out"/>
            <feColorMatrix type="matrix" values="0 0 0 0 0.0784314 0 0 0 0 0.0941176 0 0 0 0 0.121569 0 0 0 1 0"/>
            <feBlend mode="normal" in2="BackgroundImageFix" result="effect1_dropShadow_1109_1085"/>
            <feBlend mode="normal" in="SourceGraphic" in2="effect1_dropShadow_1109_1085" result="shape"/>
        </filter>
    </defs>
</svg>
