<svg width="84" height="28" viewBox="0 0 84 28" fill="none" xmlns="http://www.w3.org/2000/svg">
    <g filter="url(#filter0_d_1528_1091)">
        <mask id="path-1-outside-1_1528_1091" maskUnits="userSpaceOnUse" x="2" y="1" width="79" height="26" fill="black">
            <rect fill="white" x="2" y="1" width="79" height="26"/>
            <path d="M14.5776 3.808C14.9149 3.79333 15.1423 3.85933 15.2596 4.006C15.3916 4.15267 15.4429 4.41667 15.4136 4.798L15.3476 5.502L17.6796 5.458V5.018C17.6796 4.63667 17.7383 4.38 17.8556 4.248C17.9876 4.10133 18.2076 4.028 18.5156 4.028H20.5836C20.9063 4.028 21.1263 4.10133 21.2436 4.248C21.3609 4.38 21.4196 4.63667 21.4196 5.018V13.51C21.4196 13.8913 21.3609 14.1553 21.2436 14.302C21.1263 14.434 20.9063 14.5 20.5836 14.5H18.5156C18.2076 14.5 17.9876 14.434 17.8556 14.302C17.7383 14.1553 17.6796 13.8913 17.6796 13.51V12.982L14.7756 13.026L14.7316 13.73C14.7023 14.082 14.6363 14.3093 14.5336 14.412C14.4309 14.5147 14.2183 14.566 13.8956 14.566H11.5856C11.2923 14.566 11.0943 14.522 10.9916 14.434C10.8889 14.3313 10.8523 14.126 10.8816 13.818L11.3876 7.152L4.87559 7.372C4.61159 7.38667 4.42092 7.35 4.30359 7.262C4.20092 7.15933 4.14959 6.98333 4.14959 6.734V4.666C4.14959 4.41667 4.20092 4.25533 4.30359 4.182C4.42092 4.094 4.61159 4.04267 4.87559 4.028L14.5776 3.808ZM12.1576 21.122V21.738L19.7696 21.518C20.0336 21.5033 20.2096 21.5473 20.2976 21.65C20.4003 21.7527 20.4516 21.9287 20.4516 22.178V23.41C20.4516 23.6593 20.4003 23.828 20.2976 23.916C20.2096 24.004 20.0336 24.048 19.7696 24.048L9.34159 24.268C9.00425 24.2827 8.78425 24.2313 8.68159 24.114C8.57892 23.9967 8.52025 23.7693 8.50559 23.432L8.37359 19.956C8.35892 19.6187 8.41025 19.3987 8.52759 19.296C8.64492 19.1933 8.87225 19.1273 9.20959 19.098L17.1516 18.68V17.998L8.50559 18.218C8.28559 18.218 8.13159 18.196 8.04359 18.152C7.97025 18.108 7.93359 18.0127 7.93359 17.866V16.106C7.93359 15.9447 7.97025 15.842 8.04359 15.798C8.13159 15.7393 8.28559 15.71 8.50559 15.71L20.1436 15.49C20.4809 15.4753 20.7083 15.5267 20.8256 15.644C20.9576 15.7613 21.0089 15.9887 20.9796 16.326L20.7816 19.912C20.7523 20.2347 20.6863 20.44 20.5836 20.528C20.4956 20.6307 20.2829 20.6967 19.9456 20.726L12.1576 21.122ZM15.0176 9.902L17.6796 9.836V8.56L15.1276 8.626L15.0176 9.902ZM30.745 7.592L24.233 7.768C23.969 7.78267 23.7783 7.746 23.661 7.658C23.5583 7.55533 23.507 7.37933 23.507 7.13V4.886C23.507 4.63667 23.5583 4.47533 23.661 4.402C23.7783 4.314 23.969 4.26267 24.233 4.248L33.935 4.028C34.2723 4.01333 34.4997 4.07933 34.617 4.226C34.749 4.37267 34.8003 4.63667 34.771 5.018L34.287 15.644C34.2723 15.8787 34.2063 16.04 34.089 16.128C33.9717 16.216 33.8103 16.26 33.605 16.26H31.053C30.8477 16.26 30.679 16.2233 30.547 16.15C30.415 16.062 30.3563 15.8933 30.371 15.644L30.745 7.592ZM36.157 5.458C36.157 5.07667 36.2157 4.82 36.333 4.688C36.465 4.54133 36.685 4.468 36.993 4.468H39.061C39.3837 4.468 39.6037 4.54133 39.721 4.688C39.8383 4.82 39.897 5.07667 39.897 5.458V10.496L41.371 10.452C41.635 10.4373 41.8183 10.4813 41.921 10.584C42.0383 10.672 42.097 10.8407 42.097 11.09V13.158C42.097 13.4073 42.0383 13.576 41.921 13.664C41.8183 13.7373 41.635 13.7813 41.371 13.796L39.897 13.84V19.01C39.897 19.3913 39.8383 19.6553 39.721 19.802C39.6037 19.934 39.3837 20 39.061 20H36.993C36.685 20 36.465 19.934 36.333 19.802C36.2157 19.6553 36.157 19.3913 36.157 19.01V5.458ZM25.465 17.778V11.64C25.465 11.2587 25.5237 11.002 25.641 10.87C25.773 10.7233 25.993 10.65 26.301 10.65H28.369C28.6917 10.65 28.9117 10.7233 29.029 10.87C29.1463 11.002 29.205 11.2587 29.205 11.64V17.69L34.331 17.58C34.595 17.58 34.7783 17.624 34.881 17.712C34.9983 17.8 35.057 17.9687 35.057 18.218V20.286C35.057 20.5353 34.9983 20.704 34.881 20.792C34.7783 20.88 34.595 20.924 34.331 20.924L24.343 21.144C24.079 21.144 23.8883 21.1 23.771 21.012C23.6683 20.924 23.617 20.7553 23.617 20.506V18.438C23.617 18.1887 23.6683 18.02 23.771 17.932C23.8883 17.844 24.079 17.8 24.343 17.8L25.465 17.778ZM53.4913 16.282V17.668L58.1333 17.58C58.3973 17.58 58.5806 17.624 58.6833 17.712C58.8006 17.8 58.8593 17.9687 58.8593 18.218V20.286C58.8593 20.5353 58.8006 20.704 58.6833 20.792C58.5806 20.88 58.3973 20.924 58.1333 20.924L45.1093 21.144C44.8453 21.144 44.6546 21.1 44.5373 21.012C44.4346 20.924 44.3833 20.7553 44.3833 20.506V18.438C44.3833 18.1887 44.4346 18.02 44.5373 17.932C44.6546 17.844 44.8453 17.8 45.1093 17.8L49.7513 17.734V16.348L45.3953 16.414C45.0873 16.414 44.8746 16.3333 44.7573 16.172C44.64 16.0107 44.574 15.7613 44.5593 15.424L44.4053 5.238C44.3906 4.85667 44.442 4.6 44.5593 4.468C44.6913 4.32133 44.9186 4.248 45.2413 4.248H47.3093C47.6173 4.248 47.83 4.32133 47.9473 4.468C48.0793 4.6 48.1453 4.85667 48.1453 5.238V7.328L54.9433 7.174L54.9873 5.018C54.9873 4.63667 55.046 4.38 55.1633 4.248C55.2953 4.10133 55.5153 4.028 55.8233 4.028H57.8913C58.214 4.028 58.434 4.10133 58.5513 4.248C58.6833 4.38 58.742 4.63667 58.7273 5.018L58.4193 15.204C58.4046 15.5413 58.3386 15.7907 58.2213 15.952C58.104 16.1133 57.8913 16.194 57.5833 16.194L53.4913 16.282ZM54.8773 12.96L54.8993 10.408L48.1673 10.562V13.07L54.8773 12.96ZM74.871 5.458C74.871 5.07667 74.9297 4.82 75.047 4.688C75.179 4.54133 75.399 4.468 75.707 4.468H77.775C78.0977 4.468 78.3177 4.54133 78.435 4.688C78.5523 4.82 78.611 5.07667 78.611 5.458V19.01C78.611 19.3913 78.5523 19.6553 78.435 19.802C78.3177 19.934 78.0977 20 77.775 20H75.707C75.399 20 75.179 19.934 75.047 19.802C74.9297 19.6553 74.871 19.3913 74.871 19.01V5.458ZM69.129 7.438L62.067 7.592C61.803 7.592 61.6123 7.548 61.495 7.46C61.3923 7.372 61.341 7.20333 61.341 6.954V4.886C61.341 4.63667 61.3923 4.468 61.495 4.38C61.6123 4.292 61.803 4.248 62.067 4.248L72.209 4.028C72.5463 4.01333 72.7737 4.07933 72.891 4.226C73.023 4.37267 73.0743 4.63667 73.045 5.018L71.923 19.45C71.8937 19.8313 71.8277 20.088 71.725 20.22C71.6223 20.3667 71.4097 20.44 71.087 20.44H69.041C68.733 20.44 68.5057 20.3667 68.359 20.22C68.227 20.088 68.1757 19.8313 68.205 19.45L69.129 7.438Z"/>
        </mask>
        <path d="M14.5776 3.808C14.9149 3.79333 15.1423 3.85933 15.2596 4.006C15.3916 4.15267 15.4429 4.41667 15.4136 4.798L15.3476 5.502L17.6796 5.458V5.018C17.6796 4.63667 17.7383 4.38 17.8556 4.248C17.9876 4.10133 18.2076 4.028 18.5156 4.028H20.5836C20.9063 4.028 21.1263 4.10133 21.2436 4.248C21.3609 4.38 21.4196 4.63667 21.4196 5.018V13.51C21.4196 13.8913 21.3609 14.1553 21.2436 14.302C21.1263 14.434 20.9063 14.5 20.5836 14.5H18.5156C18.2076 14.5 17.9876 14.434 17.8556 14.302C17.7383 14.1553 17.6796 13.8913 17.6796 13.51V12.982L14.7756 13.026L14.7316 13.73C14.7023 14.082 14.6363 14.3093 14.5336 14.412C14.4309 14.5147 14.2183 14.566 13.8956 14.566H11.5856C11.2923 14.566 11.0943 14.522 10.9916 14.434C10.8889 14.3313 10.8523 14.126 10.8816 13.818L11.3876 7.152L4.87559 7.372C4.61159 7.38667 4.42092 7.35 4.30359 7.262C4.20092 7.15933 4.14959 6.98333 4.14959 6.734V4.666C4.14959 4.41667 4.20092 4.25533 4.30359 4.182C4.42092 4.094 4.61159 4.04267 4.87559 4.028L14.5776 3.808ZM12.1576 21.122V21.738L19.7696 21.518C20.0336 21.5033 20.2096 21.5473 20.2976 21.65C20.4003 21.7527 20.4516 21.9287 20.4516 22.178V23.41C20.4516 23.6593 20.4003 23.828 20.2976 23.916C20.2096 24.004 20.0336 24.048 19.7696 24.048L9.34159 24.268C9.00425 24.2827 8.78425 24.2313 8.68159 24.114C8.57892 23.9967 8.52025 23.7693 8.50559 23.432L8.37359 19.956C8.35892 19.6187 8.41025 19.3987 8.52759 19.296C8.64492 19.1933 8.87225 19.1273 9.20959 19.098L17.1516 18.68V17.998L8.50559 18.218C8.28559 18.218 8.13159 18.196 8.04359 18.152C7.97025 18.108 7.93359 18.0127 7.93359 17.866V16.106C7.93359 15.9447 7.97025 15.842 8.04359 15.798C8.13159 15.7393 8.28559 15.71 8.50559 15.71L20.1436 15.49C20.4809 15.4753 20.7083 15.5267 20.8256 15.644C20.9576 15.7613 21.0089 15.9887 20.9796 16.326L20.7816 19.912C20.7523 20.2347 20.6863 20.44 20.5836 20.528C20.4956 20.6307 20.2829 20.6967 19.9456 20.726L12.1576 21.122ZM15.0176 9.902L17.6796 9.836V8.56L15.1276 8.626L15.0176 9.902ZM30.745 7.592L24.233 7.768C23.969 7.78267 23.7783 7.746 23.661 7.658C23.5583 7.55533 23.507 7.37933 23.507 7.13V4.886C23.507 4.63667 23.5583 4.47533 23.661 4.402C23.7783 4.314 23.969 4.26267 24.233 4.248L33.935 4.028C34.2723 4.01333 34.4997 4.07933 34.617 4.226C34.749 4.37267 34.8003 4.63667 34.771 5.018L34.287 15.644C34.2723 15.8787 34.2063 16.04 34.089 16.128C33.9717 16.216 33.8103 16.26 33.605 16.26H31.053C30.8477 16.26 30.679 16.2233 30.547 16.15C30.415 16.062 30.3563 15.8933 30.371 15.644L30.745 7.592ZM36.157 5.458C36.157 5.07667 36.2157 4.82 36.333 4.688C36.465 4.54133 36.685 4.468 36.993 4.468H39.061C39.3837 4.468 39.6037 4.54133 39.721 4.688C39.8383 4.82 39.897 5.07667 39.897 5.458V10.496L41.371 10.452C41.635 10.4373 41.8183 10.4813 41.921 10.584C42.0383 10.672 42.097 10.8407 42.097 11.09V13.158C42.097 13.4073 42.0383 13.576 41.921 13.664C41.8183 13.7373 41.635 13.7813 41.371 13.796L39.897 13.84V19.01C39.897 19.3913 39.8383 19.6553 39.721 19.802C39.6037 19.934 39.3837 20 39.061 20H36.993C36.685 20 36.465 19.934 36.333 19.802C36.2157 19.6553 36.157 19.3913 36.157 19.01V5.458ZM25.465 17.778V11.64C25.465 11.2587 25.5237 11.002 25.641 10.87C25.773 10.7233 25.993 10.65 26.301 10.65H28.369C28.6917 10.65 28.9117 10.7233 29.029 10.87C29.1463 11.002 29.205 11.2587 29.205 11.64V17.69L34.331 17.58C34.595 17.58 34.7783 17.624 34.881 17.712C34.9983 17.8 35.057 17.9687 35.057 18.218V20.286C35.057 20.5353 34.9983 20.704 34.881 20.792C34.7783 20.88 34.595 20.924 34.331 20.924L24.343 21.144C24.079 21.144 23.8883 21.1 23.771 21.012C23.6683 20.924 23.617 20.7553 23.617 20.506V18.438C23.617 18.1887 23.6683 18.02 23.771 17.932C23.8883 17.844 24.079 17.8 24.343 17.8L25.465 17.778ZM53.4913 16.282V17.668L58.1333 17.58C58.3973 17.58 58.5806 17.624 58.6833 17.712C58.8006 17.8 58.8593 17.9687 58.8593 18.218V20.286C58.8593 20.5353 58.8006 20.704 58.6833 20.792C58.5806 20.88 58.3973 20.924 58.1333 20.924L45.1093 21.144C44.8453 21.144 44.6546 21.1 44.5373 21.012C44.4346 20.924 44.3833 20.7553 44.3833 20.506V18.438C44.3833 18.1887 44.4346 18.02 44.5373 17.932C44.6546 17.844 44.8453 17.8 45.1093 17.8L49.7513 17.734V16.348L45.3953 16.414C45.0873 16.414 44.8746 16.3333 44.7573 16.172C44.64 16.0107 44.574 15.7613 44.5593 15.424L44.4053 5.238C44.3906 4.85667 44.442 4.6 44.5593 4.468C44.6913 4.32133 44.9186 4.248 45.2413 4.248H47.3093C47.6173 4.248 47.83 4.32133 47.9473 4.468C48.0793 4.6 48.1453 4.85667 48.1453 5.238V7.328L54.9433 7.174L54.9873 5.018C54.9873 4.63667 55.046 4.38 55.1633 4.248C55.2953 4.10133 55.5153 4.028 55.8233 4.028H57.8913C58.214 4.028 58.434 4.10133 58.5513 4.248C58.6833 4.38 58.742 4.63667 58.7273 5.018L58.4193 15.204C58.4046 15.5413 58.3386 15.7907 58.2213 15.952C58.104 16.1133 57.8913 16.194 57.5833 16.194L53.4913 16.282ZM54.8773 12.96L54.8993 10.408L48.1673 10.562V13.07L54.8773 12.96ZM74.871 5.458C74.871 5.07667 74.9297 4.82 75.047 4.688C75.179 4.54133 75.399 4.468 75.707 4.468H77.775C78.0977 4.468 78.3177 4.54133 78.435 4.688C78.5523 4.82 78.611 5.07667 78.611 5.458V19.01C78.611 19.3913 78.5523 19.6553 78.435 19.802C78.3177 19.934 78.0977 20 77.775 20H75.707C75.399 20 75.179 19.934 75.047 19.802C74.9297 19.6553 74.871 19.3913 74.871 19.01V5.458ZM69.129 7.438L62.067 7.592C61.803 7.592 61.6123 7.548 61.495 7.46C61.3923 7.372 61.341 7.20333 61.341 6.954V4.886C61.341 4.63667 61.3923 4.468 61.495 4.38C61.6123 4.292 61.803 4.248 62.067 4.248L72.209 4.028C72.5463 4.01333 72.7737 4.07933 72.891 4.226C73.023 4.37267 73.0743 4.63667 73.045 5.018L71.923 19.45C71.8937 19.8313 71.8277 20.088 71.725 20.22C71.6223 20.3667 71.4097 20.44 71.087 20.44H69.041C68.733 20.44 68.5057 20.3667 68.359 20.22C68.227 20.088 68.1757 19.8313 68.205 19.45L69.129 7.438Z" fill="white"/>
        <path d="M14.5776 3.808L14.6229 5.80748L14.6437 5.80701L14.6645 5.80611L14.5776 3.808ZM15.2596 4.006L13.6979 5.25539L13.7341 5.30075L13.773 5.34392L15.2596 4.006ZM15.4136 4.798L17.4049 4.98468L17.4064 4.96805L17.4077 4.9514L15.4136 4.798ZM15.3476 5.502L13.3563 5.31532L13.1474 7.54387L15.3853 7.50164L15.3476 5.502ZM17.6796 5.458L17.7173 7.45764L19.6796 7.42062V5.458H17.6796ZM17.8556 4.248L16.369 2.91004L16.3608 2.91927L17.8556 4.248ZM21.2436 4.248L19.6819 5.49739L19.7143 5.53793L19.7488 5.57672L21.2436 4.248ZM21.2436 14.302L22.7384 15.6307L22.7729 15.5919L22.8053 15.5514L21.2436 14.302ZM17.8556 14.302L16.2938 15.5514L16.363 15.6379L16.4414 15.7162L17.8556 14.302ZM17.6796 12.982H19.6796V10.9515L17.6493 10.9822L17.6796 12.982ZM14.7756 13.026L14.7453 11.0262L12.8949 11.0543L12.7795 12.9012L14.7756 13.026ZM14.7316 13.73L16.7247 13.8961L16.7264 13.8754L16.7277 13.8548L14.7316 13.73ZM14.5336 14.412L13.1194 12.9978L13.1194 12.9978L14.5336 14.412ZM10.9916 14.434L9.57737 15.8482L9.63168 15.9025L9.69 15.9525L10.9916 14.434ZM10.8816 13.818L12.8726 14.0076L12.8744 13.9885L12.8759 13.9694L10.8816 13.818ZM11.3876 7.152L13.3818 7.30338L13.5508 5.07778L11.3201 5.15314L11.3876 7.152ZM4.87559 7.372L4.80806 5.37314L4.78634 5.37387L4.76465 5.37508L4.87559 7.372ZM4.30359 7.262L2.88937 8.67622L2.98988 8.77672L3.10358 8.86199L4.30359 7.262ZM4.30359 4.182L5.46606 5.80947L5.48498 5.79595L5.50358 5.782L4.30359 4.182ZM4.87559 4.028L4.83025 2.02851L4.79742 2.02926L4.76465 2.03108L4.87559 4.028ZM12.1576 21.122L12.056 19.1246L10.1576 19.2211V21.122H12.1576ZM12.1576 21.738H10.1576V23.7966L12.2154 23.7372L12.1576 21.738ZM19.7696 21.518L19.8274 23.5172L19.854 23.5164L19.8805 23.5149L19.7696 21.518ZM20.2976 21.65L18.7791 22.9516L18.8291 23.0099L18.8834 23.0642L20.2976 21.65ZM20.2976 23.916L18.996 22.3975L18.9377 22.4475L18.8834 22.5018L20.2976 23.916ZM19.7696 24.048V22.048H19.7485L19.7274 22.0484L19.7696 24.048ZM9.34159 24.268L9.2994 22.2684L9.27705 22.2689L9.25471 22.2699L9.34159 24.268ZM8.68159 24.114L7.17643 25.431V25.431L8.68159 24.114ZM8.50558 23.432L6.507 23.5079L6.50747 23.5189L8.50558 23.432ZM8.37358 19.956L10.3722 19.8801L10.3717 19.8691L8.37358 19.956ZM8.52759 19.296L7.21058 17.7908H7.21058L8.52759 19.296ZM9.20959 19.098L9.10447 17.1008L9.07036 17.1026L9.03633 17.1055L9.20959 19.098ZM17.1516 18.68L17.2567 20.6772L19.1516 20.5775V18.68H17.1516ZM17.1516 17.998H19.1516V15.9465L17.1007 15.9986L17.1516 17.998ZM8.50558 18.218V20.218H8.53103L8.55646 20.2174L8.50558 18.218ZM8.04359 18.152L7.0146 19.867L7.08046 19.9065L7.14916 19.9409L8.04359 18.152ZM8.04359 15.798L9.07258 17.513L9.11339 17.4885L9.15298 17.4621L8.04359 15.798ZM8.50558 15.71V17.71H8.52449L8.54339 17.7096L8.50558 15.71ZM20.1436 15.49L20.1814 17.4896L20.2059 17.4892L20.2305 17.4881L20.1436 15.49ZM20.8256 15.644L19.4114 17.0582L19.4529 17.0998L19.4969 17.1388L20.8256 15.644ZM20.9796 16.326L18.9871 16.1527L18.9844 16.1842L18.9826 16.2157L20.9796 16.326ZM20.7816 19.912L22.7734 20.0931L22.7766 20.0577L22.7785 20.0223L20.7816 19.912ZM20.5836 20.528L19.282 19.0095L19.1652 19.1096L19.0651 19.2264L20.5836 20.528ZM19.9456 20.726L20.0471 22.7234L20.083 22.7216L20.1188 22.7185L19.9456 20.726ZM15.0176 9.902L13.025 9.73022L12.833 11.9568L15.0672 11.9014L15.0176 9.902ZM17.6796 9.836L17.7292 11.8354L19.6796 11.787V9.836H17.6796ZM17.6796 8.56H19.6796V6.50761L17.6279 6.56067L17.6796 8.56ZM15.1276 8.626L15.0759 6.62667L13.2885 6.67289L13.135 8.45422L15.1276 8.626ZM14.6645 5.80611C14.7004 5.80455 14.6074 5.81478 14.4435 5.76719C14.2648 5.71532 13.9567 5.57901 13.6979 5.25539L16.8213 2.75661C16.0757 1.82457 14.9768 1.78875 14.4907 1.80989L14.6645 5.80611ZM13.773 5.34392C13.5236 5.06687 13.4532 4.79537 13.4339 4.69574C13.4142 4.59475 13.4257 4.56418 13.4195 4.6446L17.4077 4.9514C17.444 4.47887 17.4655 3.46734 16.7462 2.66807L13.773 5.34392ZM13.4223 4.61132L13.3563 5.31532L17.3389 5.68868L17.4049 4.98468L13.4223 4.61132ZM15.3853 7.50164L17.7173 7.45764L17.6419 3.45836L15.3099 3.50236L15.3853 7.50164ZM19.6796 5.458V5.018H15.6796V5.458H19.6796ZM19.6796 5.018C19.6796 4.91679 19.6886 4.91819 19.6733 4.98515C19.6648 5.02241 19.6447 5.09772 19.6005 5.19539C19.5561 5.29343 19.4793 5.43178 19.3504 5.57673L16.3608 2.91927C15.9954 3.33027 15.8442 3.78631 15.7739 4.09385C15.6999 4.41747 15.6796 4.73788 15.6796 5.018H19.6796ZM19.3422 5.58593C19.139 5.81167 18.9125 5.92689 18.752 5.98037C18.675 6.00603 18.6141 6.01748 18.5762 6.02273C18.5383 6.028 18.5168 6.028 18.5156 6.028V2.028C17.955 2.028 17.0492 2.15433 16.369 2.91007L19.3422 5.58593ZM18.5156 6.028H20.5836V2.028H18.5156V6.028ZM20.5836 6.028C20.6076 6.028 20.5145 6.0325 20.3581 5.98037C20.1884 5.92381 19.915 5.78887 19.6819 5.49739L22.8053 2.99861C22.1063 2.12482 21.0922 2.028 20.5836 2.028V6.028ZM19.7488 5.57672C19.6199 5.43177 19.5431 5.29342 19.4987 5.19539C19.4544 5.09772 19.4344 5.0224 19.4259 4.98515C19.4106 4.91819 19.4196 4.91678 19.4196 5.018H23.4196C23.4196 4.73788 23.3993 4.41747 23.3253 4.09385C23.255 3.78631 23.1037 3.33028 22.7384 2.91928L19.7488 5.57672ZM19.4196 5.018V13.51H23.4196V5.018H19.4196ZM19.4196 13.51C19.4196 13.6091 19.4109 13.6153 19.4232 13.5601C19.4331 13.5158 19.4847 13.299 19.6818 13.0526L22.8053 15.5514C23.38 14.833 23.4196 13.9541 23.4196 13.51H19.4196ZM19.7488 12.9733C20.0002 12.6904 20.2754 12.577 20.4159 12.5348C20.5507 12.4944 20.6224 12.5 20.5836 12.5V16.5C21.0413 16.5 22.0254 16.4328 22.7384 15.6307L19.7488 12.9733ZM20.5836 12.5H18.5156V16.5H20.5836V12.5ZM18.5156 12.5C18.4944 12.5 18.5667 12.4966 18.6943 12.5348C18.8292 12.5753 19.0537 12.6717 19.2698 12.8878L16.4414 15.7162C17.1295 16.4043 18.0046 16.5 18.5156 16.5V12.5ZM19.4173 13.0526C19.6145 13.299 19.6661 13.5158 19.676 13.5601C19.6882 13.6153 19.6796 13.6091 19.6796 13.51H15.6796C15.6796 13.9541 15.7192 14.833 16.2938 15.5514L19.4173 13.0526ZM19.6796 13.51V12.982H15.6796V13.51H19.6796ZM17.6493 10.9822L14.7453 11.0262L14.8059 15.0258L17.7099 14.9818L17.6493 10.9822ZM12.7795 12.9012L12.7355 13.6052L16.7277 13.8548L16.7717 13.1508L12.7795 12.9012ZM12.7385 13.5639C12.73 13.6653 12.722 13.6668 12.7394 13.6069C12.749 13.5737 12.773 13.499 12.8228 13.4014C12.8719 13.3053 12.9629 13.1542 13.1194 12.9978L15.9478 15.8262C16.3427 15.4313 16.5066 14.9775 16.5808 14.7221C16.6642 14.4349 16.7038 14.1467 16.7247 13.8961L12.7385 13.5639ZM13.1194 12.9978C13.4283 12.6889 13.7448 12.6034 13.8278 12.5833C13.929 12.5589 13.966 12.566 13.8956 12.566V16.566C14.1478 16.566 14.4525 16.5474 14.7664 16.4717C15.0621 16.4003 15.5362 16.2378 15.9478 15.8262L13.1194 12.9978ZM13.8956 12.566H11.5856V16.566H13.8956V12.566ZM11.5856 12.566C11.5262 12.566 11.5599 12.5604 11.6509 12.5806C11.725 12.5971 12.0014 12.6654 12.2932 12.9155L9.69 15.9525C10.0844 16.2906 10.5111 16.4249 10.7832 16.4854C11.0723 16.5496 11.3516 16.566 11.5856 16.566V12.566ZM12.4058 13.0198C12.7448 13.3587 12.8325 13.72 12.8559 13.8514C12.8809 13.9909 12.8677 14.0592 12.8726 14.0076L8.89059 13.6284C8.86618 13.8848 8.85666 14.2098 8.91823 14.5546C8.97837 14.8914 9.13575 15.4066 9.57737 15.8482L12.4058 13.0198ZM12.8759 13.9694L13.3818 7.30338L9.39332 7.00062L8.88733 13.6666L12.8759 13.9694ZM11.3201 5.15314L4.80806 5.37314L4.94312 9.37086L11.4551 9.15086L11.3201 5.15314ZM4.76465 5.37508C4.74169 5.37635 4.80067 5.37002 4.91228 5.39149C5.02276 5.41273 5.25389 5.47472 5.50359 5.662L3.10358 8.86199C3.79963 9.38404 4.5887 9.39102 4.98653 9.36892L4.76465 5.37508ZM5.7178 5.84778C5.95868 6.08867 6.06387 6.34141 6.10809 6.493C6.15066 6.63898 6.14959 6.73232 6.14959 6.734H2.14959C2.14959 7.15876 2.21899 8.00583 2.88937 8.67622L5.7178 5.84778ZM6.14959 6.734V4.666H2.14959V6.734H6.14959ZM6.14959 4.666C6.14959 4.67042 6.14946 4.69799 6.14377 4.74357C6.1382 4.78814 6.12537 4.86563 6.09394 4.96441C6.03297 5.15602 5.86918 5.52152 5.46606 5.80947L3.14111 2.55453C2.17281 3.24618 2.14959 4.35123 2.14959 4.666H6.14959ZM5.50358 5.782C5.30153 5.93354 5.12489 5.98979 5.05453 6.00873C4.97993 6.02882 4.94944 6.02698 4.98653 6.02492L4.76465 2.03108C4.38111 2.05239 3.70185 2.1333 3.10359 2.582L5.50358 5.782ZM4.92093 6.02749L14.6229 5.80748L14.5322 1.80851L4.83025 2.02851L4.92093 6.02749ZM10.1576 21.122V21.738H14.1576V21.122H10.1576ZM12.2154 23.7372L19.8274 23.5172L19.7118 19.5188L12.0998 19.7388L12.2154 23.7372ZM19.8805 23.5149C19.8799 23.515 19.8744 23.5152 19.8645 23.5152C19.8546 23.5152 19.8389 23.515 19.8181 23.5136C19.7786 23.5109 19.7075 23.5035 19.6145 23.4803C19.4355 23.4355 19.0834 23.3067 18.7791 22.9516L21.8161 20.3484C21.0666 19.474 20.0009 19.5021 19.6586 19.5211L19.8805 23.5149ZM18.8834 23.0642C18.6425 22.8233 18.5373 22.5706 18.4931 22.419C18.4505 22.273 18.4516 22.1797 18.4516 22.178H22.4516C22.4516 21.7532 22.3822 20.9062 21.7118 20.2358L18.8834 23.0642ZM18.4516 22.178V23.41H22.4516V22.178H18.4516ZM18.4516 23.41C18.4516 23.4052 18.4518 23.3798 18.4569 23.3381C18.4619 23.297 18.4732 23.2284 18.4997 23.1412C18.5517 22.9703 18.6829 22.6658 18.996 22.3975L21.5992 25.4345C22.402 24.7464 22.4516 23.7876 22.4516 23.41H18.4516ZM18.8834 22.5018C19.1871 22.198 19.502 22.1028 19.6145 22.0747C19.7391 22.0436 19.8051 22.048 19.7696 22.048V26.048C19.9981 26.048 20.284 26.0304 20.5847 25.9553C20.8732 25.8832 21.3201 25.722 21.7118 25.3302L18.8834 22.5018ZM19.7274 22.0484L9.2994 22.2684L9.38377 26.2676L19.8118 26.0476L19.7274 22.0484ZM9.25471 22.2699C9.18757 22.2728 9.24652 22.2621 9.37804 22.2928C9.50024 22.3213 9.86375 22.4279 10.1867 22.797L7.17643 25.431C7.60209 25.9175 8.12694 26.1083 8.46913 26.1882C8.82065 26.2702 9.15827 26.2779 9.42846 26.2661L9.25471 22.2699ZM10.1867 22.797C10.3083 22.9359 10.3817 23.0666 10.4242 23.1575C10.4669 23.2487 10.4878 23.3195 10.4971 23.3557C10.5142 23.4217 10.5074 23.4294 10.5037 23.3451L6.50747 23.5189C6.51847 23.7719 6.54834 24.0619 6.62403 24.3553C6.69529 24.6314 6.84177 25.0485 7.17643 25.431L10.1867 22.797ZM10.5041 23.3561L10.3721 19.8801L6.37503 20.0319L6.50703 23.5079L10.5041 23.3561ZM10.3717 19.8691C10.3688 19.802 10.3795 19.8609 10.3488 19.9925C10.3203 20.1146 10.2137 20.4782 9.8446 20.8012L7.21058 17.7908C6.72412 18.2165 6.53325 18.7414 6.4534 19.0835C6.37138 19.4351 6.36373 19.7727 6.37547 20.0429L10.3717 19.8691ZM9.8446 20.8012C9.7151 20.9145 9.59555 20.983 9.51532 21.0223C9.43439 21.0619 9.37292 21.0817 9.34371 21.0902C9.29111 21.1055 9.2938 21.0982 9.38285 21.0905L9.03633 17.1055C8.78804 17.1271 8.50839 17.1675 8.22847 17.2488C7.96622 17.3249 7.57305 17.4737 7.21058 17.7908L9.8446 20.8012ZM9.3147 21.0952L17.2567 20.6772L17.0465 16.6828L9.10447 17.1008L9.3147 21.0952ZM19.1516 18.68V17.998H15.1516V18.68H19.1516ZM17.1007 15.9986L8.45471 16.2186L8.55646 20.2174L17.2025 19.9974L17.1007 15.9986ZM8.50558 16.218C8.45483 16.218 8.46174 16.215 8.50793 16.2216C8.53291 16.2252 8.58215 16.2333 8.6482 16.2513C8.71223 16.2688 8.81528 16.3018 8.93801 16.3631L7.14916 19.9409C7.69301 20.2128 8.26806 20.218 8.50558 20.218V16.218ZM9.07258 16.437C9.489 16.6869 9.71815 17.0445 9.82778 17.3295C9.92701 17.5875 9.93359 17.792 9.93359 17.866H5.93359C5.93359 18.2041 6.00207 19.2595 7.0146 19.867L9.07258 16.437ZM9.93359 17.866V16.106H5.93359V17.866H9.93359ZM9.93359 16.106C9.93359 16.1551 9.93089 16.339 9.84457 16.5807C9.75087 16.843 9.53131 17.2377 9.07258 17.513L7.01459 14.083C5.95729 14.7174 5.93359 15.8471 5.93359 16.106H9.93359ZM9.15298 17.4621C8.89409 17.6347 8.66967 17.6833 8.59931 17.6967C8.51477 17.7128 8.47517 17.71 8.50558 17.71V13.71C8.23635 13.71 7.55269 13.7216 6.93419 14.1339L9.15298 17.4621ZM8.54339 17.7096L20.1814 17.4896L20.1058 13.4904L8.46778 13.7104L8.54339 17.7096ZM20.2305 17.4881C20.2938 17.4854 20.2442 17.4949 20.1266 17.4684C20.0142 17.443 19.7074 17.3543 19.4114 17.0582L22.2398 14.2298C21.8264 13.8164 21.3473 13.6433 21.0076 13.5666C20.6627 13.4887 20.3307 13.48 20.0567 13.4919L20.2305 17.4881ZM19.4969 17.1388C19.1641 16.843 19.0494 16.5079 19.0122 16.343C18.9769 16.1868 18.9912 16.1052 18.9871 16.1527L22.9721 16.4993C23.0095 16.0684 23.0523 14.9474 22.1543 14.1492L19.4969 17.1388ZM18.9826 16.2157L18.7846 19.8017L22.7785 20.0223L22.9765 16.4363L18.9826 16.2157ZM18.7898 19.7309C18.7825 19.8111 18.7776 19.7843 18.806 19.696C18.8215 19.648 18.8548 19.5563 18.9199 19.4431C18.9849 19.33 19.0978 19.1674 19.282 19.0095L21.8852 22.0465C22.3378 21.6585 22.5291 21.1845 22.6141 20.92C22.7085 20.6264 22.7513 20.3356 22.7734 20.0931L18.7898 19.7309ZM19.0651 19.2264C19.2312 19.0326 19.4023 18.9174 19.5157 18.8538C19.6299 18.7898 19.721 18.7581 19.7653 18.7444C19.8465 18.7192 19.864 18.7255 19.7723 18.7335L20.1188 22.7185C20.3645 22.6971 20.6571 22.6558 20.9509 22.5646C21.208 22.4848 21.7016 22.2969 22.1021 21.8296L19.0651 19.2264ZM19.844 18.7286L12.056 19.1246L12.2592 23.1194L20.0471 22.7234L19.844 18.7286ZM15.0672 11.9014L17.7292 11.8354L17.63 7.83661L14.968 7.90261L15.0672 11.9014ZM19.6796 9.836V8.56H15.6796V9.836H19.6796ZM17.6279 6.56067L15.0759 6.62667L15.1793 10.6253L17.7313 10.5593L17.6279 6.56067ZM13.135 8.45422L13.025 9.73022L17.0102 10.0738L17.1202 8.79778L13.135 8.45422ZM30.745 7.592L32.7429 7.6848L32.8427 5.53457L30.691 5.59273L30.745 7.592ZM24.233 7.768L24.179 5.76873L24.1505 5.7695L24.1221 5.77108L24.233 7.768ZM23.661 7.658L22.2468 9.07222L22.3473 9.17272L22.461 9.25799L23.661 7.658ZM23.661 4.402L24.8235 6.02947L24.8424 6.01595L24.861 6.002L23.661 4.402ZM24.233 4.248L24.1877 2.24851L24.1548 2.24926L24.1221 2.25108L24.233 4.248ZM33.935 4.028L33.9803 6.02749L34.0011 6.02701L34.0219 6.02611L33.935 4.028ZM34.617 4.226L33.0553 5.47539L33.0916 5.52075L33.1304 5.56393L34.617 4.226ZM34.771 5.018L32.7769 4.8646L32.7745 4.89577L32.7731 4.927L34.771 5.018ZM34.287 15.644L36.2831 15.7688L36.2842 15.7519L36.2849 15.735L34.287 15.644ZM34.089 16.128L32.889 14.528L32.889 14.528L34.089 16.128ZM30.547 16.15L29.4376 17.8141L29.505 17.859L29.5757 17.8983L30.547 16.15ZM30.371 15.644L32.3676 15.7614L32.3683 15.7491L32.3689 15.7368L30.371 15.644ZM36.333 4.688L34.8464 3.35004L34.8382 3.35928L36.333 4.688ZM39.721 4.688L38.1593 5.93739L38.1917 5.97793L38.2262 6.01673L39.721 4.688ZM39.897 10.496H37.897V12.5566L39.9567 12.4951L39.897 10.496ZM41.371 10.452L41.4307 12.4511L41.4563 12.4503L41.4819 12.4489L41.371 10.452ZM41.921 10.584L40.5068 11.9982L40.6073 12.0987L40.721 12.184L41.921 10.584ZM41.921 13.664L43.0835 15.2915L43.1024 15.278L43.121 15.264L41.921 13.664ZM41.371 13.796L41.4307 15.7951L41.4563 15.7943L41.4819 15.7929L41.371 13.796ZM39.897 13.84L39.8373 11.8409L37.897 11.8988V13.84H39.897ZM39.721 19.802L41.2158 21.1307L41.2503 21.0919L41.2827 21.0514L39.721 19.802ZM36.333 19.802L34.7713 21.0514L34.8405 21.1379L34.9188 21.2162L36.333 19.802ZM25.465 17.778L25.5042 19.7776L27.465 19.7392V17.778H25.465ZM25.641 10.87L24.1544 9.53204L24.1462 9.54127L25.641 10.87ZM29.029 10.87L27.4673 12.1194L27.4997 12.1599L27.5342 12.1987L29.029 10.87ZM29.205 17.69H27.205V19.7334L29.2479 19.6895L29.205 17.69ZM34.331 17.58V15.58H34.3096L34.2881 15.5805L34.331 17.58ZM34.881 17.712L33.5794 19.2305L33.6289 19.2729L33.681 19.312L34.881 17.712ZM34.881 20.792L33.681 19.192L33.6289 19.2311L33.5794 19.2735L34.881 20.792ZM34.331 20.924V18.924H34.309L34.287 18.9245L34.331 20.924ZM24.343 21.144V23.144H24.365L24.387 23.1435L24.343 21.144ZM23.771 21.012L22.4694 22.5305L22.5189 22.5729L22.571 22.612L23.771 21.012ZM23.771 17.932L22.571 16.332L22.5189 16.3711L22.4694 16.4135L23.771 17.932ZM24.343 17.8V19.8H24.3626L24.3822 19.7996L24.343 17.8ZM30.691 5.59273L24.179 5.76873L24.287 9.76727L30.799 9.59127L30.691 5.59273ZM24.1221 5.77108C24.0991 5.77235 24.1581 5.76602 24.2697 5.78749C24.3802 5.80873 24.6113 5.87072 24.861 6.058L22.461 9.25799C23.1571 9.78004 23.9461 9.78702 24.344 9.76492L24.1221 5.77108ZM25.0752 6.24378C25.3161 6.48467 25.4213 6.73741 25.4655 6.889C25.5081 7.03498 25.507 7.12831 25.507 7.13H21.507C21.507 7.55476 21.5764 8.40183 22.2468 9.07222L25.0752 6.24378ZM25.507 7.13V4.886H21.507V7.13H25.507ZM25.507 4.886C25.507 4.89042 25.5069 4.91799 25.5012 4.96357C25.4956 5.00814 25.4828 5.08563 25.4514 5.18441C25.3904 5.37602 25.2266 5.74152 24.8235 6.02947L22.4985 2.77453C21.5302 3.46618 21.507 4.57123 21.507 4.886H25.507ZM24.861 6.002C24.659 6.15354 24.4823 6.20979 24.4119 6.22873C24.3374 6.24882 24.3069 6.24698 24.3439 6.24492L24.1221 2.25108C23.7385 2.27239 23.0593 2.3533 22.461 2.802L24.861 6.002ZM24.2784 6.24749L33.9803 6.02749L33.8897 2.02851L24.1877 2.24851L24.2784 6.24749ZM34.0219 6.02611C34.0578 6.02455 33.9648 6.03478 33.8009 5.98719C33.6222 5.93532 33.3142 5.799 33.0553 5.47539L36.1787 2.97661C35.4331 2.04457 34.3343 2.00875 33.8481 2.02989L34.0219 6.02611ZM33.1304 5.56393C32.8811 5.28687 32.8107 5.01537 32.7913 4.91574C32.7716 4.81475 32.7831 4.78418 32.7769 4.8646L36.7651 5.17139C36.8015 4.69887 36.8229 3.68734 36.1036 2.88807L33.1304 5.56393ZM32.7731 4.927L32.2891 15.553L36.2849 15.735L36.7689 5.109L32.7731 4.927ZM32.2909 15.5192C32.291 15.517 32.3168 14.9572 32.889 14.528L35.289 17.728C36.0959 17.1228 36.2536 16.2403 36.2831 15.7688L32.2909 15.5192ZM32.889 14.528C33.2322 14.2706 33.5465 14.26 33.605 14.26V18.26C34.0742 18.26 34.7111 18.1614 35.289 17.728L32.889 14.528ZM33.605 14.26H31.053V18.26H33.605V14.26ZM31.053 14.26C31.0705 14.26 31.2654 14.2612 31.5183 14.4017L29.5757 17.8983C30.0927 18.1855 30.6248 18.26 31.053 18.26V14.26ZM31.6564 14.4859C31.9982 14.7137 32.198 15.0274 32.293 15.3005C32.3772 15.5427 32.3699 15.7207 32.3676 15.7614L28.3745 15.5266C28.3435 16.0523 28.4258 17.1396 29.4376 17.8141L31.6564 14.4859ZM32.3689 15.7368L32.7429 7.6848L28.7472 7.4992L28.3732 15.5512L32.3689 15.7368ZM38.157 5.458C38.157 5.35678 38.166 5.35819 38.1507 5.42515C38.1422 5.4624 38.1221 5.53772 38.0779 5.63539C38.0335 5.73342 37.9567 5.87177 37.8278 6.01672L34.8382 3.35928C34.4728 3.77028 34.3216 4.22631 34.2513 4.53385C34.1773 4.85748 34.157 5.17788 34.157 5.458H38.157ZM37.8196 6.02593C37.6164 6.25167 37.3899 6.36689 37.2295 6.42037C37.1525 6.44603 37.0915 6.45748 37.0536 6.46273C37.0157 6.468 36.9942 6.468 36.993 6.468V2.468C36.4324 2.468 35.5266 2.59433 34.8464 3.35007L37.8196 6.02593ZM36.993 6.468H39.061V2.468H36.993V6.468ZM39.061 6.468C39.085 6.468 38.992 6.4725 38.8356 6.42037C38.6659 6.3638 38.3925 6.22887 38.1593 5.93739L41.2827 3.43861C40.5837 2.56482 39.5696 2.468 39.061 2.468V6.468ZM38.2262 6.01673C38.0973 5.87177 38.0205 5.73343 37.9761 5.63539C37.9319 5.53772 37.9118 5.46241 37.9033 5.42515C37.888 5.35819 37.897 5.35678 37.897 5.458H41.897C41.897 5.17788 41.8767 4.85747 41.8027 4.53385C41.7324 4.22631 41.5812 3.77027 41.2158 3.35927L38.2262 6.01673ZM37.897 5.458V10.496H41.897V5.458H37.897ZM39.9567 12.4951L41.4307 12.4511L41.3113 8.45289L39.8373 8.49689L39.9567 12.4951ZM41.4819 12.4489C41.4813 12.449 41.4604 12.4502 41.423 12.4477C41.3862 12.4453 41.3226 12.4386 41.2398 12.4188C41.0778 12.3799 40.7834 12.2748 40.5068 11.9982L43.3352 9.16978C42.6023 8.43686 41.6613 8.43279 41.2601 8.45508L41.4819 12.4489ZM40.721 12.184C40.3978 11.9416 40.2366 11.6424 40.164 11.4335C40.0971 11.2412 40.097 11.1072 40.097 11.09H44.097C44.097 10.6439 44.009 9.64999 43.121 8.984L40.721 12.184ZM40.097 11.09V13.158H44.097V11.09H40.097ZM40.097 13.158C40.097 13.1408 40.0971 13.0068 40.164 12.8145C40.2366 12.6056 40.3978 12.3064 40.721 12.064L43.121 15.264C44.009 14.598 44.097 13.6041 44.097 13.158H40.097ZM40.7585 12.0365C40.8826 11.9479 40.9935 11.8944 41.0698 11.8632C41.1469 11.8315 41.2067 11.8152 41.2398 11.8072C41.301 11.7925 41.3159 11.796 41.2601 11.7991L41.4819 15.7929C41.7912 15.7757 42.4823 15.7209 43.0835 15.2915L40.7585 12.0365ZM41.3113 11.7969L39.8373 11.8409L39.9567 15.8391L41.4307 15.7951L41.3113 11.7969ZM37.897 13.84V19.01H41.897V13.84H37.897ZM37.897 19.01C37.897 19.1091 37.8884 19.1153 37.9006 19.0601C37.9105 19.0158 37.9621 18.799 38.1593 18.5526L41.2827 21.0514C41.8574 20.333 41.897 19.4541 41.897 19.01H37.897ZM38.2262 18.4733C38.4776 18.1904 38.7528 18.077 38.8933 18.0348C39.0281 17.9944 39.0999 18 39.061 18V22C39.5188 22 40.5028 21.9328 41.2158 21.1307L38.2262 18.4733ZM39.061 18H36.993V22H39.061V18ZM36.993 18C36.9719 18 37.0441 17.9966 37.1717 18.0348C37.3066 18.0753 37.5312 18.1717 37.7472 18.3878L34.9188 21.2162C35.6069 21.9043 36.482 22 36.993 22V18ZM37.8948 18.5526C38.0919 18.799 38.1435 19.0158 38.1534 19.0601C38.1656 19.1153 38.157 19.1091 38.157 19.01H34.157C34.157 19.4541 34.1966 20.333 34.7713 21.0514L37.8948 18.5526ZM38.157 19.01V5.458H34.157V19.01H38.157ZM27.465 17.778V11.64H23.465V17.778H27.465ZM27.465 11.64C27.465 11.5388 27.474 11.5402 27.4587 11.6071C27.4502 11.6444 27.4301 11.7197 27.3859 11.8174C27.3415 11.9154 27.2647 12.0538 27.1358 12.1987L24.1462 9.54127C23.7809 9.95228 23.6296 10.4083 23.5593 10.7158C23.4853 11.0395 23.465 11.3599 23.465 11.64H27.465ZM27.1276 12.2079C26.9244 12.4337 26.6979 12.5489 26.5375 12.6024C26.4605 12.628 26.3995 12.6395 26.3616 12.6447C26.3237 12.65 26.3022 12.65 26.301 12.65V8.65C25.7404 8.65 24.8346 8.77633 24.1544 9.53207L27.1276 12.2079ZM26.301 12.65H28.369V8.65H26.301V12.65ZM28.369 12.65C28.393 12.65 28.3 12.6545 28.1436 12.6024C27.9739 12.5458 27.7005 12.4109 27.4673 12.1194L30.5907 9.62061C29.8917 8.74682 28.8776 8.65 28.369 8.65V12.65ZM27.5342 12.1987C27.4053 12.0538 27.3285 11.9154 27.2841 11.8174C27.2399 11.7197 27.2198 11.6444 27.2113 11.6072C27.196 11.5402 27.205 11.5388 27.205 11.64H31.205C31.205 11.3599 31.1847 11.0395 31.1107 10.7158C31.0404 10.4083 30.8892 9.95227 30.5238 9.54127L27.5342 12.1987ZM27.205 11.64V17.69H31.205V11.64H27.205ZM29.2479 19.6895L34.3739 19.5795L34.2881 15.5805L29.1621 15.6905L29.2479 19.6895ZM34.331 19.58C34.3632 19.58 34.3082 19.5838 34.1998 19.5578C34.0978 19.5333 33.8445 19.4577 33.5794 19.2305L36.1826 16.1935C35.5028 15.6108 34.6814 15.58 34.331 15.58V19.58ZM33.681 19.312C33.3578 19.0696 33.1967 18.7704 33.124 18.5615C33.0571 18.3692 33.057 18.2353 33.057 18.218H37.057C37.057 17.7719 36.969 16.778 36.081 16.112L33.681 19.312ZM33.057 18.218V20.286H37.057V18.218H33.057ZM33.057 20.286C33.057 20.2687 33.0571 20.1348 33.124 19.9425C33.1967 19.7336 33.3578 19.4344 33.681 19.192L36.081 22.392C36.969 21.726 37.057 20.7321 37.057 20.286H33.057ZM33.5794 19.2735C33.8445 19.0463 34.0978 18.9707 34.1998 18.9462C34.3082 18.9202 34.3632 18.924 34.331 18.924V22.924C34.6814 22.924 35.5028 22.8932 36.1826 22.3105L33.5794 19.2735ZM34.287 18.9245L24.299 19.1445L24.387 23.1435L34.3751 22.9235L34.287 18.9245ZM24.343 19.144C24.3136 19.144 24.3586 19.1407 24.4517 19.1622C24.542 19.183 24.7454 19.2428 24.971 19.412L22.571 22.612C23.2173 23.0968 23.9508 23.144 24.343 23.144V19.144ZM25.0726 19.4935C25.3857 19.7618 25.5169 20.0663 25.5689 20.2372C25.5954 20.3244 25.6067 20.393 25.6117 20.4341C25.6168 20.4758 25.617 20.5012 25.617 20.506H21.617C21.617 20.8836 21.6666 21.8424 22.4694 22.5305L25.0726 19.4935ZM25.617 20.506V18.438H21.617V20.506H25.617ZM25.617 18.438C25.617 18.4428 25.6168 18.4682 25.6117 18.5099C25.6067 18.551 25.5954 18.6196 25.5689 18.7068C25.5169 18.8777 25.3857 19.1822 25.0726 19.4505L22.4694 16.4135C21.6666 17.1016 21.617 18.0604 21.617 18.438H25.617ZM24.971 19.532C24.7454 19.7012 24.542 19.761 24.4517 19.7818C24.3586 19.8033 24.3136 19.8 24.343 19.8V15.8C23.9508 15.8 23.2173 15.8472 22.571 16.332L24.971 19.532ZM24.3822 19.7996L25.5042 19.7776L25.4258 15.7784L24.3038 15.8004L24.3822 19.7996ZM53.4913 16.282L53.4483 14.2825L51.4913 14.3245V16.282H53.4913ZM53.4913 17.668H51.4913V19.7063L53.5292 19.6676L53.4913 17.668ZM58.1333 17.58V15.58H58.1143L58.0954 15.5804L58.1333 17.58ZM58.6833 17.712L57.3817 19.2305L57.4312 19.2729L57.4833 19.312L58.6833 17.712ZM58.6833 20.792L57.4833 19.192L57.4312 19.2311L57.3817 19.2735L58.6833 20.792ZM58.1333 20.924V18.924H58.1164L58.0995 18.9243L58.1333 20.924ZM45.1093 21.144V23.144H45.1262L45.1431 23.1437L45.1093 21.144ZM44.5373 21.012L43.2357 22.5305L43.2852 22.5729L43.3373 22.612L44.5373 21.012ZM44.5373 17.932L43.3373 16.332L43.2852 16.3711L43.2357 16.4135L44.5373 17.932ZM45.1093 17.8V19.8H45.1235L45.1377 19.7998L45.1093 17.8ZM49.7513 17.734L49.7797 19.7338L51.7513 19.7058V17.734H49.7513ZM49.7513 16.348H51.7513V14.3175L49.721 14.3482L49.7513 16.348ZM45.3953 16.414V18.414H45.4104L45.4256 18.4138L45.3953 16.414ZM44.7573 16.172L46.3748 14.9957V14.9957L44.7573 16.172ZM44.5593 15.424L42.5595 15.4542L42.5599 15.4826L42.5612 15.5109L44.5593 15.424ZM44.4053 5.238L46.4051 5.20777L46.4047 5.18444L46.4038 5.16113L44.4053 5.238ZM44.5593 4.468L43.0727 3.13004L43.0645 3.13927L44.5593 4.468ZM47.9473 4.468L46.3856 5.71739L46.4548 5.80389L46.5331 5.88221L47.9473 4.468ZM48.1453 7.328H46.1453V9.37382L48.1906 9.32749L48.1453 7.328ZM54.9433 7.174L54.9886 9.17349L56.9038 9.1301L56.9429 7.21481L54.9433 7.174ZM54.9873 5.018L56.9869 5.05881L56.9873 5.03841V5.018H54.9873ZM55.1633 4.248L53.6767 2.91004L53.6685 2.91927L55.1633 4.248ZM58.5513 4.248L56.9896 5.49739L57.0588 5.58389L57.1371 5.66221L58.5513 4.248ZM58.7273 5.018L56.7288 4.94113L56.7285 4.94934L56.7282 4.95755L58.7273 5.018ZM58.4193 15.204L60.4174 15.2909L60.418 15.2777L60.4184 15.2644L58.4193 15.204ZM58.2213 15.952L59.8388 17.1283L59.8388 17.1283L58.2213 15.952ZM57.5833 16.194V14.194H57.5618L57.5403 14.1945L57.5833 16.194ZM54.8773 12.96L54.9101 14.9597L56.8604 14.9278L56.8772 12.9772L54.8773 12.96ZM54.8993 10.408L56.8992 10.4252L56.917 8.36132L54.8535 8.40852L54.8993 10.408ZM48.1673 10.562L48.1216 8.56252L46.1673 8.60723V10.562H48.1673ZM48.1673 13.07H46.1673V15.1031L48.2001 15.0697L48.1673 13.07ZM51.4913 16.282V17.668H55.4913V16.282H51.4913ZM53.5292 19.6676L58.1712 19.5796L58.0954 15.5804L53.4534 15.6684L53.5292 19.6676ZM58.1333 19.58C58.1655 19.58 58.1105 19.5838 58.002 19.5578C57.9001 19.5333 57.6468 19.4577 57.3817 19.2305L59.9849 16.1935C59.305 15.6108 58.4837 15.58 58.1333 15.58V19.58ZM57.4833 19.312C57.1601 19.0696 56.9989 18.7704 56.9263 18.5615C56.8594 18.3692 56.8593 18.2353 56.8593 18.218H60.8593C60.8593 17.7719 60.7713 16.778 59.8833 16.112L57.4833 19.312ZM56.8593 18.218V20.286H60.8593V18.218H56.8593ZM56.8593 20.286C56.8593 20.2687 56.8594 20.1348 56.9263 19.9425C56.9989 19.7336 57.1601 19.4344 57.4833 19.192L59.8833 22.392C60.7713 21.726 60.8593 20.7321 60.8593 20.286H56.8593ZM57.3817 19.2735C57.6468 19.0463 57.9001 18.9707 58.002 18.9462C58.1105 18.9202 58.1655 18.924 58.1333 18.924V22.924C58.4837 22.924 59.305 22.8932 59.9849 22.3105L57.3817 19.2735ZM58.0995 18.9243L45.0755 19.1443L45.1431 23.1437L58.1671 22.9237L58.0995 18.9243ZM45.1093 19.144C45.0798 19.144 45.1249 19.1407 45.218 19.1622C45.3083 19.183 45.5117 19.2428 45.7373 19.412L43.3373 22.612C43.9836 23.0968 44.717 23.144 45.1093 23.144V19.144ZM45.8389 19.4935C46.1519 19.7618 46.2831 20.0663 46.3351 20.2372C46.3617 20.3244 46.3729 20.393 46.378 20.4341C46.3831 20.4758 46.3833 20.5012 46.3833 20.506H42.3833C42.3833 20.8836 42.4329 21.8424 43.2357 22.5305L45.8389 19.4935ZM46.3833 20.506V18.438H42.3833V20.506H46.3833ZM46.3833 18.438C46.3833 18.4428 46.3831 18.4682 46.378 18.5099C46.3729 18.551 46.3617 18.6196 46.3351 18.7068C46.2831 18.8777 46.1519 19.1822 45.8389 19.4505L43.2357 16.4135C42.4329 17.1016 42.3833 18.0604 42.3833 18.438H46.3833ZM45.7373 19.532C45.5117 19.7012 45.3083 19.761 45.218 19.7818C45.1249 19.8033 45.0798 19.8 45.1093 19.8V15.8C44.717 15.8 43.9836 15.8472 43.3373 16.332L45.7373 19.532ZM45.1377 19.7998L49.7797 19.7338L49.7229 15.7342L45.0809 15.8002L45.1377 19.7998ZM51.7513 17.734V16.348H47.7513V17.734H51.7513ZM49.721 14.3482L45.365 14.4142L45.4256 18.4138L49.7816 18.3478L49.721 14.3482ZM45.3953 14.414C45.4033 14.414 45.5292 14.4134 45.7141 14.4835C45.9191 14.5612 46.1737 14.7192 46.3748 14.9957L43.1398 17.3483C43.8037 18.2612 44.8059 18.414 45.3953 18.414V14.414ZM46.3748 14.9957C46.4973 15.1642 46.5406 15.3044 46.5532 15.3522C46.5662 15.4015 46.5603 15.4036 46.5574 15.3371L42.5612 15.5109C42.5824 15.9982 42.681 16.7174 43.1398 17.3483L46.3748 14.9957ZM46.5591 15.3938L46.4051 5.20777L42.4055 5.26823L42.5595 15.4542L46.5591 15.3938ZM46.4038 5.16113C46.4 5.06303 46.4097 5.07302 46.394 5.15173C46.3813 5.2152 46.3183 5.49947 46.0541 5.79673L43.0645 3.13927C42.6829 3.56853 42.5357 4.04713 42.4716 4.36727C42.4045 4.70265 42.3959 5.03164 42.4068 5.31487L46.4038 5.16113ZM46.0459 5.80593C45.8309 6.04484 45.5942 6.15758 45.4428 6.20642C45.3023 6.25174 45.2203 6.248 45.2413 6.248V2.248C44.7007 2.248 43.7674 2.3582 43.0727 3.13007L46.0459 5.80593ZM45.2413 6.248H47.3093V2.248H45.2413V6.248ZM47.3093 6.248C47.3083 6.248 47.2849 6.24803 47.2435 6.2422C47.2023 6.2364 47.1341 6.22349 47.0478 6.19375C46.8678 6.13166 46.6065 5.99356 46.3856 5.71739L49.509 3.21861C48.8241 2.36247 47.8412 2.248 47.3093 2.248V6.248ZM46.5331 5.88221C46.2614 5.61056 46.1795 5.33811 46.1588 5.25758C46.1361 5.16927 46.1453 5.14866 46.1453 5.238H50.1453C50.1453 4.80105 50.1065 3.7988 49.3615 3.05379L46.5331 5.88221ZM46.1453 5.238V7.328H50.1453V5.238H46.1453ZM48.1906 9.32749L54.9886 9.17349L54.898 5.17451L48.1 5.32851L48.1906 9.32749ZM56.9429 7.21481L56.9869 5.05881L52.9877 4.97719L52.9437 7.13319L56.9429 7.21481ZM56.9873 5.018C56.9873 4.91679 56.9963 4.91819 56.981 4.98515C56.9725 5.02241 56.9524 5.09772 56.9082 5.19539C56.8638 5.29343 56.787 5.43178 56.6581 5.57673L53.6685 2.91927C53.3031 3.33027 53.1519 3.78631 53.0816 4.09385C53.0076 4.41747 52.9873 4.73788 52.9873 5.018H56.9873ZM56.6499 5.58593C56.4467 5.81167 56.2202 5.92689 56.0597 5.98037C55.9828 6.00603 55.9218 6.01748 55.8839 6.02273C55.846 6.028 55.8245 6.028 55.8233 6.028V2.028C55.2627 2.028 54.3569 2.15433 53.6767 2.91007L56.6499 5.58593ZM55.8233 6.028H57.8913V2.028H55.8233V6.028ZM57.8913 6.028C57.9153 6.028 57.8223 6.0325 57.6658 5.98037C57.4961 5.92381 57.2227 5.78887 56.9896 5.49739L60.113 2.99861C59.414 2.12482 58.3999 2.028 57.8913 2.028V6.028ZM57.1371 5.66221C56.8491 5.37426 56.7662 5.07989 56.7446 4.98515C56.7215 4.88439 56.7321 4.85479 56.7288 4.94113L60.7258 5.09486C60.7372 4.79987 60.7257 4.45127 60.644 4.09385C60.5637 3.74244 60.3855 3.25374 59.9655 2.83379L57.1371 5.66221ZM56.7282 4.95755L56.4202 15.1436L60.4184 15.2644L60.7264 5.07845L56.7282 4.95755ZM56.4212 15.1171C56.4183 15.1836 56.4123 15.1814 56.4254 15.1322C56.438 15.0844 56.4813 14.9442 56.6038 14.7757L59.8388 17.1283C60.2976 16.4974 60.3962 15.7782 60.4174 15.2909L56.4212 15.1171ZM56.6038 14.7757C56.8049 14.4992 57.0595 14.3412 57.2645 14.2635C57.4494 14.1934 57.5753 14.194 57.5833 14.194V18.194C58.1727 18.194 59.1749 18.0412 59.8388 17.1283L56.6038 14.7757ZM57.5403 14.1945L53.4483 14.2825L53.5343 18.2815L57.6263 18.1935L57.5403 14.1945ZM56.8772 12.9772L56.8992 10.4252L52.8994 10.3908L52.8774 12.9428L56.8772 12.9772ZM54.8535 8.40852L48.1216 8.56252L48.213 12.5615L54.945 12.4075L54.8535 8.40852ZM46.1673 10.562V13.07H50.1673V10.562H46.1673ZM48.2001 15.0697L54.9101 14.9597L54.8445 10.9603L48.1345 11.0703L48.2001 15.0697ZM75.047 4.688L73.5604 3.35004L73.5522 3.35927L75.047 4.688ZM78.435 4.688L76.8733 5.93739L76.9057 5.97793L76.9402 6.01672L78.435 4.688ZM78.435 19.802L79.9298 21.1307L79.9643 21.0919L79.9967 21.0514L78.435 19.802ZM75.047 19.802L73.4853 21.0514L73.5545 21.1379L73.6328 21.2162L75.047 19.802ZM69.129 7.438L71.1231 7.59139L71.2924 5.39035L69.0854 5.43847L69.129 7.438ZM62.067 7.592V9.592H62.0888L62.1106 9.59152L62.067 7.592ZM61.495 7.46L60.1934 8.97851L60.2429 9.02091L60.295 9.05999L61.495 7.46ZM61.495 4.38L60.295 2.78L60.2429 2.81909L60.1934 2.86148L61.495 4.38ZM62.067 4.248V6.248H62.0887L62.1104 6.24753L62.067 4.248ZM72.209 4.028L72.2524 6.02753L72.2741 6.02706L72.2959 6.02611L72.209 4.028ZM72.891 4.226L71.3293 5.47539L71.3655 5.52075L71.4044 5.56393L72.891 4.226ZM73.045 5.018L75.039 5.17302L75.0391 5.17139L73.045 5.018ZM71.923 19.45L69.929 19.295L69.9289 19.2966L71.923 19.45ZM71.725 20.22L70.1463 18.9921L70.1154 19.0318L70.0865 19.0731L71.725 20.22ZM68.359 20.22L69.7732 18.8058V18.8058L68.359 20.22ZM68.205 19.45L66.2109 19.2966V19.2966L68.205 19.45ZM76.871 5.458C76.871 5.35678 76.88 5.35819 76.8647 5.42515C76.8562 5.46241 76.8361 5.53772 76.7919 5.63539C76.7475 5.73343 76.6707 5.87177 76.5418 6.01673L73.5522 3.35927C73.1868 3.77027 73.0356 4.22631 72.9653 4.53385C72.8913 4.85747 72.871 5.17788 72.871 5.458H76.871ZM76.5336 6.02593C76.3304 6.25167 76.1039 6.36689 75.9435 6.42037C75.8665 6.44603 75.8055 6.45748 75.7676 6.46273C75.7297 6.468 75.7082 6.468 75.707 6.468V2.468C75.1464 2.468 74.2406 2.59433 73.5604 3.35007L76.5336 6.02593ZM75.707 6.468H77.775V2.468H75.707V6.468ZM77.775 6.468C77.799 6.468 77.7059 6.4725 77.5495 6.42037C77.3799 6.3638 77.1064 6.22887 76.8733 5.93739L79.9967 3.43861C79.2977 2.56482 78.2836 2.468 77.775 2.468V6.468ZM76.9402 6.01672C76.8113 5.87177 76.7345 5.73342 76.6901 5.63539C76.6459 5.53772 76.6258 5.4624 76.6173 5.42515C76.602 5.35819 76.611 5.35678 76.611 5.458H80.611C80.611 5.17788 80.5907 4.85748 80.5167 4.53385C80.4464 4.22631 80.2952 3.77028 79.9298 3.35928L76.9402 6.01672ZM76.611 5.458V19.01H80.611V5.458H76.611ZM76.611 19.01C76.611 19.1091 76.6024 19.1153 76.6146 19.0601C76.6245 19.0158 76.6761 18.799 76.8733 18.5526L79.9967 21.0514C80.5714 20.333 80.611 19.4541 80.611 19.01H76.611ZM76.9402 18.4733C77.1916 18.1904 77.4668 18.077 77.6073 18.0348C77.7421 17.9944 77.8139 18 77.775 18V22C78.2327 22 79.2168 21.9328 79.9298 21.1307L76.9402 18.4733ZM77.775 18H75.707V22H77.775V18ZM75.707 18C75.6858 18 75.7581 17.9966 75.8857 18.0348C76.0206 18.0753 76.2452 18.1717 76.4612 18.3878L73.6328 21.2162C74.3209 21.9043 75.196 22 75.707 22V18ZM76.6087 18.5526C76.8059 18.799 76.8575 19.0158 76.8674 19.0601C76.8796 19.1153 76.871 19.1091 76.871 19.01H72.871C72.871 19.4541 72.9106 20.333 73.4853 21.0514L76.6087 18.5526ZM76.871 19.01V5.458H72.871V19.01H76.871ZM69.0854 5.43847L62.0234 5.59247L62.1106 9.59152L69.1726 9.43752L69.0854 5.43847ZM62.067 5.592C62.0376 5.592 62.0826 5.58873 62.1757 5.61022C62.266 5.63104 62.4694 5.69078 62.695 5.86L60.295 9.05999C60.9413 9.54475 61.6747 9.592 62.067 9.592V5.592ZM62.7966 5.94148C63.1096 6.20982 63.2408 6.51431 63.2928 6.68518C63.3194 6.77239 63.3307 6.84097 63.3357 6.88209C63.3408 6.92382 63.341 6.9492 63.341 6.954H59.341C59.341 7.33164 59.3906 8.29038 60.1934 8.97851L62.7966 5.94148ZM63.341 6.954V4.886H59.341V6.954H63.341ZM63.341 4.886C63.341 4.8908 63.3408 4.91618 63.3357 4.95791C63.3307 4.99903 63.3194 5.0676 63.2928 5.15482C63.2408 5.32569 63.1096 5.63018 62.7966 5.89851L60.1934 2.86148C59.3906 3.54961 59.341 4.50836 59.341 4.886H63.341ZM62.695 5.98C62.4694 6.14922 62.2659 6.20896 62.1757 6.22978C62.0826 6.25127 62.0376 6.248 62.067 6.248V2.248C61.6747 2.248 60.9413 2.29525 60.295 2.78L62.695 5.98ZM62.1104 6.24753L72.2524 6.02753L72.1656 2.02847L62.0236 2.24847L62.1104 6.24753ZM72.2959 6.02611C72.3318 6.02455 72.2388 6.03478 72.0749 5.98719C71.8962 5.93532 71.5881 5.799 71.3293 5.47539L74.4527 2.97661C73.7071 2.04457 72.6083 2.00875 72.1221 2.02989L72.2959 6.02611ZM71.4044 5.56393C71.1551 5.28687 71.0846 5.01537 71.0653 4.91574C71.0456 4.81475 71.0571 4.78418 71.0509 4.8646L75.0391 5.17139C75.0754 4.69887 75.0969 3.68734 74.3776 2.88807L71.4044 5.56393ZM71.051 4.86298L69.929 19.295L73.917 19.605L75.039 5.17302L71.051 4.86298ZM69.9289 19.2966C69.9196 19.4172 69.9088 19.4526 69.9145 19.4304C69.918 19.4168 69.9308 19.3698 69.9604 19.3014C69.9893 19.2348 70.0457 19.1214 70.1463 18.9921L73.3037 21.4479C73.5927 21.0763 73.7227 20.6824 73.7885 20.4266C73.8602 20.1477 73.897 19.8641 73.9171 19.6034L69.9289 19.2966ZM70.0865 19.0731C70.3332 18.7206 70.6471 18.5596 70.8365 18.4943C71.0095 18.4346 71.1145 18.44 71.087 18.44V22.44C71.5559 22.44 72.6685 22.3597 73.3635 21.3669L70.0865 19.0731ZM71.087 18.44H69.041V22.44H71.087V18.44ZM69.041 18.44C69.0425 18.44 69.0621 18.44 69.0966 18.4448C69.1311 18.4495 69.1853 18.4596 69.2535 18.4816C69.3956 18.5274 69.5905 18.6231 69.7732 18.8058L66.9448 21.6342C67.6149 22.3044 68.4578 22.44 69.041 22.44V18.44ZM69.7732 18.8058C70.0778 19.1104 70.1609 19.4273 70.1827 19.5363C70.2053 19.6493 70.1926 19.6874 70.1991 19.6034L66.2109 19.2966C66.188 19.594 66.1864 19.9511 66.2603 20.3207C66.3335 20.6864 66.5082 21.1976 66.9448 21.6342L69.7732 18.8058ZM70.1991 19.6034L71.1231 7.59139L67.1349 7.28461L66.2109 19.2966L70.1991 19.6034Z" fill="#212121" mask="url(#path-1-outside-1_1528_1091)"/>
    </g>
    <defs>
        <filter id="filter0_d_1528_1091" x="4.15039" y="3.78613" width="75.4609" height="21.5039" filterUnits="userSpaceOnUse" color-interpolation-filters="sRGB">
            <feFlood flood-opacity="0" result="BackgroundImageFix"/>
            <feColorMatrix in="SourceAlpha" type="matrix" values="0 0 0 0 0 0 0 0 0 0 0 0 0 0 0 0 0 0 127 0" result="hardAlpha"/>
            <feOffset dx="1" dy="1"/>
            <feComposite in2="hardAlpha" operator="out"/>
            <feColorMatrix type="matrix" values="0 0 0 0 0.0784314 0 0 0 0 0.0941176 0 0 0 0 0.121569 0 0 0 1 0"/>
            <feBlend mode="normal" in2="BackgroundImageFix" result="effect1_dropShadow_1528_1091"/>
            <feBlend mode="normal" in="SourceGraphic" in2="effect1_dropShadow_1528_1091" result="shape"/>
        </filter>
    </defs>
</svg>
